<?xml version="1.0" encoding="utf-8"?>
<!-- Generator: Adobe Illustrator 15.1.0, SVG Export Plug-In . SVG Version: 6.00 Build 0)  -->
<!DOCTYPE svg PUBLIC "-//W3C//DTD SVG 1.1//EN" "http://www.w3.org/Graphics/SVG/1.1/DTD/svg11.dtd">
<svg version="1.1" id="Layer_1" xmlns="http://www.w3.org/2000/svg" xmlns:xlink="http://www.w3.org/1999/xlink" x="0px" y="0px"
	 width="99px" height="22px" viewBox="0 0 99 22" enable-background="new 0 0 99 22" xml:space="preserve">
<g opacity="0.35">
	<path fill="#F15D34" d="M0.225,10.382h1.248V8.293C1.56,8.325,1.641,8.352,1.717,8.374c0.075,0.022,0.204,0.034,0.388,0.034
		c0.162,0,0.303-0.02,0.421-0.058c0.119-0.038,0.231-0.1,0.34-0.186v2.219h2.299v0.227H2.866v5.296c0,0.303,0.03,0.548,0.088,0.736
		c0.06,0.188,0.139,0.334,0.236,0.438c0.096,0.104,0.202,0.17,0.316,0.202c0.113,0.032,0.223,0.05,0.332,0.05
		c0.378,0,0.682-0.139,0.916-0.413c0.232-0.274,0.38-0.592,0.444-0.948l0.228,0.081c-0.033,0.142-0.082,0.298-0.146,0.47
		c-0.065,0.174-0.164,0.338-0.299,0.494c-0.135,0.155-0.31,0.286-0.527,0.389c-0.217,0.104-0.486,0.154-0.811,0.154
		c-0.81,0-1.374-0.158-1.692-0.472c-0.318-0.312-0.478-0.754-0.478-1.325V10.61H0.225V10.382z"/>
	<path fill="#F15D34" d="M6.072,13.865c0-0.529,0.117-1.021,0.349-1.475c0.231-0.455,0.528-0.845,0.891-1.175
		c0.36-0.329,0.768-0.585,1.215-0.769c0.448-0.184,0.888-0.276,1.32-0.276c0.431,0,0.871,0.092,1.32,0.276
		c0.448,0.184,0.852,0.44,1.214,0.769c0.362,0.33,0.658,0.72,0.892,1.175c0.231,0.453,0.348,0.945,0.348,1.475
		c0,0.507-0.109,0.984-0.324,1.433c-0.217,0.448-0.5,0.839-0.853,1.175c-0.349,0.334-0.752,0.601-1.205,0.795
		c-0.452,0.192-0.918,0.291-1.393,0.291c-0.475,0-0.939-0.099-1.393-0.291c-0.454-0.194-0.855-0.461-1.206-0.795
		c-0.352-0.336-0.636-0.727-0.851-1.175S6.072,14.372,6.072,13.865z M7.693,13.865c0,0.766,0.06,1.376,0.177,1.83
		c0.12,0.451,0.275,0.801,0.471,1.045c0.193,0.242,0.421,0.4,0.681,0.478c0.257,0.074,0.534,0.113,0.825,0.113
		s0.566-0.039,0.826-0.113c0.259-0.077,0.486-0.235,0.68-0.478c0.195-0.244,0.352-0.594,0.47-1.045
		c0.119-0.454,0.178-1.064,0.178-1.83c0-0.649-0.043-1.191-0.129-1.629c-0.087-0.438-0.219-0.793-0.397-1.068
		c-0.179-0.275-0.402-0.473-0.673-0.591c-0.271-0.119-0.589-0.179-0.955-0.179c-0.367,0-0.686,0.06-0.955,0.179
		c-0.272,0.118-0.495,0.316-0.673,0.591c-0.178,0.275-0.31,0.631-0.397,1.068C7.734,12.674,7.693,13.216,7.693,13.865z"/>
	<path fill="#F15D34" d="M22.091,17.15c-0.141,0.108-0.309,0.203-0.501,0.285c-0.194,0.08-0.434,0.121-0.713,0.121
		c-0.518,0-0.893-0.111-1.126-0.332c-0.232-0.222-0.392-0.531-0.478-0.931H19.24c-0.042,0.097-0.103,0.22-0.178,0.363
		c-0.076,0.146-0.191,0.286-0.349,0.421c-0.156,0.136-0.364,0.25-0.624,0.34c-0.258,0.091-0.589,0.139-0.987,0.139
		c-0.454,0-0.815-0.052-1.085-0.154c-0.271-0.103-0.479-0.229-0.631-0.379c-0.152-0.152-0.252-0.322-0.3-0.51
		c-0.049-0.191-0.073-0.367-0.073-0.527c0-0.379,0.075-0.682,0.226-0.908c0.152-0.227,0.348-0.406,0.591-0.541
		c0.244-0.137,0.513-0.246,0.809-0.332c0.298-0.087,0.598-0.178,0.899-0.275c0.357-0.119,0.65-0.222,0.883-0.308
		c0.232-0.087,0.413-0.192,0.542-0.317c0.129-0.123,0.219-0.279,0.267-0.47c0.049-0.188,0.073-0.444,0.073-0.769
		c0-0.259-0.016-0.49-0.047-0.695c-0.032-0.206-0.092-0.381-0.177-0.527c-0.087-0.146-0.212-0.256-0.374-0.332
		c-0.163-0.076-0.379-0.113-0.648-0.113c-0.356,0-0.651,0.062-0.882,0.187c-0.233,0.124-0.348,0.327-0.348,0.608
		c0,0.183,0.015,0.364,0.047,0.542c0.032,0.178,0.048,0.311,0.048,0.397c0,0.151-0.054,0.278-0.16,0.381
		c-0.109,0.104-0.265,0.153-0.472,0.153c-0.354,0-0.577-0.065-0.663-0.194c-0.084-0.13-0.129-0.298-0.129-0.502
		c0-0.237,0.054-0.464,0.163-0.68c0.106-0.215,0.267-0.407,0.477-0.575c0.209-0.167,0.474-0.3,0.793-0.397
		c0.318-0.097,0.683-0.146,1.094-0.146c0.495,0,0.912,0.062,1.245,0.187c0.335,0.124,0.604,0.292,0.81,0.502
		c0.207,0.211,0.351,0.448,0.438,0.713c0.086,0.264,0.128,0.542,0.128,0.833v4.034c0,0.313,0.049,0.521,0.147,0.632
		c0.097,0.106,0.236,0.159,0.42,0.159c0.12,0,0.243-0.021,0.374-0.063c0.128-0.043,0.253-0.106,0.372-0.194L22.091,17.15z
		 M19.257,13.361h-0.032c-0.023,0.141-0.2,0.281-0.537,0.422l-1.213,0.486c-0.346,0.142-0.609,0.338-0.793,0.59
		c-0.184,0.255-0.276,0.57-0.276,0.949c0,0.16,0.017,0.327,0.049,0.502c0.031,0.172,0.091,0.325,0.177,0.461
		s0.208,0.244,0.364,0.332c0.157,0.086,0.359,0.129,0.609,0.129c0.356,0,0.646-0.074,0.867-0.228
		c0.221-0.149,0.388-0.339,0.501-0.565c0.114-0.228,0.189-0.472,0.228-0.737c0.039-0.265,0.057-0.504,0.057-0.72L19.257,13.361
		L19.257,13.361z"/>
	<path fill="#F15D34" d="M27.403,5.653h2.639v11.451h1.248v0.229h-2.607v-1.409H28.65c-0.044,0.129-0.108,0.286-0.195,0.47
		c-0.085,0.184-0.211,0.362-0.38,0.535c-0.166,0.172-0.377,0.32-0.631,0.445c-0.254,0.123-0.564,0.186-0.931,0.186
		c-0.475,0-0.926-0.103-1.353-0.309c-0.426-0.204-0.801-0.48-1.125-0.825c-0.324-0.345-0.581-0.743-0.768-1.19
		c-0.19-0.447-0.284-0.92-0.284-1.418c0-0.484,0.09-0.948,0.273-1.392c0.186-0.443,0.433-0.829,0.747-1.159
		c0.312-0.328,0.674-0.593,1.085-0.793c0.41-0.199,0.847-0.3,1.31-0.3c0.595,0,1.076,0.146,1.442,0.438
		c0.367,0.292,0.627,0.648,0.778,1.069h0.032v-5.8h-1.247V5.653z M24.602,13.622c0,0.562,0.014,1.071,0.049,1.53
		c0.031,0.459,0.112,0.85,0.242,1.174s0.323,0.572,0.583,0.746c0.26,0.172,0.61,0.259,1.053,0.259c0.453,0,0.819-0.099,1.093-0.292
		c0.277-0.193,0.49-0.445,0.64-0.753c0.151-0.308,0.254-0.65,0.308-1.027c0.055-0.379,0.082-0.747,0.082-1.103
		c0-0.422-0.008-0.785-0.025-1.094c-0.016-0.308-0.045-0.58-0.088-0.817c-0.044-0.238-0.102-0.443-0.178-0.616
		c-0.076-0.172-0.168-0.334-0.274-0.486c-0.163-0.216-0.374-0.394-0.632-0.535c-0.26-0.139-0.59-0.21-0.989-0.21
		c-0.378,0-0.688,0.076-0.932,0.227c-0.242,0.151-0.43,0.367-0.566,0.647c-0.135,0.281-0.229,0.619-0.284,1.012
		C24.627,12.68,24.602,13.125,24.602,13.622z"/>
	<g>
		<path fill="#404040" d="M32.635,15.064h0.177c0.076,0.258,0.172,0.521,0.291,0.785c0.12,0.264,0.278,0.506,0.479,0.728
			c0.2,0.222,0.445,0.403,0.737,0.542c0.292,0.142,0.643,0.212,1.054,0.212c0.346,0,0.653-0.104,0.922-0.315
			c0.271-0.211,0.406-0.554,0.406-1.029c0-0.409-0.106-0.698-0.316-0.866c-0.21-0.165-0.457-0.3-0.737-0.396l-1.264-0.438
			c-0.161-0.057-0.337-0.122-0.525-0.202c-0.189-0.082-0.364-0.194-0.528-0.341c-0.162-0.146-0.293-0.333-0.396-0.561
			c-0.103-0.226-0.154-0.518-0.154-0.873c0-0.303,0.06-0.583,0.179-0.843c0.12-0.258,0.28-0.486,0.485-0.681
			c0.205-0.193,0.45-0.344,0.738-0.453c0.286-0.108,0.596-0.163,0.931-0.163c0.237,0,0.428,0.02,0.575,0.057
			c0.145,0.039,0.272,0.076,0.38,0.114c0.108,0.039,0.204,0.076,0.292,0.114c0.087,0.038,0.19,0.056,0.307,0.056
			c0.12,0,0.205-0.042,0.261-0.13h0.177v1.847h-0.177c-0.077-0.237-0.163-0.465-0.261-0.688c-0.098-0.221-0.213-0.418-0.347-0.591
			c-0.135-0.173-0.304-0.308-0.504-0.405c-0.199-0.097-0.435-0.146-0.703-0.146c-0.518,0-0.921,0.117-1.207,0.35
			c-0.285,0.231-0.43,0.542-0.43,0.93c0,0.344,0.122,0.607,0.365,0.786c0.242,0.178,0.602,0.344,1.077,0.494l1.183,0.391
			c0.508,0.17,0.924,0.409,1.246,0.711c0.326,0.303,0.488,0.701,0.488,1.199c0,0.29-0.058,0.577-0.171,0.856
			c-0.114,0.282-0.28,0.526-0.501,0.739c-0.22,0.207-0.491,0.377-0.811,0.51c-0.317,0.129-0.681,0.193-1.091,0.193
			c-0.239,0-0.457-0.024-0.657-0.074c-0.199-0.049-0.384-0.1-0.55-0.152c-0.167-0.055-0.322-0.105-0.461-0.152
			c-0.14-0.051-0.271-0.074-0.388-0.074c-0.121,0-0.206,0.023-0.259,0.074c-0.055,0.047-0.097,0.1-0.131,0.152h-0.177v-2.268H32.635
			z"/>
		<path fill="#404040" d="M43.892,21.639h1.247v-5.652h-0.033c-0.033,0.107-0.092,0.252-0.177,0.431
			c-0.087,0.179-0.212,0.351-0.374,0.517c-0.161,0.17-0.37,0.314-0.623,0.439c-0.253,0.123-0.564,0.188-0.931,0.188
			c-0.475,0-0.926-0.104-1.352-0.311c-0.428-0.204-0.802-0.48-1.126-0.825c-0.323-0.345-0.581-0.743-0.768-1.19
			c-0.189-0.447-0.284-0.92-0.284-1.416c0-0.485,0.091-0.95,0.275-1.394c0.183-0.443,0.431-0.828,0.746-1.158
			c0.311-0.33,0.674-0.594,1.084-0.793c0.411-0.2,0.848-0.301,1.313-0.301c0.594,0,1.076,0.146,1.448,0.438
			c0.374,0.291,0.641,0.669,0.803,1.133h0.032v-1.36h2.607v0.227H46.53v11.03h1.247v0.228h-3.886L43.892,21.639L43.892,21.639z
			 M41.09,13.623c0,0.561,0.016,1.07,0.048,1.529c0.032,0.459,0.113,0.85,0.243,1.174c0.129,0.324,0.323,0.572,0.583,0.746
			c0.259,0.172,0.608,0.259,1.052,0.259c0.453,0,0.818-0.099,1.092-0.292c0.276-0.193,0.49-0.445,0.641-0.752
			c0.15-0.309,0.253-0.651,0.308-1.028c0.054-0.379,0.082-0.747,0.082-1.103c0-0.422-0.009-0.784-0.025-1.094
			c-0.017-0.308-0.047-0.58-0.088-0.817c-0.043-0.238-0.103-0.443-0.177-0.615c-0.077-0.173-0.17-0.335-0.277-0.486
			c-0.163-0.216-0.373-0.394-0.632-0.535c-0.259-0.14-0.588-0.211-0.988-0.211c-0.378,0-0.688,0.076-0.93,0.227
			c-0.243,0.151-0.432,0.367-0.568,0.647c-0.134,0.281-0.229,0.619-0.283,1.012C41.116,12.68,41.09,13.125,41.09,13.623z"/>
		<path fill="#404040" d="M57.445,17.331h-2.607v-1.636h-0.031c-0.098,0.217-0.214,0.434-0.349,0.654
			c-0.136,0.221-0.302,0.424-0.502,0.601c-0.201,0.178-0.433,0.323-0.696,0.437c-0.267,0.113-0.574,0.172-0.931,0.172
			c-0.433,0-0.783-0.049-1.054-0.146c-0.271-0.099-0.479-0.2-0.633-0.31c-0.074-0.053-0.158-0.121-0.248-0.201
			c-0.094-0.082-0.178-0.191-0.252-0.332c-0.076-0.141-0.141-0.321-0.196-0.543c-0.053-0.221-0.08-0.493-0.08-0.816V10.61h-1.249
			v-0.227h2.642v4.975c0,0.278,0.018,0.537,0.057,0.774c0.037,0.238,0.109,0.445,0.218,0.624c0.108,0.178,0.249,0.318,0.423,0.422
			c0.173,0.104,0.398,0.153,0.68,0.153c0.237,0,0.483-0.069,0.737-0.212c0.254-0.139,0.483-0.34,0.696-0.6
			c0.211-0.258,0.386-0.567,0.527-0.931c0.139-0.36,0.209-0.771,0.209-1.224v-3.757h-1.229v-0.227H56.2v6.721h1.245V17.331z"/>
		<path fill="#404040" d="M65.578,17.15c-0.143,0.109-0.309,0.203-0.504,0.285c-0.193,0.082-0.432,0.123-0.713,0.123
			c-0.52,0-0.894-0.113-1.125-0.334c-0.232-0.221-0.391-0.531-0.479-0.931h-0.032c-0.041,0.097-0.104,0.22-0.177,0.363
			c-0.075,0.146-0.192,0.286-0.349,0.421c-0.157,0.136-0.364,0.25-0.624,0.341c-0.259,0.092-0.591,0.14-0.987,0.14
			c-0.453,0-0.814-0.053-1.086-0.156c-0.27-0.102-0.48-0.229-0.632-0.379c-0.151-0.152-0.252-0.322-0.3-0.51
			c-0.049-0.19-0.072-0.367-0.072-0.527c0-0.379,0.076-0.682,0.229-0.907c0.149-0.228,0.348-0.407,0.59-0.542
			c0.242-0.137,0.513-0.246,0.811-0.332c0.298-0.087,0.598-0.178,0.9-0.275c0.354-0.119,0.646-0.222,0.881-0.307
			c0.232-0.087,0.412-0.193,0.544-0.316c0.129-0.123,0.218-0.281,0.267-0.47s0.072-0.444,0.072-0.771
			c0-0.259-0.018-0.49-0.047-0.695c-0.036-0.206-0.094-0.381-0.182-0.526c-0.086-0.146-0.209-0.257-0.371-0.333
			c-0.162-0.075-0.379-0.114-0.647-0.114c-0.354,0-0.649,0.062-0.883,0.187c-0.231,0.124-0.349,0.327-0.349,0.608
			c0,0.183,0.017,0.364,0.049,0.542c0.033,0.178,0.048,0.311,0.048,0.396c0,0.151-0.054,0.278-0.16,0.381
			c-0.106,0.104-0.267,0.153-0.472,0.153c-0.354,0-0.576-0.065-0.663-0.194s-0.128-0.298-0.128-0.503
			c0-0.237,0.052-0.463,0.16-0.679c0.107-0.216,0.268-0.408,0.477-0.576c0.213-0.167,0.477-0.3,0.796-0.397
			c0.317-0.097,0.683-0.146,1.095-0.146c0.495,0,0.91,0.063,1.244,0.188c0.338,0.123,0.605,0.292,0.811,0.501
			c0.205,0.211,0.352,0.448,0.438,0.713c0.086,0.264,0.128,0.542,0.128,0.834v4.033c0,0.313,0.05,0.522,0.147,0.631
			c0.098,0.107,0.236,0.16,0.42,0.16c0.119,0,0.242-0.021,0.373-0.063c0.129-0.043,0.253-0.107,0.373-0.193L65.578,17.15z
			 M62.744,13.361h-0.036c-0.019,0.142-0.198,0.283-0.532,0.422l-1.214,0.486c-0.347,0.142-0.61,0.338-0.795,0.59
			c-0.185,0.255-0.274,0.57-0.274,0.949c0,0.162,0.016,0.327,0.047,0.502c0.033,0.172,0.094,0.325,0.181,0.463
			c0.087,0.134,0.207,0.242,0.362,0.33c0.158,0.086,0.359,0.129,0.607,0.129c0.358,0,0.645-0.074,0.867-0.228
			c0.221-0.149,0.389-0.339,0.501-0.565c0.114-0.228,0.188-0.472,0.228-0.737c0.039-0.265,0.06-0.504,0.06-0.72L62.744,13.361
			L62.744,13.361z"/>
		<path fill="#404040" d="M66.063,17.104h1.248V10.61h-1.248v-0.227h2.606v1.637h0.035c0.041-0.162,0.11-0.346,0.209-0.552
			c0.097-0.204,0.231-0.402,0.405-0.591c0.173-0.189,0.381-0.348,0.621-0.478c0.244-0.129,0.537-0.195,0.884-0.195
			c0.247,0,0.465,0.041,0.647,0.123c0.184,0.081,0.334,0.184,0.453,0.308c0.119,0.123,0.206,0.266,0.26,0.428
			c0.055,0.163,0.082,0.324,0.082,0.486c0,0.357-0.082,0.594-0.244,0.713s-0.352,0.178-0.564,0.178c-0.475,0-0.714-0.15-0.714-0.454
			c0-0.097,0.012-0.175,0.032-0.235c0.021-0.06,0.045-0.12,0.072-0.178c0.026-0.059,0.051-0.127,0.072-0.202
			c0.021-0.076,0.032-0.184,0.032-0.325c0-0.345-0.188-0.518-0.565-0.518c-0.173,0-0.355,0.064-0.551,0.194
			c-0.195,0.129-0.376,0.318-0.543,0.567c-0.169,0.248-0.311,0.547-0.422,0.898c-0.112,0.351-0.168,0.752-0.168,1.207v3.709h1.408
			v0.228h-4.051v-0.228H66.063z"/>
		<path fill="#404040" d="M74.58,13.314c0,0.106-0.002,0.218-0.006,0.33c-0.006,0.114-0.01,0.258-0.01,0.431
			c0,0.356,0.021,0.729,0.065,1.118c0.041,0.388,0.136,0.738,0.284,1.052c0.145,0.313,0.359,0.571,0.646,0.778
			c0.285,0.203,0.666,0.308,1.142,0.308c0.475,0,0.864-0.07,1.175-0.212c0.309-0.139,0.55-0.309,0.729-0.51
			c0.179-0.199,0.309-0.401,0.396-0.607c0.088-0.204,0.15-0.372,0.193-0.501l0.244,0.048c-0.032,0.118-0.096,0.288-0.188,0.512
			c-0.093,0.219-0.238,0.442-0.438,0.662c-0.201,0.223-0.469,0.416-0.812,0.584c-0.339,0.168-0.778,0.252-1.319,0.252
			c-0.539,0-1.039-0.086-1.498-0.261c-0.459-0.172-0.855-0.421-1.188-0.745c-0.336-0.322-0.595-0.709-0.778-1.158
			c-0.184-0.445-0.275-0.945-0.275-1.496c0-0.477,0.097-0.938,0.285-1.385c0.188-0.449,0.446-0.846,0.775-1.19
			c0.329-0.346,0.715-0.624,1.157-0.835c0.442-0.21,0.918-0.316,1.425-0.316c0.305,0,0.629,0.055,0.975,0.163
			s0.666,0.283,0.963,0.526c0.297,0.243,0.545,0.564,0.744,0.965c0.2,0.398,0.301,0.896,0.301,1.488H74.58L74.58,13.314z
			 M77.917,13.087c0.022-0.149,0.032-0.291,0.032-0.421c0-0.129,0-0.264,0-0.405c0-0.367-0.035-0.669-0.104-0.907
			c-0.07-0.237-0.169-0.426-0.293-0.567c-0.123-0.139-0.277-0.239-0.453-0.299c-0.179-0.059-0.371-0.089-0.576-0.089
			c-0.366,0-0.668,0.074-0.905,0.219c-0.237,0.146-0.429,0.343-0.567,0.592c-0.141,0.248-0.244,0.534-0.316,0.856
			c-0.069,0.326-0.115,0.664-0.137,1.021L77.917,13.087L77.917,13.087z"/>
	</g>
	<path fill="#F15D34" d="M98.52,17.537H81.268V0.285H98.52V17.537z M95.104,3.822H84.682v10.42h10.422V3.822z"/>
</g>
</svg>
