<?xml version="1.0" standalone="no"?>
<!DOCTYPE svg PUBLIC "-//W3C//DTD SVG 1.1//EN" "http://www.w3.org/Graphics/SVG/1.1/DTD/svg11.dtd" >
<svg xmlns="http://www.w3.org/2000/svg">
<metadata></metadata>
<defs>
<font id="a_avanteintbook" horiz-adv-x="1718" >
<font-face units-per-em="2048" ascent="1638" descent="-410" />
<missing-glyph horiz-adv-x="552" />
<glyph horiz-adv-x="2048" />
<glyph horiz-adv-x="2048" />
<glyph unicode="&#xd;" horiz-adv-x="552" />
<glyph unicode=" "  horiz-adv-x="552" />
<glyph unicode="&#x09;" horiz-adv-x="552" />
<glyph unicode="&#xa0;" horiz-adv-x="552" />
<glyph unicode="!" horiz-adv-x="593" d="M213 0v242h168v-242h-168zM213 381v1094h168v-1094h-168z" />
<glyph unicode="&#x22;" horiz-adv-x="593" d="M96 907v557h117v-557h-117zM381 907v557h119v-557h-119z" />
<glyph unicode="#" horiz-adv-x="1587" d="M119 469l39 125h321l82 276h-348l39 123h346l139 475h144l-138 -475h267l139 475h143l-137 -473h313l-38 -125h-314l-80 -274h336l-37 -125h-336l-137 -471h-145l139 471h-270l-137 -471h-144l135 469h-321zM625 594h268l78 276h-269z" />
<glyph unicode="$" horiz-adv-x="1171" d="M145 430h156q0 -274 270 -274q121 0 193 67.5t72 188.5q0 123 -78 186q-51 43 -189 84q-190 57 -270 121q-115 92 -115 260q0 158 82 261t236 128v203h155v-203q295 -41 314 -365h-162q0 98 -63.5 159t-161.5 61q-109 0 -172.5 -62.5t-63.5 -171.5q0 -129 170 -196 q158 -61 316 -123q170 -103 170 -318q0 -166 -89 -284q-96 -127 -256 -144v-244h-155v238q-166 20 -262.5 139t-96.5 289z" />
<glyph unicode="%" horiz-adv-x="1808" d="M88 1135q0 152 104.5 256t253.5 104q150 0 256.5 -106.5t106.5 -253.5t-106.5 -254t-253.5 -107q-150 0 -255.5 105.5t-105.5 255.5zM227 1135q0 -90 63.5 -156t153.5 -66t155 66t65 156q0 92 -63.5 156.5t-156.5 64.5q-90 0 -153.5 -65.5t-63.5 -155.5zM430 -29 l813 1524h133l-811 -1524h-135zM999 330q0 150 105.5 255t255.5 105q152 0 256 -103t104 -255q0 -150 -103.5 -255.5t-254.5 -105.5q-147 0 -255 105.5t-108 253.5zM1141 332q0 -90 63.5 -156.5t153.5 -66.5t154.5 65.5t64.5 155.5q0 92 -63.5 156.5t-155.5 64.5 t-154.5 -63.5t-62.5 -155.5z" />
<glyph unicode="&#x26;" horiz-adv-x="1433" d="M131 408q0 266 287 419q-176 147 -176 316q0 147 103.5 246.5t252.5 99.5q139 0 238.5 -101.5t99.5 -240.5q0 -211 -264 -342l272 -254l156 416l170 -25l-199 -506l338 -305l-104 -123l-301 273q-154 -309 -443 -310q-176 0 -303 130t-127 307zM305 412q0 -113 72 -194 t184 -81q185 0 318 256l-355 330q-219 -109 -219 -311zM410 1147q0 -121 155 -244q201 90 201 246q0 76 -49 131t-125 55q-84 0 -133 -52t-49 -136z" />
<glyph unicode="'" horiz-adv-x="303" d="M94 907v557h119v-557h-119z" />
<glyph unicode="(" horiz-adv-x="559" d="M127 182v703q0 455 350 618v-203q-109 -61 -149 -192q-29 -92 -29 -250v-641q0 -168 27 -256q39 -131 151 -203v-200q-350 164 -350 624z" />
<glyph unicode=")" horiz-adv-x="559" d="M82 -242q115 74 154 205q27 88 26 260v633q0 168 -26 252q-39 129 -154 192v203q352 -168 352 -616v-703q0 -227 -76 -372q-84 -162 -276 -254v200z" />
<glyph unicode="*" horiz-adv-x="1028" d="M117 1120l45 137l284 -98v305h132v-305l284 98l49 -135l-299 -84l203 -250l-117 -83l-184 262l-182 -262l-119 81l199 252z" />
<glyph unicode="+" d="M254 561v119h543v555h125v-555h540v-119h-540v-555h-125v555h-543z" />
<glyph unicode="," horiz-adv-x="581" d="M106 -164l154 432h146l-154 -432h-146z" />
<glyph unicode="-" horiz-adv-x="671" d="M92 477v156h486v-156h-486z" />
<glyph unicode="." horiz-adv-x="579" d="M215 0v268h147v-268h-147z" />
<glyph unicode="/" horiz-adv-x="575" d="M-53 -193l495 1682h131l-493 -1682h-133z" />
<glyph unicode="0" horiz-adv-x="1171" d="M90 514v436q0 242 127 389q133 156 371 156q242 0 370 -149q123 -141 123 -388v-450q0 -246 -123 -387q-129 -150 -370 -150q-240 0 -373 154q-125 145 -125 389zM266 469q0 -156 83 -247t237 -91q319 0 319 350v500q0 352 -317 352q-322 0 -322 -352v-512z" />
<glyph unicode="1" horiz-adv-x="1171" d="M240 0v160h278v1159h-215v147h389v-1306h262v-160h-714z" />
<glyph unicode="2" horiz-adv-x="1175" d="M129 0v166l520 500q113 109 154 161q76 104 76 205q0 305 -293 305q-150 0 -224 -106q-63 -92 -63 -248h-170v10q0 223 128 365.5t347 142.5q211 0 330 -125t119 -338t-222 -420l-483 -452h705v-166h-924z" />
<glyph unicode="3" horiz-adv-x="1173" d="M109 461h176q0 -332 286 -332q137 0 225.5 86t88.5 223q0 381 -332 381q-49 0 -135 -26l-68 102l406 418h-566v162h787v-152l-359 -358q445 -29 445 -512q0 -201 -141.5 -341.5t-341.5 -140.5q-215 0 -343 136.5t-128 353.5z" />
<glyph unicode="4" horiz-adv-x="1171" d="M100 270v154l658 1042h178v-1042h166v-154h-164v-270h-170v270h-668zM272 424h494v797z" />
<glyph unicode="5" horiz-adv-x="1173" d="M84 444h170q8 -133 100 -221t226 -88q156 0 247 107q88 100 88 258q0 162 -87 253t-246 91q-195 0 -285 -146l-145 39l133 738h686v-164h-551l-74 -383h2q113 80 256 80q219 0 353.5 -144.5t134.5 -365.5q0 -223 -148.5 -375t-372.5 -152q-205 0 -346 134.5t-141 338.5z " />
<glyph unicode="6" horiz-adv-x="1173" d="M84 461q0 182 213 508l326 497h202l-342 -520q68 25 146 25q201 0 329.5 -142.5t128.5 -345.5q0 -213 -145 -362.5t-358 -149.5q-201 0 -350.5 144.5t-149.5 345.5zM254 483q0 -139 97.5 -244.5t236.5 -105.5q143 0 233 103q88 96 88 241h2q0 145 -88 243.5t-233 98.5 q-139 0 -237.5 -98t-98.5 -238z" />
<glyph unicode="7" horiz-adv-x="1173" d="M176 1307v168h842v-168l-561 -1307h-185l572 1307h-668z" />
<glyph unicode="8" horiz-adv-x="1173" d="M123 430q0 274 223 385q0 6 -4 10q-43 37 -61 56q-31 31 -52 65q-41 72 -41 160q0 162 116 275.5t278 113.5q166 0 283.5 -108.5t117.5 -274.5q0 -182 -162 -291q0 -2 4 -8q222 -103 222 -375q0 -207 -131.5 -338t-337.5 -131q-190 0 -322.5 135.5t-132.5 325.5zM293 432 q0 -121 82 -211t203 -90q131 0 215 85t84 216q0 135 -76 217t-209 82h-29q-127 0 -198.5 -85t-71.5 -214zM360 1118q0 -98 58.5 -161.5t156.5 -63.5q106 0 171 58.5t65 164.5l2 -2q0 98 -62.5 160.5t-160.5 62.5q-96 0 -163 -61.5t-67 -157.5z" />
<glyph unicode="9" horiz-adv-x="1173" d="M84 981q0 215 143.5 364.5t358.5 149.5q221 0 359 -141.5t138 -362.5q0 -53 -8 -100q-20 -121 -198 -391l-328 -500h-201l342 516q-16 -2 -74 -16q-45 -10 -73 -11q-197 0 -330 150q-129 143 -129 342zM258 989q0 -145 89 -243.5t235 -98.5q137 0 232 97.5t95 236.5h2 q0 143 -93 246.5t-234 103.5q-147 0 -236.5 -96t-89.5 -246z" />
<glyph unicode=":" horiz-adv-x="587" d="M221 0v268h148v-268h-148zM221 782v269h148v-269h-148z" />
<glyph unicode=";" horiz-adv-x="589" d="M104 -162l150 430h154l-156 -430h-148zM223 780v271h146v-271h-146z" />
<glyph unicode="&#x3c;" horiz-adv-x="1720" d="M266 563v103l1186 489v-131l-1010 -410l1010 -407v-129z" />
<glyph unicode="=" d="M256 360v117h1206v-117h-1206zM256 750v118h1206v-118h-1206z" />
<glyph unicode="&#x3e;" horiz-adv-x="1720" d="M266 78v127l1012 409l-1012 410v131l1186 -487v-105z" />
<glyph unicode="?" horiz-adv-x="976" d="M35 1032q0 193 122 328t312 135t308 -113t118 -301q0 -152 -90 -266q-84 -88 -166 -178q-90 -109 -90 -246h-170q0 195 145 367q66 72 129 141q61 80 62 182q0 117 -67.5 180.5t-186.5 63.5q-256 0 -256 -293h-170zM379 0v250h166v-250h-166z" />
<glyph unicode="@" horiz-adv-x="2064" d="M113 532q0 408 305 678q291 260 704 260q330 0 566 -174q264 -193 264 -510q0 -260 -148 -454q-160 -211 -413 -211q-158 0 -197 162q-113 -160 -301 -160q-315 0 -315 332q0 217 124 379q137 174 349 174q182 0 249 -164l50 133h123l-144 -580q-12 -49 -12 -75 q0 -96 104 -97q180 0 299 193q104 168 105 360q0 279 -219 443q-199 147 -488 147q-367 0 -622.5 -241.5t-255.5 -606.5q0 -332 233 -528q221 -186 559 -187q352 0 633 193l47 -66q-299 -221 -663 -221q-393 0 -656 211q-281 225 -280 610zM715 449q0 -102 49 -164 q53 -68 154 -68q109 0 190 78q74 70 102 180l62 244q-33 197 -209 196q-166 0 -264 -155q-84 -133 -84 -311z" />
<glyph unicode="A" horiz-adv-x="1232" d="M-45 0l575 1475h162l576 -1475h-189l-174 457h-588l-176 -457h-186zM377 621h467l-230 608l-6 -4z" />
<glyph unicode="B" horiz-adv-x="1071" d="M137 0v1475h295q485 0 486 -394q0 -209 -185 -288q268 -83 268 -353q0 -440 -530 -440h-334zM307 160h176q340 0 340 258q0 156 -88 221q-76 55 -237 55h-191v-534zM307 840h144q290 0 290 243q0 231 -309 232h-125v-475z" />
<glyph unicode="C" horiz-adv-x="1538" d="M66 745q0 307 221 532.5t528 225.5q461 0 658 -407h-209q-170 233 -451 233q-233 0 -400 -175t-167 -409q0 -242 160 -419q168 -184 405 -185q287 0 446 224h216q-96 -190 -267.5 -292t-388.5 -102q-322 0 -536.5 226.5t-214.5 547.5z" />
<glyph unicode="D" horiz-adv-x="1402" d="M135 0v1475h449q342 0 547.5 -198t205.5 -540q0 -354 -215 -549q-207 -188 -565 -188h-422zM307 160h268q276 0 430 150.5t154 426.5t-166 428q-158 147 -438 148h-248v-1153z" />
<glyph unicode="E" horiz-adv-x="1015" d="M135 0v1475h764v-158h-590v-488h553v-157h-553v-510h590v-162h-764z" />
<glyph unicode="F" horiz-adv-x="952" d="M135 0v1475h725v-158h-553v-492h508v-155h-506v-670h-174z" />
<glyph unicode="G" horiz-adv-x="1630" d="M66 743q0 319 222 539.5t541 220.5q457 0 654 -397h-219q-154 225 -447 225q-236 0 -403.5 -174t-167.5 -412q0 -256 159.5 -430t411.5 -174q205 0 347.5 110.5t197.5 309.5h-653v162h860q-25 -334 -221 -539q-205 -213 -535 -213q-328 0 -537.5 221.5t-209.5 550.5z" />
<glyph unicode="H" horiz-adv-x="1282" d="M135 0v1475h174v-641h664v641h174v-1475h-174v670h-664v-670h-174z" />
<glyph unicode="I" horiz-adv-x="452" d="M139 0v1475h174v-1475h-174z" />
<glyph unicode="J" horiz-adv-x="854" d="M0 352h168q0 -86 45 -151q49 -72 133 -72q193 0 193 223v1123h174v-1135q0 -170 -99.5 -270.5t-269.5 -100.5q-160 0 -254 115q-90 106 -90 268z" />
<glyph unicode="K" horiz-adv-x="1144" d="M137 0v1475h172v-727l619 727h219l-633 -721l641 -754h-221l-623 745v-745h-174z" />
<glyph unicode="L" horiz-adv-x="864" d="M137 0v1475h174v-1311h506v-164h-680z" />
<glyph unicode="M" horiz-adv-x="1734" d="M135 0v1475h264l469 -1219l467 1219h264v-1475h-169v1157q0 14 6 55q4 27 4 82h-6l-500 -1294h-133l-500 1294h-6q0 -23 5 -66.5t5 -66.5v-1161h-170z" />
<glyph unicode="N" horiz-adv-x="1398" d="M135 0v1475h195l770 -1211q0 25 -3 76t-3 76v1059h170v-1475h-189l-776 1227q0 -18 3 -59.5t3 -61.5v-1106h-170z" />
<glyph unicode="O" horiz-adv-x="1642" d="M63 745q0 309 224.5 533.5t533.5 224.5q313 0 535.5 -221t222.5 -534q0 -324 -219 -551.5t-541 -227.5q-319 0 -537.5 228.5t-218.5 547.5zM246 745q0 -248 164 -423q168 -182 413 -183q250 0 414 183q160 176 160 428q0 238 -170 411.5t-408 173.5q-233 0 -403 -178 t-170 -412z" />
<glyph unicode="P" horiz-adv-x="1069" d="M137 0v1475h379q502 0 502 -426q0 -217 -148 -332q-133 -104 -356 -105h-203v-612h-174zM311 770h187q338 0 338 268h2q0 279 -332 279h-195v-547z" />
<glyph unicode="Q" horiz-adv-x="1640" d="M63 745q0 309 222.5 533.5t531.5 224.5q317 0 537.5 -223t220.5 -541q0 -346 -254 -563q78 -20 274 -20v-176q-393 35 -469 67q-10 -8 -43 -20q-135 -55 -266 -56q-319 0 -536.5 227.5t-217.5 546.5zM244 745q0 -246 168 -426t411 -180q250 0 414 183q158 176 158 428h2 q0 238 -170 411.5t-408 173.5q-233 0 -404 -178t-171 -412z" />
<glyph unicode="R" horiz-adv-x="1114" d="M137 0v1475h387q520 0 520 -449q0 -190 -128 -304t-322 -114l457 -608h-215l-525 719v-719h-174zM311 731h172q180 0 273 55q116 69 116 235q0 169 -108 239q-88 55 -262 55h-191v-584z" />
<glyph unicode="S" horiz-adv-x="983" d="M57 422h168q0 -117 66 -201q70 -90 184 -90q123 0 197 86q70 80 69 205q0 154 -166 244q-154 72 -309 143q-166 102 -166 287q0 188 105.5 298.5t294.5 110.5q174 0 274 -110q94 -102 105 -281h-164q-6 100 -63.5 164.5t-153.5 64.5q-100 0 -164 -65.5t-64 -165.5 q0 -47 27 -88q55 -84 227 -160q207 -90 267 -139q127 -105 127 -291q0 -199 -119 -330q-125 -135 -322 -135q-186 0 -305 135q-115 129 -115 318z" />
<glyph unicode="T" horiz-adv-x="808" d="M20 1313v162h768v-160h-296v-1315h-177v1313h-295z" />
<glyph unicode="U" horiz-adv-x="1196" d="M127 477v998h174v-990q0 -354 299 -354q293 0 293 352v992h174v-996q0 -238 -111 -368q-119 -141 -352 -142q-238 0 -360 137q-117 129 -117 371z" />
<glyph unicode="V" horiz-adv-x="1200" d="M-25 1475h185l442 -1235l438 1235h185l-547 -1475h-156z" />
<glyph unicode="W" horiz-adv-x="1800" d="M0 1475h178l338 -1199h2l322 1199h121l321 -1199h2l338 1199h178l-442 -1475h-156l2 8l-303 1151h-2l-301 -1159h-156l2 6z" />
<glyph unicode="X" horiz-adv-x="1198" d="M-4 0l502 743l-490 732h211l381 -596l377 596h213l-492 -730l502 -745h-211l-389 606l-395 -606h-209z" />
<glyph unicode="Y" horiz-adv-x="1050" d="M-25 1475h199l350 -713l353 713h198l-463 -889v-586h-174v586z" />
<glyph unicode="Z" horiz-adv-x="966" d="M39 0v172l672 1133h-637v170h837v-160l-682 -1145h697v-170h-887z" />
<glyph unicode="[" horiz-adv-x="559" d="M131 -420v1897h361v-140h-197v-1618h197v-139h-361z" />
<glyph unicode="\" horiz-adv-x="575" d="M0 1489h131l498 -1682h-133z" />
<glyph unicode="]" horiz-adv-x="559" d="M70 -281h194v1618h-194v140h360v-1897h-360v139z" />
<glyph unicode="^" horiz-adv-x="1024" d="M92 1004l354 471h129l355 -469h-131l-287 352l-287 -354h-133z" />
<glyph unicode="_" horiz-adv-x="1024" d="M-8 -365h1040v-120h-1040v120z" />
<glyph unicode="`" horiz-adv-x="1005" d="M262 1565h168l209 -340h-107z" />
<glyph unicode="a" horiz-adv-x="1249" d="M55 526q0 231 156 391t387 160q240 0 383 -190v164h158v-1051h-154v156q-152 -180 -385 -181q-233 0 -389 159t-156 392zM221 524q0 -164 110.5 -282.5t274.5 -118.5q156 0 267.5 122t111.5 279q0 160 -109.5 282t-269.5 122q-162 0 -273.5 -120t-111.5 -284z" />
<glyph unicode="b" horiz-adv-x="1249" d="M109 0v1577h155v-690q158 188 395 188q229 0 380 -159t151 -388q0 -238 -155.5 -395.5t-393.5 -157.5q-219 0 -379 183v-158h-153zM262 518q0 -152 112.5 -273.5t262.5 -121.5q166 0 277.5 118.5t111.5 286.5h2q0 166 -111.5 282t-275.5 116q-160 0 -269.5 -123 t-109.5 -285z" />
<glyph unicode="c" horiz-adv-x="1134" d="M53 524q0 231 154.5 392t384.5 161q178 0 306 -93t187 -263h-167q-90 205 -334 205q-168 0 -267.5 -114t-99.5 -286q0 -168 100 -282q104 -121 271 -121q115 0 204 58.5t130 162.5h168q-57 -172 -189.5 -271.5t-312.5 -99.5q-229 0 -382 161t-153 390z" />
<glyph unicode="d" horiz-adv-x="1249" d="M55 526q0 229 153.5 389t383.5 160q240 0 387 -178v680h158v-1577h-154v152q-150 -176 -383 -177q-233 0 -389 159t-156 392zM219 530q0 -166 111.5 -286.5t275.5 -120.5q158 0 269.5 118.5t111.5 276.5q0 168 -108.5 288t-274.5 120q-162 0 -273.5 -117t-111.5 -279z " />
<glyph unicode="e" horiz-adv-x="1196" d="M57 528q0 233 157 392t390 159q262 0 404 -176q129 -162 129 -430h-914q12 -170 113.5 -259t271.5 -89q242 0 338 178h178q-178 -330 -514 -330q-244 0 -398.5 155t-154.5 400zM227 612h750q-31 166 -121 240t-258 74q-145 0 -243.5 -85.5t-127.5 -228.5z" />
<glyph unicode="f" horiz-adv-x="436" d="M0 903v148h133v223q0 164 74 239.5t199 75.5q27 0 75 -12v-152q-43 12 -65 13q-82 0 -111 -64q-18 -43 -18 -139v-184h162v-148h-162v-903h-154v903h-133z" />
<glyph unicode="g" horiz-adv-x="1249" d="M55 543q0 225 157 379.5t384 154.5q223 0 385 -178v152h158v-922q0 -610 -533 -610q-186 0 -315 84q-139 92 -176 266h182q27 -100 115 -154q80 -47 188 -47q225 0 313 150q68 115 68 358q-152 -186 -381 -186q-238 0 -391.5 156.5t-153.5 396.5zM221 545 q0 -180 104.5 -294t282.5 -114q164 0 275 127q106 121 106 287q0 152 -115.5 264.5t-267.5 112.5q-162 0 -273.5 -110.5t-111.5 -272.5z" />
<glyph unicode="h" horiz-adv-x="1095" d="M111 0v1577h155v-684q117 178 332 178q193 0 295 -121q96 -113 96 -309v-641h-155v610q0 311 -256 312q-131 0 -220.5 -97.5t-89.5 -330.5v-494h-157z" />
<glyph unicode="i" horiz-adv-x="382" d="M113 0v1051h155v-1051h-155zM113 1217v184h155v-184h-155z" />
<glyph unicode="j" horiz-adv-x="387" d="M-76 -336q106 0 149.5 37t43.5 139v1211h155v-1217q0 -170 -87 -242.5t-261 -72.5v145zM117 1217v184h155v-184h-155z" />
<glyph unicode="k" horiz-adv-x="911" d="M111 0v1577h153v-1014l416 488h192l-436 -492l486 -559h-197l-459 549v-549h-155z" />
<glyph unicode="l" horiz-adv-x="380" d="M111 0v1577h155v-1577h-155z" />
<glyph unicode="m" horiz-adv-x="1708" d="M113 0v1051h143v-152q119 172 305 172q123 0 196.5 -43t125.5 -149q110 192 342 192h2q184 0 278 -111.5t94 -297.5v-662h-153v645q0 121 -57 197q-63 86 -181 86q-127 0 -204 -109q-68 -98 -68 -231v-588h-154v592q0 158 -43 233q-55 102 -200 103q-127 0 -205 -117 q-68 -100 -68 -236v-575h-153z" />
<glyph unicode="n" horiz-adv-x="1107" d="M111 0v1051h149v-158q127 178 336 178q197 0 301 -115.5t104 -314.5v-641h-155v618q0 305 -264 306q-162 0 -246 -140q-68 -115 -68 -288v-496h-157z" />
<glyph unicode="o" horiz-adv-x="1193" d="M53 524q0 225 157 391t382 166q227 0 388 -160.5t161 -388.5q0 -229 -157 -394t-386 -165q-227 0 -386 162t-159 389zM215 526q0 -170 106.5 -284.5t274.5 -114.5q172 0 278.5 112.5t106.5 284.5q0 174 -105.5 288t-279.5 114q-172 0 -276.5 -113t-104.5 -287z" />
<glyph unicode="p" horiz-adv-x="1249" d="M109 -457v1510h155v-166q162 188 389 188q231 0 385 -160t154 -391t-156.5 -391t-388.5 -160q-225 0 -383 183v-613h-155zM258 524q0 -154 113.5 -277.5t267.5 -123.5q164 0 276.5 118.5t112.5 284.5q0 168 -109.5 285t-277.5 117q-158 0 -270.5 -122t-112.5 -282z" />
<glyph unicode="q" horiz-adv-x="1249" d="M55 524q0 231 156 391t385 160q223 0 385 -188v166h160v-1510h-158v613q-158 -182 -381 -183q-229 0 -388 161t-159 390zM221 526q0 -160 114 -281.5t271 -121.5q158 0 270.5 122t112.5 279q0 160 -111.5 282t-269.5 122q-162 0 -274.5 -119t-112.5 -283z" />
<glyph unicode="r" horiz-adv-x="595" d="M117 0v1051h151v-111q96 123 240 123q43 0 63 -12v-146q-37 10 -79 10q-217 0 -218 -286v-629h-157z" />
<glyph unicode="s" horiz-adv-x="776" d="M49 332h156q0 -84 49 -147.5t131 -63.5q80 0 132 41t52 119q0 111 -123 170q-113 49 -227 100q-123 76 -123 229q0 125 89 214t216 89q135 0 211 -79.5t76 -217.5h-160q0 145 -135 146q-61 0 -102 -41t-41 -103q0 -59 44 -94t161.5 -89t167.5 -93q80 -63 96 -152 q4 -29 4 -67q0 -143 -98.5 -231.5t-241.5 -88.5q-154 0 -244 101.5t-90 257.5z" />
<glyph unicode="t" horiz-adv-x="483" d="M16 903v146h150v292h153v-290h166v-148h-166v-903h-153v903h-150z" />
<glyph unicode="u" horiz-adv-x="1097" d="M102 438v613h156v-580q0 -346 256 -346q311 0 311 416v510h158v-1051h-149v147q-133 -172 -332 -172q-399 0 -400 463z" />
<glyph unicode="v" horiz-adv-x="950" d="M0 1051h168l307 -820l307 820h168l-411 -1051h-127z" />
<glyph unicode="w" horiz-adv-x="1386" d="M6 1051h170l236 -762l229 762h107l225 -762l237 762h170l-358 -1051h-96l-234 774l-229 -774h-96z" />
<glyph unicode="x" horiz-adv-x="886" d="M-2 0l352 545l-319 506h178l235 -383l240 383h182l-329 -502l344 -549h-179l-260 422l-266 -422h-178z" />
<glyph unicode="y" horiz-adv-x="991" d="M8 1053h170l334 -824l6 4l316 820h170l-594 -1510h-166l188 477z" />
<glyph unicode="z" horiz-adv-x="792" d="M25 0v135l530 770h-469v146h635v-158l-514 -743h543v-150h-725z" />
<glyph unicode="{" horiz-adv-x="1024" d="M184 473v127q164 0 214.5 60.5t50.5 250.5q0 31 -3 95v94q0 233 70 313q39 45 107.5 65.5t240.5 20.5v-129q-123 0 -159 -10q-68 -20 -91 -94q-12 -43 -12 -140v-245q0 -139 -36 -220t-144 -126q111 -45 145.5 -126t34.5 -266v-86v-84q0 -170 37 -219q31 -41 104 -49 q25 -4 121 -4v-129h-61q-215 0 -289 86q-68 78 -68 297v248q0 158 -54 214t-208 56z" />
<glyph unicode="|" horiz-adv-x="1030" d="M453 -459v1999h125v-1999h-125z" />
<glyph unicode="}" horiz-adv-x="1024" d="M160 -299q127 0 166 12q66 20 86 94q10 39 10 136v245q0 141 35 221t145 126q-109 45 -144.5 126.5t-35.5 264.5v92q2 61 2 88q0 170 -39 215q-33 37 -106 47q-23 2 -119 2v129h61q215 0 289 -86q68 -78 68 -297v-244q0 -154 49 -213t213 -59v-127q-154 0 -208 -56.5 t-54 -213.5v-248q0 -147 -25 -219q-39 -109 -152 -144q-68 -20 -241 -20v129z" />
<glyph unicode="~" horiz-adv-x="1443" d="M119 459v143q195 166 342 166q98 0 264 -80t254 -80q139 0 346 178v-147q-186 -160 -346 -160q-92 0 -258 79t-258 79q-135 0 -344 -178z" />
<glyph unicode="&#xa4;" horiz-adv-x="1206" d="M76 418l205 203q-88 115 -88 251q0 135 88 254l-205 203l69 70l203 -203q123 88 254 88q143 0 256 -88l203 203l72 -68l-205 -205q86 -115 86 -254q0 -141 -86 -251l205 -203l-72 -72l-201 205q-117 -90 -254 -90q-139 0 -256 90l-203 -205zM291 877q0 -131 92 -223.5 t223 -92.5q127 0 218 94.5t91 221.5l3 -3q0 129 -91.5 220.5t-220.5 91.5q-127 0 -221 -91t-94 -218z" />
<glyph unicode="&#xa6;" horiz-adv-x="1030" d="M453 -362v782h127v-782h-127zM453 682v782h127v-782h-127z" />
<glyph unicode="&#xa7;" horiz-adv-x="1028" d="M94 731q0 180 193 295q-102 78 -103 205q0 135 97 221q92 80 229 80q160 0 246 -86t86 -246h-148q0 201 -188 201q-72 0 -118 -42t-46 -114q0 -80 61 -129q51 -41 312 -186q109 -59 155 -121q62 -77 62 -186q0 -188 -193 -283q102 -90 103 -223q0 -141 -103 -226 q-94 -78 -237 -77q-154 0 -248 80.5t-94 232.5v29h162v-56q0 -74 59 -114q51 -37 129 -37q182 0 182 160q0 74 -88 147q-18 14 -149 98q-150 94 -197 131q-131 98 -152 164q-12 39 -12 82zM250 776q0 -68 53 -123q31 -33 111 -82l235 -145q121 74 121 176q0 76 -53 129 q-31 33 -117 84l-221 131q-129 -61 -129 -170z" />
<glyph unicode="&#xa9;" d="M119 729q0 299 220 520t517 221q309 0 526 -215t217 -524q0 -301 -220 -521t-521 -220q-303 0 -521 218t-218 521zM203 731q0 -266 194.5 -460.5t460.5 -194.5q256 0 455.5 198.5t199.5 454.5q0 274 -190 464.5t-465 190.5q-266 0 -460.5 -193.5t-194.5 -459.5zM469 733 q0 195 98 318q109 133 297 133q133 0 223 -66q100 -72 115 -198h-129q-33 166 -215 165q-133 0 -196 -118q-49 -92 -50 -238q0 -139 54 -233q68 -115 196 -115q88 0 147.5 49t73.5 135h127q-12 -135 -113.5 -212t-240.5 -77q-190 0 -295 138q-92 123 -92 319z" />
<glyph unicode="&#xab;" horiz-adv-x="987" d="M123 553l248 317h139l-248 -317l246 -317h-137zM453 553l247 317h142l-246 -317l246 -317h-140z" />
<glyph unicode="&#xac;" d="M256 745v119h1206v-504h-114v385h-1092z" />
<glyph unicode="&#xad;" horiz-adv-x="671" d="M92 477v156h486v-156h-486z" />
<glyph unicode="&#xae;" d="M119 729q0 297 221 519t516 222q309 0 526 -215t217 -524q0 -287 -227 -514t-514 -227q-301 0 -520 219t-219 520zM203 731q0 -264 193.5 -459.5t457.5 -195.5q270 0 464.5 189.5t194.5 459.5q0 279 -188 469t-467 190q-268 0 -461.5 -192.5t-193.5 -460.5zM565 322v843 h314q350 0 350 -231q0 -92 -64.5 -162t-156.5 -84l213 -366h-158l-217 366h-139v-366h-142zM707 778h157q221 1 221 142q0 154 -223 153h-155v-295z" />
<glyph unicode="&#xb0;" horiz-adv-x="675" d="M53 1178q0 117 85 200.5t202 83.5t200 -83t83 -199q0 -117 -84 -202t-201 -85t-201 84t-84 201zM133 1180q0 -84 60.5 -145.5t144.5 -61.5q88 0 146.5 58.5t58.5 146.5q0 86 -58.5 146t-144.5 60t-146.5 -59t-60.5 -145z" />
<glyph unicode="&#xb1;" d="M256 39v119h1206v-119h-1206zM256 723v117h545v348h117v-346h544v-117h-544v-348h-117v346h-545z" />
<glyph unicode="&#xb6;" horiz-adv-x="1028" d="M76 1139q0 166 117 262q106 88 276 88h485v-76h-125v-1413h-92v1413h-188v-1413h-94v788q-164 8 -267 97q-113 94 -112 254z" />
<glyph unicode="&#xb7;" horiz-adv-x="579" d="M199 643v180h180v-180h-180z" />
<glyph unicode="&#xbb;" horiz-adv-x="987" d="M145 236l248 315l-248 319h140l250 -315l-248 -319h-142zM479 236l246 315l-246 319h137l250 -315l-250 -319h-137z" />
<glyph unicode="&#x2000;" horiz-adv-x="827" />
<glyph unicode="&#x2001;" horiz-adv-x="1655" />
<glyph unicode="&#x2002;" horiz-adv-x="827" />
<glyph unicode="&#x2003;" horiz-adv-x="1655" />
<glyph unicode="&#x2004;" horiz-adv-x="551" />
<glyph unicode="&#x2005;" horiz-adv-x="413" />
<glyph unicode="&#x2006;" horiz-adv-x="275" />
<glyph unicode="&#x2007;" horiz-adv-x="275" />
<glyph unicode="&#x2008;" horiz-adv-x="206" />
<glyph unicode="&#x2009;" horiz-adv-x="331" />
<glyph unicode="&#x200a;" horiz-adv-x="91" />
<glyph unicode="&#x2010;" horiz-adv-x="671" d="M92 477v156h486v-156h-486z" />
<glyph unicode="&#x2011;" horiz-adv-x="671" d="M92 477v156h486v-156h-486z" />
<glyph unicode="&#x2012;" horiz-adv-x="671" d="M92 477v156h486v-156h-486z" />
<glyph unicode="&#x2013;" horiz-adv-x="1028" d="M-6 487v127h1040v-127h-1040z" />
<glyph unicode="&#x2014;" horiz-adv-x="2064" d="M-6 487v127h2077v-127h-2077z" />
<glyph unicode="&#x2018;" horiz-adv-x="401" d="M47 1477h143l154 -430h-145z" />
<glyph unicode="&#x2019;" horiz-adv-x="399" d="M92 1047l152 430h145l-153 -430h-144z" />
<glyph unicode="&#x201a;" horiz-adv-x="399" d="M25 -164l151 432h146l-154 -432h-143z" />
<glyph unicode="&#x201c;" horiz-adv-x="696" d="M45 1477h148l153 -430h-145zM338 1477h145l156 -430h-147z" />
<glyph unicode="&#x201d;" horiz-adv-x="694" d="M88 1047l156 430h145l-153 -430h-148zM381 1047l154 430h147l-156 -430h-145z" />
<glyph unicode="&#x201e;" horiz-adv-x="694" d="M25 -164l155 432h146l-154 -432h-147zM317 -164l154 432h147l-155 -432h-146z" />
<glyph unicode="&#x2022;" horiz-adv-x="1216" d="M309 766q0 123 88 210t211 87q125 0 211 -85t86 -210q0 -123 -88 -212t-211 -89q-121 0 -209 89t-88 210z" />
<glyph unicode="&#x2026;" horiz-adv-x="2048" d="M270 0v266h146v-266h-146zM950 0v266h148v-266h-148zM1634 0v266h146v-266h-146z" />
<glyph unicode="&#x202f;" horiz-adv-x="331" />
<glyph unicode="&#x2039;" horiz-adv-x="657" d="M123 553l248 317h139l-246 -317l246 -315l-139 -2z" />
<glyph unicode="&#x203a;" horiz-adv-x="657" d="M147 236l246 315l-246 319h140l248 -315l-248 -319h-140z" />
<glyph unicode="&#x205f;" horiz-adv-x="413" />
<glyph unicode="&#x2122;" d="M203 1403v72h483v-72h-190v-518h-99v518h-194zM827 885v590h144l178 -455l166 455h143v-590h-88v518l-194 -518h-56l-202 516v-516h-91z" />
<glyph unicode="&#x25fc;" horiz-adv-x="1054" d="M0 0v1055h1055v-1055h-1055z" />
</font>
</defs>
</svg>
