<?xml version="1.0" standalone="no"?>
<!DOCTYPE svg PUBLIC "-//W3C//DTD SVG 1.1//EN" "http://www.w3.org/Graphics/SVG/1.1/DTD/svg11.dtd" >
<svg xmlns="http://www.w3.org/2000/svg" xmlns:xlink="http://www.w3.org/1999/xlink" version="1.1">
<metadata></metadata>
<defs>
<font id="arial_mtregular" horiz-adv-x="1193" >
<font-face units-per-em="2048" ascent="1638" descent="-410" />
<missing-glyph horiz-adv-x="565" />
<glyph horiz-adv-x="0" />
<glyph horiz-adv-x="682" />
<glyph unicode=" "  horiz-adv-x="565" />
<glyph unicode="&#x09;" horiz-adv-x="565" />
<glyph unicode="&#xa0;" horiz-adv-x="565" />
<glyph unicode="!" horiz-adv-x="618" d="M176 1133v333h260v-333l-61 -762h-135zM186 0v242h242v-242h-242z" />
<glyph unicode="&#x22;" horiz-adv-x="831" d="M94 1219v247h254v-247l-47 -273h-158zM483 1219v247h254v-247l-47 -273h-158z" />
<glyph unicode="#" horiz-adv-x="1130" d="M18 385v182h191l67 330h-258v182h295l82 412h185l-82 -412h270l82 412h188l-82 -412h156v-182h-192l-70 -330h262v-182h-299l-82 -410h-186l84 410h-273l-82 -410h-186l84 410h-154zM393 567h271l67 330h-270z" />
<glyph unicode="$" horiz-adv-x="1130" d="M72 410l217 28q23 -132 76.5 -190t134.5 -80v498q-63 18 -113.5 38.5t-106 55.5t-92.5 78.5t-61.5 109t-24.5 144.5q0 166 108 277.5t290 131.5v92h125v-92q29 -4 46.5 -7t57.5 -14.5t68 -26t66 -42t63.5 -62t48.5 -87.5t33 -117l-217 -29q-9 57 -30.5 98t-50.5 61.5 t-45.5 28t-39.5 13.5v-459q38 -10 59 -16t61 -19.5t64.5 -25.5t60 -32.5t57.5 -42t47.5 -52.5t39.5 -66t23.5 -80.5t9.5 -97.5q0 -178 -114.5 -307t-307.5 -144v-184h-125v180q-29 4 -51.5 8t-66 17.5t-77.5 31.5t-75.5 52t-71.5 77t-54 108.5t-32 144.5zM317 1106 q0 -147 183 -211v424q-45 -11 -79 -31t-53 -42.5t-31 -49t-16 -47.5t-4 -43zM625 160q86 13 147.5 78t61.5 165q0 98 -56 150.5t-153 79.5v-473z" />
<glyph unicode="%" horiz-adv-x="1812" d="M104 1100q0 148 54 248q22 42 56 72t71.5 44.5t70 20.5t64.5 6q83 0 145.5 -32.5t98.5 -78.5q75 -98 75 -274q0 -92 -21.5 -163.5t-54 -112.5t-77 -67t-84.5 -35t-82 -9q-143 0 -229.5 97t-86.5 284zM291 1104q0 -246 131 -246q30 0 53.5 11.5t37 34t22.5 45.5t12.5 55 t4.5 53t1 49q0 246 -131 246t-131 -248zM424 -53l793 1544h172l-787 -1544h-178zM1073 326q0 30 2.5 59.5t10.5 70t21 75.5t37.5 70.5t56.5 60.5t80.5 41t107.5 16q94 0 161 -39.5t103 -99.5q57 -95 57 -246q0 -92 -22 -163.5t-55 -112.5t-77.5 -67t-84.5 -35t-82 -9 q-146 0 -231 100.5t-85 278.5zM1260 332q0 -246 133 -246q44 0 72.5 25t40 69t15 77t3.5 77q0 246 -131 246q-133 0 -133 -248z" />
<glyph unicode="&#x26;" horiz-adv-x="1429" d="M94 408q0 78 27 145t76.5 120t106.5 92.5t130 76.5q-81 105 -117 179.5t-36 145.5q0 144 112 234t269 90q171 0 272.5 -93.5t101.5 -228.5q0 -54 -18 -103t-44 -84t-67 -69.5t-74 -55.5t-79 -46q1 -1 52 -64t111.5 -137.5t81.5 -99.5q40 78 66 186l215 -53 q-36 -160 -129 -309q78 -87 231 -191l-141 -180q-43 22 -87.5 55t-67 53.5t-82.5 75.5q-21 -25 -52 -50t-82.5 -55t-126.5 -48.5t-161 -18.5q-99 0 -181.5 26.5t-138 70t-94.5 100.5t-56.5 116.5t-17.5 119.5zM336 414q0 -98 62.5 -172t176.5 -74q77 0 152 35t131 106 q-80 90 -309 383q-213 -113 -213 -278zM506 1186q0 -64 67 -144l76 -88l74 54q100 72 100 168q0 51 -42 97t-117 46q-64 0 -111 -37.5t-47 -95.5z" />
<glyph unicode="'" horiz-adv-x="425" d="M86 1219v247h254v-247l-47 -273h-158z" />
<glyph unicode="(" horiz-adv-x="681" d="M117 535q0 151 32.5 310t133.5 361q74 148 170 285h159q-42 -80 -65 -126.5t-60 -130t-58.5 -153t-44.5 -160t-33.5 -189t-10.5 -204.5q0 -463 270 -958h-159q-147 203 -240 459q-52 139 -73 251.5t-21 254.5z" />
<glyph unicode=")" horiz-adv-x="681" d="M70 -430q42 80 64.5 126.5t60.5 130t59 152.5t44 159.5t33.5 189t10.5 204.5q0 464 -270 959h159q147 -203 240 -459q52 -141 73 -254t21 -252q0 -151 -32.5 -310t-133.5 -361q-74 -148 -170 -285h-159z" />
<glyph unicode="*" horiz-adv-x="788" d="M49 1182l51 159q140 -52 234 -108q-23 177 -23 258h160q0 -85 -25 -258q165 74 244 102l49 -159q-148 -39 -252 -54q26 -25 86 -92t89 -102l-136 -92q-37 52 -137 217q-52 -104 -133 -222l-135 101q98 113 178 190q-137 26 -250 60z" />
<glyph unicode="+" d="M100 616v213h392v392h213v-392h391v-213h-391v-391h-213v391h-392z" />
<glyph unicode="," horiz-adv-x="575" d="M170 -213q65 27 98.5 72t36.5 141h-117v242h240v-205q0 -36 -1.5 -59t-7 -59.5t-19 -64.5t-35 -59t-58 -56.5t-84.5 -45.5z" />
<glyph unicode="-" horiz-adv-x="681" d="M66 418v227h550v-227h-550z" />
<glyph unicode="." horiz-adv-x="575" d="M168 0v242h242v-242h-242z" />
<glyph unicode="/" horiz-adv-x="575" d="M0 -49l399 1515h176l-401 -1515h-174z" />
<glyph unicode="0" horiz-adv-x="1130" d="M88 725q0 43 1 77t5.5 94.5t13 109t25.5 110.5t40.5 109.5t60 96t82 80t109 51.5t138.5 20q479 0 479 -750q0 -748 -477 -748q-75 0 -138.5 19.5t-109 50.5t-82.5 78.5t-60.5 94.5t-40.5 108.5t-25.5 110.5t-13.5 110t-6 96.5t-1 81.5zM326 721q0 -83 4 -149.5 t13.5 -132.5t27 -114t43 -86t64 -57.5t87.5 -19.5q51 0 90.5 21t65.5 63t43 92.5t25.5 122.5t12 140t3.5 157q0 71 -4 131.5t-14 122.5t-28 109.5t-44 85t-64.5 57.5t-87.5 20q-59 0 -102 -30t-68.5 -79t-41 -124.5t-20.5 -152.5t-5 -177z" />
<glyph unicode="1" horiz-adv-x="1130" d="M195 891v211q26 10 61 27.5t89 52t102 74.5t94.5 98t72.5 119h168v-1473h-227v1106q-70 -67 -167.5 -124.5t-192.5 -90.5z" />
<glyph unicode="2" horiz-adv-x="1130" d="M55 0q2 66 28.5 135.5t58.5 120.5t84 109.5t81 86t74 68.5q83 75 129.5 117.5t99 92.5t78 80t52 64.5t36.5 62t16.5 57.5t6.5 65q0 110 -69 168.5t-165 58.5q-29 0 -56.5 -4.5t-62.5 -21.5t-61 -44t-45 -78t-21 -118l-229 24q8 81 32 147.5t57 110t76 76.5t83 50.5t85 28 t76 13.5t60 3q111 0 197.5 -29.5t137 -73.5t83 -102t44 -108t11.5 -99q0 -58 -13 -112t-43 -106.5t-59 -94t-80.5 -94t-88 -86t-99.5 -89.5q-210 -183 -260 -264h643v-215h-977z" />
<glyph unicode="3" horiz-adv-x="1130" d="M82 389l223 27q3 -20 7 -37t15 -50.5t29 -59.5t43.5 -52t66 -40.5t89.5 -14.5q116 0 186 82.5t70 193.5q0 112 -68 186t-170 74q-55 0 -133 -20l25 192q47 -2 93.5 7.5t90.5 32.5t71.5 68.5t27.5 108.5q0 93 -60.5 145t-144.5 52q-85 0 -147.5 -57t-78.5 -174l-217 39 q5 26 9.5 43.5t20 61t34.5 75t54.5 72t78.5 66.5t107.5 44.5t140.5 18.5q191 0 313.5 -112.5t122.5 -266.5q0 -16 -1.5 -29.5t-6.5 -42.5t-19 -55.5t-35.5 -58t-59.5 -61.5t-87 -54v-5q60 -13 107.5 -39t76.5 -59.5t49 -68.5t28.5 -72.5t12 -63t3.5 -49.5q0 -133 -68 -239.5 t-181.5 -164t-248.5 -57.5q-101 0 -186 33t-143.5 90.5t-94.5 132t-45 158.5z" />
<glyph unicode="4" horiz-adv-x="1130" d="M31 322v206l653 940h193v-940h188v-206h-188v-322h-228v322h-618zM248 528h401v584h-4z" />
<glyph unicode="5" horiz-adv-x="1130" d="M88 381l231 22q9 -62 32.5 -108t50.5 -70.5t61 -39.5t57.5 -19t46.5 -4q123 0 192.5 93.5t69.5 221.5q0 82 -23.5 144.5t-62.5 97.5t-85 52t-97 17q-151 0 -244 -126l-196 26l143 758h735v-215h-559l-63 -326q113 70 239 70q85 0 165.5 -32.5t144.5 -91.5t102.5 -151.5 t38.5 -203.5q0 -95 -31.5 -185.5t-91.5 -166.5t-159.5 -122.5t-223.5 -46.5q-119 0 -219 44.5t-169.5 138t-84.5 223.5z" />
<glyph unicode="6" horiz-adv-x="1130" d="M80 694q0 37 1 67.5t6 91.5t14 111.5t28 116.5t45 118t67 105t91.5 88.5t122 58t155.5 22.5q26 0 53 -2.5t66 -11.5t74 -24t73 -43t67 -65t52 -93.5t33 -125.5l-223 -23q-4 23 -8 39.5t-19 50t-35 55t-58 39t-87 17.5q-266 0 -285 -491l4 -4q108 159 312 159 q85 0 162.5 -34t136 -95t93 -151.5t34.5 -196.5q0 -99 -31 -188.5t-88.5 -158.5t-146.5 -110t-197 -41q-141 0 -248 66.5t-162 163.5q-102 186 -102 489zM340 481q0 -79 28.5 -150t88.5 -120t139 -49q62 0 108.5 28.5t72 76t38 100.5t12.5 110q0 77 -25 141t-81.5 107 t-134.5 43q-47 0 -90 -17t-78.5 -50.5t-56.5 -90.5t-21 -129z" />
<glyph unicode="7" horiz-adv-x="1130" d="M92 1233v213h955v-170q-50 -52 -107.5 -128t-130.5 -201t-131.5 -262.5t-103.5 -319.5t-54 -365h-227q3 150 38 309.5t86 293t116 259t125 216t116 155.5h-682z" />
<glyph unicode="8" horiz-adv-x="1130" d="M84 420q0 53 12.5 105t40.5 106t81.5 96.5t127.5 63.5v4q-20 6 -40 15t-54 33.5t-58.5 55t-43.5 83t-19 114.5q0 74 27.5 141t79.5 120t135.5 84.5t187.5 31.5q105 0 189.5 -32t136.5 -85.5t80 -121.5t28 -142q0 -108 -57.5 -184t-153.5 -115q54 -19 97.5 -47.5 t70.5 -57.5t47 -65.5t29 -63.5t14.5 -60t6 -47.5t0.5 -31.5q0 -191 -132.5 -318t-347.5 -127q-212 0 -348.5 123.5t-136.5 321.5zM311 428q0 -108 69.5 -187t188.5 -79q103 0 176.5 70t73.5 194q0 120 -73 195t-183 75q-63 0 -113 -25t-79.5 -65t-44.5 -85.5t-15 -92.5z M354 1083q0 -96 61.5 -150t147.5 -54q85 0 147 53t62 149q0 91 -58.5 148t-150.5 57q-91 0 -150 -56.5t-59 -146.5z" />
<glyph unicode="9" horiz-adv-x="1130" d="M76 977q0 218 129.5 357t333.5 139q144 0 245.5 -66.5t159.5 -167.5q49 -88 78 -202.5t29 -291.5q0 -35 -0.5 -63.5t-6 -89t-14.5 -110t-28 -115.5t-45 -117.5t-67 -105t-92.5 -89t-124 -58t-157.5 -22.5q-95 0 -186.5 35.5t-147.5 116.5q-28 40 -46 85.5t-23 67.5 t-11 60l220 22q3 -17 5 -26t9 -33t15.5 -39.5t25 -36.5t36 -33.5t49.5 -22t66 -9.5q186 0 248 225q41 150 41 268h-4q-18 -25 -43.5 -50t-64 -51t-91 -42t-110.5 -16q-83 0 -160 33t-137 93t-95.5 152.5t-35.5 202.5zM303 975q0 -131 67.5 -214t180.5 -83q79 0 135 41.5 t81.5 105.5t25.5 142q0 128 -66 223.5t-182 95.5q-112 0 -177 -91t-65 -220z" />
<glyph unicode=":" horiz-adv-x="618" d="M188 0v242h242v-242h-242zM188 819v242h242v-242h-242z" />
<glyph unicode=";" horiz-adv-x="618" d="M170 -213q65 27 98.5 72t36.5 141h-117v242h240v-205q0 -36 -1.5 -59t-7 -59.5t-19 -64.5t-35 -59t-58 -56.5t-84.5 -45.5zM188 819v242h242v-242h-242z" />
<glyph unicode="&#x3c;" d="M104 625v202l988 422v-229l-738 -293l738 -301v-227z" />
<glyph unicode="=" d="M100 395v213h996v-213h-996zM100 838v213h996v-213h-996z" />
<glyph unicode="&#x3e;" d="M102 199v229l738 293l-738 301v227l988 -426v-202z" />
<glyph unicode="?" d="M98 1061q20 195 154.5 310.5t343.5 115.5q139 0 253.5 -52.5t180.5 -147t66 -212.5q0 -58 -15.5 -106.5t-52 -96.5t-75 -86t-105.5 -96q-53 -46 -77 -70.5t-44.5 -61.5t-26 -78.5t-4.5 -110.5h-211q-2 54 -1 100t11.5 89.5t33.5 86t65.5 90t107.5 101.5q41 34 59 49.5 t44 42t36 45.5t18.5 45.5t8.5 56.5q0 99 -77.5 165.5t-188.5 66.5q-103 0 -181 -65t-104 -208zM479 0v242h242v-242h-242z" />
<glyph unicode="@" horiz-adv-x="2048" d="M92 477q0 96 17 193.5t55 198t93.5 191t137.5 170t182 137t232 91t283 33.5q170 0 313 -43.5t242.5 -118t169.5 -173.5t102.5 -209.5t32.5 -227.5q0 -143 -52.5 -277t-138.5 -231t-201.5 -156t-236.5 -59q-46 0 -80.5 10t-53.5 23.5t-31 35.5t-16 36.5t-7 35.5 q-134 -141 -295 -141q-110 0 -195.5 61.5t-129.5 158.5t-44 210q0 121 42.5 240.5t112.5 210.5t168 147.5t203 56.5q189 0 287 -161l31 135h219l-148 -693q-22 -106 -22 -124q0 -27 17.5 -42.5t35.5 -15.5q33 0 79.5 23.5t97 72t94 111.5t72 152t28.5 184q0 124 -48.5 233.5 t-136.5 192t-221.5 130.5t-294.5 48q-403 0 -634 -276q-98 -117 -147.5 -267.5t-49.5 -304.5q0 -383 266 -581q227 -166 586 -166q142 0 265.5 25t240.5 90.5t192 168.5h197q-19 -39 -45 -77.5t-68 -84t-92.5 -85t-121.5 -77.5t-151.5 -64.5t-186 -43t-222.5 -16.5 q-213 0 -386.5 49t-290.5 133t-196.5 200.5t-115 248t-35.5 278.5zM690 422q0 -110 53.5 -186t147.5 -76q93 0 172 75.5t122.5 189.5t43.5 234q0 41 -10.5 83t-33 83t-65.5 67t-100 26q-62 0 -117 -33t-93 -86t-66 -119t-41 -132.5t-13 -125.5z" />
<glyph unicode="A" horiz-adv-x="1429" d="M6 0l565 1466h260l592 -1466h-268l-149 391h-600l-144 -391h-256zM477 592h451l-135 362q-53 138 -95 271h-4q-26 -116 -76 -248z" />
<glyph unicode="B" horiz-adv-x="1429" d="M156 0v1466h565q135 0 212 -15t134 -48q83 -46 131.5 -129.5t48.5 -179.5q0 -18 -1.5 -35t-12 -59t-30 -76.5t-61.5 -75t-100 -68.5q71 -21 124.5 -58t81.5 -75t45 -83.5t21.5 -77t4.5 -62.5q0 -128 -66.5 -230t-173.5 -147q-111 -47 -393 -47h-530zM397 207h322 q31 0 48 0.5t50 2.5t53 5.5t49.5 11.5t48.5 18.5t40 28t33 39.5t20 52t8 67t-8.5 67.5t-21.5 52.5t-36 39.5t-43 28.5t-52 19t-54 11.5t-58 5.5t-55 2.5t-53 0.5h-291v-452zM397 866h260h55t54.5 2t55.5 5.5t49.5 10t46.5 16t37.5 24.5t31 34.5t18 46t7.5 58.5q0 85 -58 143 q-36 36 -105.5 45t-215.5 9h-236v-394z" />
<glyph unicode="C" horiz-adv-x="1472" d="M100 735q0 351 189.5 553.5t498.5 202.5q115 0 210 -29.5t155 -73t107.5 -105t71 -112.5t40.5 -108l-239 -57q-82 278 -355 278q-77 0 -141 -20t-107.5 -53t-76.5 -79.5t-52 -94t-31 -103.5t-16 -101.5t-4 -93.5q0 -236 76 -368q52 -87 140.5 -138t203.5 -51 q70 0 128.5 20t99 53t71.5 79t49.5 92.5t30.5 99.5l237 -69q-43 -171 -135 -281q-51 -63 -119 -106t-136.5 -62t-119.5 -26t-98 -7q-138 0 -251.5 40t-192 110t-132 167t-78 208t-24.5 235z" />
<glyph unicode="D" horiz-adv-x="1472" d="M156 0v1466h522q58 0 93.5 -1.5t91.5 -7t98 -19.5t90.5 -36t92 -59.5t81.5 -87.5q67 -88 109 -208.5t42 -313.5q0 -376 -198 -577q-154 -156 -480 -156h-542zM397 207h271q43 0 68.5 1t68.5 6t70.5 14t64.5 28t61 45.5t50 67t40.5 93t24.5 124t10 157.5q0 310 -143 435 q-34 30 -72 47.5t-90 24.5t-88.5 8.5t-109.5 1.5h-226v-1053z" />
<glyph unicode="E" horiz-adv-x="1366" d="M156 0v1466h1073v-206h-832v-392h777v-206h-777v-455h863v-207h-1104z" />
<glyph unicode="F" horiz-adv-x="1259" d="M156 0v1466h997v-206h-756v-406h654v-207h-654v-647h-241z" />
<glyph unicode="G" horiz-adv-x="1599" d="M104 731q0 70 10 140t34.5 146t61.5 143.5t95.5 128.5t131.5 105.5t174 70.5t220 26q513 0 615 -432l-232 -51q-22 81 -65 138t-98 85.5t-108 40.5t-112 12q-112 0 -199.5 -36t-138.5 -91.5t-84.5 -129t-45 -140t-11.5 -133.5q0 -123 27.5 -224t83.5 -180.5t150.5 -123.5 t220.5 -44t236.5 49t154.5 95v231h-387v207h628v-561q-131 -109 -292 -168.5t-330 -59.5q-228 0 -397 98.5t-256 268.5t-87 389z" />
<glyph unicode="H" horiz-adv-x="1472" d="M156 0v1466h241v-592h678v592h242v-1466h-242v668h-678v-668h-241z" />
<glyph unicode="I" horiz-adv-x="575" d="M168 0v1466h242v-1466h-242z" />
<glyph unicode="J" horiz-adv-x="1087" d="M53 434l223 27q1 -29 2.5 -47t6.5 -50.5t12.5 -54t22.5 -48t35.5 -42t51.5 -26.5t70 -11q33 0 60 6.5t46.5 16t35 27t25 32.5t16.5 40.5t10.5 42.5t5.5 46.5t2 45.5v46v981h242v-966q0 -174 -37 -275q-92 -250 -408 -250q-200 0 -309 109q-50 50 -82 140q-31 87 -31 203 v7z" />
<glyph unicode="K" horiz-adv-x="1409" d="M156 0v1466h241v-702l635 702h307l-575 -602l629 -864h-306l-487 698l-203 -215v-483h-241z" />
<glyph unicode="L" d="M156 0v1466h241v-1259h729v-207h-970z" />
<glyph unicode="M" horiz-adv-x="1771" d="M145 0v1466h396l348 -1149h4l354 1149h377v-1466h-233v1284h-5l-389 -1284h-225l-389 1284h-4v-1284h-234z" />
<glyph unicode="N" horiz-adv-x="1472" d="M158 0v1466h239l615 -960q10 -16 24.5 -39t20 -32t15 -26.5t20.5 -41.5l4 4q-6 54 -6 168v927h223v-1466h-242l-665 1028q-20 32 -29 55l-4 -4q8 -72 8 -104v-975h-223z" />
<glyph unicode="O" horiz-adv-x="1599" d="M94 737q0 117 25.5 225.5t81.5 205.5t137 168t200 113t263 42q166 0 300.5 -58t222 -160t134.5 -240t47 -300q0 -164 -47 -302.5t-135 -240t-223 -158.5t-303 -57q-163 0 -296 57t-222 158t-137 241.5t-48 305.5zM344 733q0 -144 39 -253.5t105 -172.5t145 -94t168 -31 q133 0 230.5 61t148.5 152q75 134 75 342q0 252 -120 399.5t-334 147.5q-70 0 -133.5 -17t-123.5 -58t-103.5 -102.5t-70 -157.5t-26.5 -216z" />
<glyph unicode="P" horiz-adv-x="1366" d="M156 0v1466h516q159 0 249 -11.5t160 -51.5q64 -36 106.5 -90.5t60 -113t23 -97t5.5 -74.5q0 -83 -22.5 -157t-82 -143.5t-149.5 -106.5q-113 -46 -334 -46h-291v-575h-241zM397 782h277q33 0 56 1t62.5 5.5t68 13.5t62 27t54.5 43.5t35 64.5t14 89q0 63 -28 118t-78 81 q-48 24 -98 29.5t-158 5.5h-267v-478z" />
<glyph unicode="Q" horiz-adv-x="1599" d="M94 733q0 341 190 549.5t517 208.5q218 0 378.5 -97t243 -267.5t82.5 -393.5q0 -102 -16 -189t-46.5 -155t-63 -118t-76.5 -101q124 -85 243 -129l-82 -170q-84 28 -130 55t-189 127q-153 -78 -346 -78q-216 0 -377 97t-244.5 268t-83.5 393zM344 729q0 -138 36.5 -244.5 t101 -171.5t146.5 -98t179 -33q71 0 149 27q-34 24 -86.5 49.5t-99.5 38.5l64 154q154 -45 278 -144q143 141 143 424q0 258 -121.5 405.5t-332.5 147.5q-61 0 -119.5 -13.5t-121.5 -52t-109.5 -98t-76.5 -160.5t-30 -231z" />
<glyph unicode="R" horiz-adv-x="1472" d="M156 0v1466h637q75 0 113.5 -1.5t94.5 -10.5t105 -27q114 -42 174.5 -144t60.5 -222q0 -55 -11.5 -104t-30.5 -85t-46 -66.5t-54.5 -51t-61 -37.5t-60.5 -26.5t-57 -17t-47 -10t-33 -4.5v-4q36 -18 60 -33.5t63 -48.5t83 -89.5t95 -137.5l219 -346h-295l-204 311 q-52 79 -84 125t-67 86.5t-58.5 58.5t-58 32t-66.5 17t-82 3h-148v-633h-241zM397 831h326q43 0 73 1t72 5.5t70.5 13t60 24.5t50 38.5t31 56.5t12.5 77q0 44 -13.5 79t-33 56.5t-52 37.5t-58.5 23.5t-66 11.5t-61 4.5t-56 0.5h-355v-429z" />
<glyph unicode="S" horiz-adv-x="1366" d="M84 473l233 21q12 -102 62 -172q33 -46 81.5 -77.5t98 -43t79 -15.5t54.5 -4q148 0 240 61.5t92 166.5q0 27 -6 50t-20 42t-29 33.5t-42.5 28.5t-50 23.5t-62.5 21t-69 19t-79 19.5q-197 48 -291 93q-235 116 -236 343q0 81 33 153.5t96 130t164.5 91t229.5 33.5 q117 0 215 -26t174 -78.5t121 -138.5t49 -199l-240 -15q-2 22 -4.5 36.5t-11.5 43t-21.5 48.5t-36.5 45t-54.5 40.5t-78.5 26t-106 10.5q-78 0 -143 -18.5t-109.5 -62t-44.5 -105.5q0 -81 73 -125t269 -88q199 -46 292 -88q239 -107 257 -334q2 -19 2 -39q0 -62 -16 -121 t-57 -120t-104 -106t-166 -73.5t-233 -28.5q-131 0 -235.5 31t-169.5 80t-110 116.5t-64.5 133t-24.5 137.5z" />
<glyph unicode="T" horiz-adv-x="1259" d="M47 1260v206h1163v-206h-460v-1260h-242v1260h-461z" />
<glyph unicode="U" horiz-adv-x="1472" d="M156 649v817h241v-825q0 -61 1 -92.5t7 -88.5t18.5 -89t37 -73t59.5 -63t90 -37.5t125 -15.5q54 0 98.5 8.5t77.5 21.5t58.5 36.5t42.5 45.5t29 57t18 62.5t9.5 70.5t4 72.5t0.5 76.5v833h242v-811q0 -63 -0.5 -97t-6 -98.5t-15 -103.5t-29.5 -96t-48 -92.5t-72.5 -76 t-100.5 -63t-134 -38t-172 -15.5q-120 0 -214 24.5t-154 59.5t-103 97t-63.5 112t-32 130.5t-13 126t-1.5 124.5z" />
<glyph unicode="V" horiz-adv-x="1366" d="M6 1466h262l377 -1075q29 -80 39 -127h4q11 53 39 127l379 1075h254l-551 -1466h-256z" />
<glyph unicode="W" horiz-adv-x="1941" d="M18 1466h248l223 -983l31 -159h4q6 52 33 145l272 997h291l232 -874q48 -184 59 -277h4q10 60 35 170l229 981h242l-379 -1466h-248l-301 1106q-9 32 -22 92h-4l-21 -92l-301 -1106h-256z" />
<glyph unicode="X" horiz-adv-x="1366" d="M6 0l535 764l-478 702h285l279 -422q39 -55 63 -94q10 16 60 88l292 428h273l-486 -700l529 -766h-295l-348 516q-23 31 -33 51q-5 -8 -17 -25.5t-22 -31.5l-346 -510h-291z" />
<glyph unicode="Y" horiz-adv-x="1366" d="M4 1466h289l313 -508q69 -111 80 -131q17 32 84 138l311 501h279l-563 -848v-618h-242v618z" />
<glyph unicode="Z" horiz-adv-x="1259" d="M43 0v221l762 946q47 60 80 93h-756v206h1061v-200l-815 -1004q-11 -15 -25.5 -32t-19.5 -23h887v-207h-1174z" />
<glyph unicode="[" horiz-adv-x="618" d="M139 -410v1876h445v-182h-224v-1511h224v-183h-445z" />
<glyph unicode="\" horiz-adv-x="575" d="M0 1466h176l399 -1515h-174z" />
<glyph unicode="]" horiz-adv-x="618" d="M35 -227h223v1511h-223v182h444v-1876h-444v183z" />
<glyph unicode="^" horiz-adv-x="1067" d="M80 666l364 800h183l360 -800h-231l-224 546l-219 -546h-233z" />
<glyph unicode="_" horiz-adv-x="1024" d="M-12 -154h1048v-102h-1048v102z" />
<glyph unicode="`" horiz-adv-x="681" d="M66 1483h274l137 -289h-160z" />
<glyph unicode="a" horiz-adv-x="1130" d="M74 285q0 44 10.5 82t26.5 66.5t42.5 53.5t50.5 42t58.5 31.5t58.5 23t59 16.5t52 11t45 7q192 26 297 64q1 20 1 39q0 31 -3 59q-5 33 -24 57.5t-42.5 37t-52.5 20.5t-48.5 10t-35.5 2q-67 0 -112.5 -11.5t-72.5 -36.5t-41 -52t-26 -70l-213 39q14 41 28.5 72t39 69.5 t59.5 66t82 52t114.5 37t150.5 12.5q237 0 344 -104q44 -43 61.5 -105.5t17.5 -193.5l-2 -379q1 -89 13 -156t22 -91t27 -56h-232q-25 63 -36 125q-157 -150 -357 -150q-167 0 -264.5 85t-97.5 225zM307 301q0 -25 9 -50t29 -50.5t60.5 -41.5t94.5 -16q74 0 138.5 33.5 t100.5 93.5q24 41 29.5 88t5.5 164q-81 -31 -252 -59q-35 -6 -55 -10.5t-54.5 -16.5t-54.5 -28t-35.5 -43.5t-15.5 -63.5z" />
<glyph unicode="b" d="M141 0v1466h228v-526h4q15 20 34 39t55.5 46t90.5 43.5t117 16.5q200 0 324 -147t124 -399q0 -114 -27 -209t-71.5 -159.5t-103 -109.5t-121.5 -65.5t-127 -20.5q-32 0 -66 6t-78 22t-88 52t-78 88h-4v-143h-213zM360 522q0 -89 20 -156.5t49 -105t67.5 -61t69.5 -30.5 t61 -7q46 0 88.5 18t82 57.5t63.5 115t24 177.5q0 46 -5.5 91t-22.5 98.5t-44 93.5t-75.5 67t-112.5 27q-168 0 -232 -174q-33 -90 -33 -211z" />
<glyph unicode="c" horiz-adv-x="1087" d="M88 530q0 93 18.5 174.5t58 151.5t97.5 121t142 79.5t186 28.5q35 0 72 -4.5t90.5 -18t105.5 -46t90 -80.5q67 -84 92 -209l-221 -37q-5 20 -7.5 30.5t-12 36t-19 41t-27.5 37t-39 34t-52 21.5t-68 9q-59 0 -105.5 -19t-74.5 -51.5t-48 -69t-28.5 -80t-12 -75t-3.5 -61.5 q0 -37 3.5 -72.5t12.5 -81.5t28 -84t47 -71.5t73 -52.5t102 -19t101 20t67 44.5t40 63.5t21.5 58.5t9.5 48.5l225 -35q-14 -75 -47.5 -140.5t-88 -122.5t-141 -90.5t-193.5 -33.5q-91 0 -166.5 23.5t-125.5 60t-88.5 88t-59.5 101.5t-33.5 106.5t-16.5 97t-4 78.5z" />
<glyph unicode="d" d="M76 528q0 266 124.5 411.5t319.5 145.5q90 0 169.5 -38t131.5 -107h4v526h228v-1466h-213v145h-4q-30 -48 -70.5 -82.5t-74 -51t-73.5 -25.5t-57.5 -10t-36.5 -1q-133 0 -236.5 75t-157.5 200t-54 278zM309 535q0 -92 19.5 -162t47.5 -109t66.5 -63t69 -31.5t61.5 -7.5 q30 0 60 7t68 30t66 60.5t47.5 105.5t19.5 157q0 182 -70.5 283.5t-190.5 101.5q-54 0 -97.5 -18.5t-70.5 -44.5t-46.5 -66t-29 -72t-14.5 -73t-5.5 -58.5t-0.5 -39.5z" />
<glyph unicode="e" horiz-adv-x="1130" d="M72 524q0 84 16.5 162.5t54.5 151.5t93 127.5t138.5 87t184.5 32.5q129 0 227 -46.5t157 -130.5q59 -86 87 -196q25 -100 25 -219v-26h-750q5 -140 79 -226.5t200 -86.5q56 0 99 18t69 51t39 58t24 59l229 -35q-45 -153 -161.5 -241.5t-304.5 -88.5q-119 0 -211 36.5 t-146.5 93t-89 132.5t-47 145.5t-12.5 141.5zM305 629h516q-2 34 -8 65.5t-23.5 72.5t-43.5 70t-72.5 49.5t-106.5 20.5q-63 0 -112.5 -25t-76 -58.5t-44 -77.5t-22.5 -69.5t-7 -47.5z" />
<glyph unicode="f" horiz-adv-x="618" d="M18 883v178h156v98q0 34 1 55t7 59.5t17 64.5t34 57.5t55 50.5t82.5 32t114.5 13q89 0 199 -27l-33 -176q-55 12 -121 12q-27 0 -48 -5.5t-34 -12.5t-22.5 -21t-14.5 -24.5t-7 -29t-2.5 -29t-0.5 -29.5v-88h209v-178h-209v-883h-227v883h-156z" />
<glyph unicode="g" d="M76 537q0 248 123 398t329 150q201 0 316 -161h4v137h211v-934q0 -296 -88 -403q-125 -154 -387 -154q-43 0 -82.5 3t-89.5 12t-91.5 24.5t-82 42.5t-68.5 62.5t-44 88.5q-13 47 -13 103v14l243 -31q3 -19 6 -32.5t16 -36t32.5 -36.5t57 -25t87.5 -11q37 0 78 6.5 t92.5 32.5t73.5 68q23 42 27.5 88t4.5 211h-4q-118 -154 -307 -154q-87 0 -160.5 30.5t-125 83t-88 121.5t-53.5 145.5t-17 156.5zM309 537q0 -96 26 -173t86.5 -127.5t147.5 -50.5q112 0 187 80q84 82 84 289q0 44 -7 88t-26 93t-48 86t-78 61t-112 24q-60 0 -106.5 -23.5 t-74.5 -60.5t-46.5 -87t-25.5 -98.5t-7 -100.5z" />
<glyph unicode="h" d="M141 0v1466h228v-532q130 151 321 151q90 0 177.5 -35t129.5 -106q35 -60 46.5 -127.5t11.5 -167.5v-649h-228v621q0 34 -0.5 52t-4 52.5t-10.5 54.5t-22 46.5t-35.5 41t-53 25t-74.5 10.5q-67 0 -127 -31t-88 -81q-26 -49 -34.5 -101.5t-8.5 -132.5v-557h-228z" />
<glyph unicode="i" horiz-adv-x="512" d="M141 0v1061h228v-1061h-228zM141 1235v231h228v-231h-228z" />
<glyph unicode="j" horiz-adv-x="512" d="M-88 -408l41 195q60 -12 82 -12q16 0 29.5 2t23.5 8t18 10.5t14 17t10 19.5t6.5 25t4 28t2 33.5t0.5 35v40.5v1067h228v-1071q0 -43 -0.5 -66t-3 -64.5t-7 -65t-14 -58.5t-23 -55t-35 -44t-48.5 -37t-65 -21.5t-83 -8.5q-84 0 -180 22zM143 1235v231h228v-231h-228z" />
<glyph unicode="k" horiz-adv-x="1087" d="M141 0v1466h228v-809l381 404h286l-387 -389l420 -672h-260l-311 512l-129 -129v-383h-228z" />
<glyph unicode="l" horiz-adv-x="512" d="M141 0v1466h228v-1466h-228z" />
<glyph unicode="m" horiz-adv-x="1748" d="M127 0v1061h207v-146h4q118 170 324 170q30 0 60.5 -4.5t79 -20t91 -55t68.5 -98.5q16 23 29 39.5t44 45t63.5 46.5t83.5 32.5t109 14.5q69 0 123.5 -17.5t89 -42.5t59 -64t36.5 -70t18 -74t7 -62.5t1 -47.5v-707h-227v641q0 33 -0.5 50.5t-3.5 49.5t-9.5 50.5t-19 42.5 t-30 37t-45.5 22.5t-64 9.5q-59 0 -113.5 -30.5t-79.5 -77.5q-27 -51 -35 -100.5t-8 -127.5v-567h-227v639q0 30 -0.5 48t-4 49t-9.5 51t-18 44t-29 38t-44 24t-61 10q-64 0 -119.5 -31t-79.5 -75q-26 -51 -34.5 -108t-8.5 -154v-535h-227z" />
<glyph unicode="n" d="M141 0v1061h209v-152h4q55 84 145.5 130t194.5 46q98 0 185.5 -40.5t124.5 -110.5q25 -46 36 -95.5t13 -89t2 -128.5v-621h-228v596q0 39 -0.5 59t-4 58t-10.5 59.5t-22 50t-35.5 43.5t-53 26t-74.5 11q-69 0 -129.5 -34t-85.5 -85q-43 -86 -43 -249v-535h-228z" />
<glyph unicode="o" d="M76 518q0 142 43 253.5t116.5 178.5t165.5 101t197 34q233 0 376.5 -152.5t143.5 -400.5q0 -252 -146 -404.5t-376 -152.5q-99 0 -189 32t-165.5 95t-120.5 170.5t-45 245.5zM309 530q0 -101 27 -176t71.5 -115t92 -58.5t98.5 -18.5q35 0 69.5 8.5t75 34t71 65t51 109 t20.5 158.5q0 176 -83 269t-204 93q-52 0 -100 -18.5t-92 -59t-70.5 -115.5t-26.5 -176z" />
<glyph unicode="p" d="M141 -406v1467h209v-146h4q11 18 23 34t40.5 43t61 45.5t83.5 33t108 14.5q206 0 327 -153.5t121 -392.5q0 -135 -37.5 -244t-101 -178t-144.5 -105.5t-171 -36.5q-60 0 -112.5 16t-88 42.5t-55.5 46.5t-35 41h-4v-527h-228zM356 520q0 -94 23.5 -166t63 -112t84.5 -60 t94 -20q58 0 104 20.5t73.5 56t46 74t26.5 85t11 77.5t3 62q0 187 -75.5 278.5t-184.5 91.5q-116 0 -192.5 -98.5t-76.5 -288.5z" />
<glyph unicode="q" d="M80 541q0 255 126 399.5t320 144.5q57 0 107 -14t82.5 -32.5t60 -45t40.5 -44t24 -36.5h4v148h209v-1467h-228v527h-4q-49 -70 -127.5 -108t-167.5 -38q-91 0 -172.5 39.5t-142 111.5t-96 179.5t-35.5 235.5zM313 539q0 -171 69.5 -274t192.5 -103q49 0 93.5 19.5 t84.5 61.5t63.5 119.5t23.5 180.5q0 180 -76 272t-189 92q-29 0 -58.5 -6.5t-68 -29.5t-67 -60.5t-48.5 -108t-20 -163.5z" />
<glyph unicode="r" horiz-adv-x="724" d="M129 0v1061h209v-156h4q92 180 227 180q98 0 191 -55l-74 -203q-1 1 -9.5 5.5t-12 6.5t-12 6.5t-14 6.5t-15 5.5t-17 5l-17.5 3.5t-20.5 3t-21.5 1q-42 0 -74.5 -18.5t-52.5 -53t-33.5 -73.5t-20 -91t-8.5 -93.5t-2 -91.5v-449h-227z" />
<glyph unicode="s" horiz-adv-x="1087" d="M76 311l225 35q10 -61 39 -103t69 -60.5t73 -25.5t69 -7q18 0 37 1.5t55.5 9.5t63.5 22t48 43t21 69q0 42 -31.5 70t-113.5 47q-72 17 -117.5 28.5t-102 27.5t-91 31t-73 35t-60.5 42.5t-42 51.5t-28 63.5t-8 76.5q0 100 56 173.5t145 108.5t198 35q407 0 463 -290 l-217 -37q-9 48 -35 81t-62 47.5t-65.5 19.5t-61.5 5q-31 0 -62 -4.5t-66 -15.5t-56.5 -35.5t-21.5 -58.5q0 -50 52.5 -78.5t196.5 -61.5q73 -17 120.5 -30t103 -32.5t90 -43t65 -55t44.5 -73.5t14 -95q0 -65 -26 -125.5t-78 -112.5t-143.5 -83.5t-209.5 -31.5 q-114 0 -203.5 30t-144 80.5t-85.5 106.5t-44 119z" />
<glyph unicode="t" horiz-adv-x="618" d="M31 883v178h131v239l227 136v-375h186v-178h-186v-529q0 -45 0.5 -65t4.5 -47t12.5 -37.5t24.5 -18.5t40 -8q45 0 102 19l25 -187q-82 -28 -170 -28q-65 0 -112 11.5t-75.5 39.5t-45 53.5t-23.5 76t-8.5 82.5t-1.5 97v541h-131z" />
<glyph unicode="u" d="M137 397v664h228v-539q0 -126 6 -181t28 -93q50 -86 166 -86q69 0 129 33.5t84 80.5q23 47 32 106.5t9 168.5v510h228v-1061h-207v158h-4q-32 -48 -73 -83.5t-77.5 -54t-76.5 -29.5t-64.5 -13.5t-48.5 -2.5q-97 0 -184.5 42t-123.5 110q-32 61 -41.5 122t-9.5 148z" />
<glyph unicode="v" horiz-adv-x="1087" d="M25 1061h239l215 -590q59 -184 62 -197h4q17 64 61 189l221 598h234l-412 -1061h-209z" />
<glyph unicode="w" horiz-adv-x="1536" d="M10 1061h228l182 -651q25 -76 31 -121h4q10 54 28 117l174 655h226l168 -653q17 -71 26 -119h4q11 57 29 121l193 651h223l-336 -1061h-225l-201 758h-4q-9 -49 -23 -103l-170 -655h-227z" />
<glyph unicode="x" horiz-adv-x="1087" d="M20 0l386 549l-363 512h281l176 -268q7 -10 39 -64l229 332h270l-364 -500l395 -561h-281l-217 330q-8 12 -16 26t-14 23q-25 -39 -35 -53l-215 -326h-271z" />
<glyph unicode="y" horiz-adv-x="1087" d="M31 1061h243l275 -791h4l274 791h232l-389 -1053q-29 -80 -43.5 -117.5t-39.5 -95t-43.5 -83.5t-47.5 -60t-60 -47.5t-72 -24t-92 -10.5q-87 0 -147 18l-23 193q58 -14 113 -14q86 0 130 47.5t89 183.5z" />
<glyph unicode="z" horiz-adv-x="1024" d="M39 0v180l547 627q15 17 29 32.5t21.5 24t16.5 17.5q-84 -7 -168 -7h-405v187h872v-156l-495 -577q-21 -24 -66 -72.5t-67 -73.5l4 -4q84 8 190 8h465v-186h-944z" />
<glyph unicode="{" horiz-adv-x="747" d="M66 430v201q37 2 66 9t51 21.5t38 31t26.5 43.5t16.5 52.5t9.5 65t4.5 74.5t1 86q0 168 16 252.5t74 142.5q56 56 120.5 69t204.5 13v-195q-53 0 -74.5 -1t-51 -9.5t-38.5 -22.5t-21.5 -46.5t-16 -75t-7.5 -113.5v-121q0 -77 -15 -140t-33.5 -100t-49.5 -68t-49.5 -42.5 t-46.5 -26.5q53 -26 89 -62t57.5 -78t33 -108.5t15 -134t3.5 -174.5q0 -49 2.5 -79t10.5 -55.5t20.5 -38.5t37.5 -22t55.5 -11.5t78.5 -2.5v-194q-53 0 -79.5 0.5t-69.5 4t-68.5 12.5t-56 23t-53 38t-41.5 57q-31 54 -39 127.5t-8 202.5q0 53 -1 86.5t-3.5 75t-8.5 67 t-16.5 54.5t-26 46t-37.5 32.5t-52 23.5t-68 10z" />
<glyph unicode="|" horiz-adv-x="555" d="M184 -406v1872h187v-1872h-187z" />
<glyph unicode="}" horiz-adv-x="747" d="M53 -236h47t38 2t32.5 5t25 10.5t21 16.5t14.5 24.5t12 34t8 46t7 58t4 72.5v121q0 77 15 140t33.5 99.5t50 67.5t49.5 42.5t47 26.5q-53 26 -89 62t-58 78t-33.5 108t-15 134.5t-3.5 174.5q0 49 -2.5 79t-10.5 55.5t-20.5 38.5t-37.5 22t-55.5 11.5t-78.5 2.5v195 q46 0 68.5 -0.5t61.5 -3t60.5 -7.5t51.5 -14.5t49.5 -23.5t40.5 -36t37 -50q31 -54 39 -127.5t8 -202.5q0 -53 1 -86.5t3.5 -75t8.5 -67t16.5 -54.5t26 -46t37.5 -32.5t52 -23.5t68 -10v-201q-37 -2 -66 -9t-51 -21.5t-38 -31t-26.5 -43.5t-16.5 -52.5t-9.5 -65t-4.5 -74.5 t-1 -86q0 -168 -16 -252.5t-74 -142.5q-56 -56 -121 -69t-205 -13v194z" />
<glyph unicode="~" d="M76 543v231l4 4q121 123 285 123q116 0 301 -80q127 -55 182 -55q139 0 270 141v-239q-126 -123 -289 -123q-13 0 -26.5 1t-24.5 2t-24 4t-21 4.5t-21 5.5t-18.5 5.5t-18.5 6.5t-16 6t-16 6.5t-14 5.5q-139 57 -187 72.5t-100 15.5q-60 0 -120.5 -26.5t-145.5 -110.5z " />
<glyph unicode="&#xa1;" horiz-adv-x="618" d="M182 -72l62 762h135l63 -762v-334h-260v334zM190 819v242h242v-242h-242z" />
<glyph unicode="&#xa2;" horiz-adv-x="1130" d="M109 524q0 123 31 224t91.5 177t159 118t225.5 42q54 0 89 -6l114 381l115 -33l-111 -378q60 -29 108.5 -76t75 -95t40 -87t14.5 -64l-221 -37q-14 57 -30 90t-48 66l-201 -678q21 -6 47 -6q106 0 166 63.5t74 171.5l223 -35q-12 -77 -46.5 -145t-91 -123t-141.5 -87 t-188 -32q-61 0 -96 7l-117 -388l-117 33l115 387q-31 12 -64.5 34.5t-73.5 65t-70.5 97t-51 136.5t-20.5 177zM342 551q0 -31 3.5 -67t13 -88.5t33.5 -100t59 -76.5l200 676q-60 6 -108.5 -6t-80 -34.5t-55 -57t-35.5 -67t-19.5 -70.5t-9 -62t-1.5 -47z" />
<glyph unicode="&#xa3;" horiz-adv-x="1130" d="M20 178q220 151 220 369q0 37 -9 98h-202v178h155q-26 85 -35.5 135t-9.5 107q0 106 39.5 190t105.5 134t146.5 76t169.5 26q175 0 297 -96.5t152 -284.5l-224 -33q-18 116 -81.5 172t-149.5 56q-56 0 -100.5 -20t-71 -52t-40 -68.5t-13.5 -72.5q0 -107 53 -269h313v-178 h-272q6 -24 6 -55q0 -212 -164 -363l4 -4q88 19 154 19q46 0 85.5 -7t164.5 -36q53 -11 92 -11q48 0 92.5 10.5t65 20t51.5 25.5l86 -197q-50 -29 -112 -46.5t-98 -21.5t-63 -4q-53 0 -104 11.5t-201 54.5q-77 22 -147 22q-138 0 -262 -88z" />
<glyph unicode="&#xa4;" horiz-adv-x="1130" d="M59 1085l140 148l137 -139q105 65 227 65q121 0 230 -65l137 137l139 -141l-135 -136q63 -108 63 -227q0 -113 -63 -227l137 -135l-139 -144l-139 137q-109 -65 -226 -65q-120 0 -229 65l-135 -135l-142 142l136 135q-66 111 -66 229q0 117 66 223zM332 727 q0 -97 68 -165t165 -68t164.5 68t67.5 165q0 96 -68 163.5t-164 67.5t-164.5 -67.5t-68.5 -163.5z" />
<glyph unicode="&#xa5;" horiz-adv-x="1130" d="M0 1466h250l248 -473q54 -103 63 -149h4q13 47 68 153l239 469h258l-362 -673h305v-179h-395v-137h395v-178h-395v-299h-227v299h-394v178h394v137h-394v179h303z" />
<glyph unicode="&#xa6;" horiz-adv-x="555" d="M184 373h187v-779h-187v779zM184 688v778h187v-778h-187z" />
<glyph unicode="&#xa7;" horiz-adv-x="1130" d="M74 637q0 102 58.5 182t148.5 117q-117 113 -117 238q0 132 103.5 224.5t277.5 92.5q184 0 296.5 -88t135.5 -254l-229 -25l-4.5 28.5t-7.5 32.5t-13.5 37t-22 33.5t-33 30.5t-46 19t-60.5 8q-70 0 -120 -36.5t-50 -94.5q0 -62 57 -112t236 -161q51 -32 80 -50.5 t70.5 -47t65 -48.5t53 -47.5t45.5 -52.5t31 -55.5t21.5 -64t6.5 -70.5q0 -38 -8.5 -73t-20 -60t-32.5 -50.5t-35 -40t-40 -32.5t-35.5 -24t-31.5 -19q54 -45 97.5 -115t43.5 -149q0 -149 -112 -244.5t-301 -95.5q-187 0 -306.5 94.5t-142.5 265.5l225 31q43 -213 222 -213 q91 0 139.5 45.5t48.5 106.5q0 48 -35.5 87t-148.5 113q-199 128 -281 185q-35 24 -59 42.5t-59.5 53t-57 68.5t-37.5 84t-16 104zM281 670q0 -66 49 -118.5t137 -109.5q262 -173 266 -176q51 33 84 77t33 91q0 52 -36 96t-103 93q-16 11 -150 102.5t-162 112.5 q-118 -69 -118 -168z" />
<glyph unicode="&#xa8;" horiz-adv-x="681" d="M35 1262v221h213v-221h-213zM434 1262v221h213v-221h-213z" />
<glyph unicode="&#xa9;" horiz-adv-x="1515" d="M-2 731q0 156 60.5 297t163 242.5t242.5 161t294 59.5t294.5 -60t242.5 -161.5t162.5 -242.5t60.5 -296q0 -154 -60 -294.5t-162 -242.5t-242.5 -162.5t-295.5 -60.5t-295.5 60t-242.5 162t-162 242.5t-60 295.5zM135 731q0 -169 84 -312.5t227.5 -226.5t311.5 -83 q126 0 241 49t198.5 132.5t133 198.5t49.5 242q0 128 -49.5 244t-133.5 198.5t-199 131.5t-240 49q-168 0 -311 -82.5t-227.5 -226t-84.5 -314.5zM373 715q0 117 32.5 204.5t89 137.5t125 74t148.5 24q52 0 99 -11.5t94 -37t85 -74.5t60 -117l-139 -32q-58 147 -203 147 q-58 0 -102.5 -22.5t-69.5 -54.5t-40.5 -74.5t-20.5 -76t-5 -65.5q0 -20 1.5 -41t7 -52.5t14.5 -59.5t26.5 -57t40.5 -49.5t58 -34t78 -13.5q16 0 32.5 1.5t46.5 12t54.5 28t49.5 54t38 86.5l141 -45q-35 -134 -131.5 -200t-220.5 -66q-176 0 -282.5 116t-106.5 298z" />
<glyph unicode="&#xaa;" horiz-adv-x="768" d="M41 963q0 49 17.5 87t40.5 59t59 36.5t57.5 20.5t52.5 10q180 31 238 49q-1 36 -3.5 52t-13.5 39t-37.5 32.5t-70.5 9.5q-74 0 -106 -28t-44 -81l-161 37q38 205 317 205q87 0 140.5 -17.5t103.5 -60.5q53 -47 53 -248q0 -285 2 -305q6 -57 31 -98h-172q-16 36 -23 80 q-108 -97 -239 -97q-96 0 -169 55t-73 163zM219 969q0 -38 32 -64t83 -26q50 0 91.5 25t57.5 59q23 45 23 137q-21 -8 -193 -41q-17 -4 -27.5 -7.5t-28.5 -13t-28 -27.5t-10 -42z" />
<glyph unicode="&#xab;" horiz-adv-x="1130" d="M119 528l315 455h182l-262 -455l262 -456h-182zM510 528l315 455h183l-263 -455l263 -456h-183z" />
<glyph unicode="&#xac;" d="M100 838v213h996v-656h-213v443h-783z" />
<glyph unicode="&#xad;" horiz-adv-x="681" d="M66 418v227h550v-227h-550z" />
<glyph unicode="&#xae;" horiz-adv-x="1515" d="M-2 731q0 156 60.5 297t163 242.5t242.5 161t294 59.5t294 -59.5t242.5 -161t163 -242.5t60.5 -297q0 -154 -60 -294.5t-162 -242.5t-242.5 -162.5t-295.5 -60.5t-295.5 60t-242.5 162t-162 242.5t-60 295.5zM135 731q0 -169 83.5 -312.5t227 -226.5t312.5 -83 q127 0 242 49t198.5 132.5t132.5 198.5t49 242q0 128 -49.5 243.5t-133 198.5t-198.5 132t-241 49q-168 0 -311 -82.5t-227.5 -226t-84.5 -314.5zM420 317v813h225q153 0 206.5 -5t102.5 -31q43 -24 75 -75.5t32 -113.5q0 -30 -10 -62.5t-33 -68.5t-70 -62.5t-112 -33.5v-4 q45 -15 80 -50.5t100 -144.5l98 -162h-180l-72 129q-40 72 -68.5 113.5t-56 63.5t-50 28t-58.5 6h-62v-340h-147zM567 776h115q27 0 42 0.5t42 2.5t43 6.5t36.5 13t32 21t19.5 31.5t8 44q0 28 -8.5 49t-28 33.5t-37 20t-49.5 10.5t-51 3.5t-55 0.5h-109v-236z" />
<glyph unicode="&#xaf;" horiz-adv-x="681" d="M25 1251v166h632v-166h-632z" />
<glyph unicode="&#xb0;" horiz-adv-x="811" d="M109 1194q0 124 87.5 210.5t209.5 86.5t209 -86.5t87 -210.5q0 -123 -86.5 -210t-209.5 -87t-210 87t-87 210zM244 1194q0 -66 47.5 -114t114.5 -48t114 48t47 114q0 67 -47.5 114.5t-113.5 47.5t-114 -47.5t-48 -114.5z" />
<glyph unicode="&#xb1;" d="M100 0v213h996v-213h-996zM100 707v213h392v391h213v-391h391v-213h-391v-392h-213v392h-392z" />
<glyph unicode="&#xb2;" horiz-adv-x="681" d="M25 731q14 124 168 256q11 9 103.5 79t109.5 85q59 56 59 111q0 47 -35.5 69.5t-81.5 22.5q-69 0 -95.5 -28.5t-39.5 -84.5l-168 14q4 19 7 31.5t10 35t17.5 39t26 37t38.5 34.5t51.5 27t68 19.5t86.5 6.5q81 0 140 -20.5t89.5 -53.5t44 -67t13.5 -70q0 -81 -51.5 -148.5 t-163.5 -148.5q-100 -74 -133 -109h352v-137h-616z" />
<glyph unicode="&#xb3;" horiz-adv-x="681" d="M37 938l164 18q3 -13 5.5 -22t8.5 -23.5t15 -24.5t22.5 -20t34.5 -15t47 -5q60 0 97.5 34.5t37.5 86.5q0 32 -14.5 55t-36.5 33t-40 14t-34 4q-8 0 -80 -8l23 123q18 0 35.5 2t46.5 9.5t47 28.5t18 52q0 39 -30 58.5t-72 19.5q-33 0 -56.5 -9t-36.5 -28t-18 -30.5 t-12 -33.5l-160 25q10 31 17.5 50t29.5 51.5t49.5 52t76 34.5t110.5 15q137 0 205.5 -58.5t68.5 -136.5q0 -24 -8 -49t-36.5 -55.5t-74.5 -46.5v-4q17 -4 37.5 -12.5t50 -28t49 -57t19.5 -85.5q0 -108 -89 -172.5t-214 -64.5q-32 0 -62 3.5t-72 17t-73.5 36t-59 65.5 t-36.5 101z" />
<glyph unicode="&#xb4;" horiz-adv-x="681" d="M205 1194l137 289h274l-251 -289h-160z" />
<glyph unicode="&#xb5;" d="M143 -408v1469h228v-463q0 -216 24 -285t77 -107t120 -38q71 0 127 39.5t82 107.5q24 60 24 279v467h228v-1061h-207v127h-4q-81 -152 -242 -152q-48 0 -86 12.5t-64.5 37t-41.5 43.5t-33 49h-4v-525h-228z" />
<glyph unicode="&#xb6;" horiz-adv-x="1110" d="M-6 1047q0 105 46.5 205t143.5 151q57 30 112 44.5t91.5 16.5t108.5 2h616v-213h-129v-1659h-201v1659h-186v-1659h-201v1047q-95 6 -168.5 36.5t-116.5 73t-70 97.5t-36.5 102.5t-9.5 96.5z" />
<glyph unicode="&#xb7;" horiz-adv-x="575" d="M168 602v242h242v-242h-242z" />
<glyph unicode="&#xb8;" horiz-adv-x="681" d="M74 -406l6 117q94 -8 145 -8q14 0 31 2t50 8.5t54 26t21 49.5q0 29 -27 47t-53.5 22.5t-50.5 4.5q-47 0 -72 -10l41 153h146l-23 -61q101 6 159 -43.5t58 -120.5q0 -24 -6.5 -47.5t-28.5 -52.5t-56.5 -50.5t-98 -36t-146.5 -14.5q-91 0 -149 14z" />
<glyph unicode="&#xb9;" horiz-adv-x="681" d="M98 1159v137q32 10 74 29.5t97.5 64t84.5 95.5h131v-754h-166v535q-105 -77 -221 -107z" />
<glyph unicode="&#xba;" horiz-adv-x="768" d="M47 1116q0 169 89 272t247 103q83 0 148.5 -29.5t106 -81.5t62 -119t21.5 -145q0 -168 -90 -270.5t-248 -102.5q-160 0 -248 104t-88 269zM225 1120q0 -22 2 -42.5t7 -49t16.5 -51.5t28 -43.5t43.5 -32.5t61 -12q38 0 67 13.5t45.5 37.5t27 47t14.5 53t5 43.5t1 28.5 q0 34 -5 67t-20 74.5t-49.5 67t-85.5 25.5q-38 0 -66.5 -13t-45 -36.5t-27 -46t-14 -53t-4.5 -44.5t-1 -33z" />
<glyph unicode="&#xbb;" horiz-adv-x="1130" d="M123 72l262 454l-262 457h182l316 -457l-316 -454h-182zM514 72l262 454l-262 457h182l316 -457l-316 -454h-182z" />
<glyph unicode="&#xbc;" horiz-adv-x="1705" d="M98 1159v137q32 10 74 29.5t97.5 64t84.5 95.5h131v-754h-166v535q-105 -77 -221 -107zM293 -55l991 1542h158l-991 -1542h-158zM1044 115v131l394 471h139v-477h104v-125h-104v-152h-160v152h-373zM1208 240h209v245z" />
<glyph unicode="&#xbd;" horiz-adv-x="1705" d="M98 1159v137q32 10 74 29.5t97.5 64t84.5 95.5h131v-754h-166v535q-105 -77 -221 -107zM293 -55l991 1542h158l-991 -1542h-158zM1049 -37q14 124 168 256q11 9 103.5 79t109.5 85q59 56 59 111q0 47 -35.5 69.5t-81.5 22.5q-69 0 -95.5 -28.5t-39.5 -84.5l-168 14 q4 19 7 31.5t10 35t17.5 39t26 37t38.5 34.5t51.5 27t68 19.5t86.5 6.5q81 0 140 -20.5t89.5 -53.5t44 -67t13.5 -70q0 -81 -51.5 -148.5t-163.5 -148.5q-100 -74 -133 -109h352v-137h-616z" />
<glyph unicode="&#xbe;" horiz-adv-x="1705" d="M37 938l164 18q3 -13 5.5 -22t8.5 -23.5t15 -24.5t22.5 -20t34.5 -15t47 -5q60 0 97.5 34.5t37.5 86.5q0 32 -14.5 55t-36.5 33t-40 14t-34 4q-8 0 -80 -8l23 123q18 0 35.5 2t46.5 9.5t47 28.5t18 52q0 39 -30 58.5t-72 19.5q-33 0 -56.5 -9t-36.5 -28t-18 -30.5 t-12 -33.5l-160 25q10 31 17.5 50t29.5 51.5t49.5 52t76 34.5t110.5 15q137 0 205.5 -58.5t68.5 -136.5q0 -24 -8 -49t-36.5 -55.5t-74.5 -46.5v-4q17 -4 37.5 -12.5t50 -28t49 -57t19.5 -85.5q0 -108 -89 -172.5t-214 -64.5q-32 0 -62 3.5t-72 17t-73.5 36t-59 65.5 t-36.5 101zM293 -55l991 1542h158l-991 -1542h-158zM1044 115v131l394 471h139v-477h104v-125h-104v-152h-160v152h-373zM1208 240h209v245z" />
<glyph unicode="&#xbf;" d="M98 -14q0 58 15.5 106.5t52 96.5t75 86t105.5 96q53 46 77 70.5t44.5 61.5t26 78.5t4.5 110.5h211q2 -54 1 -100t-11.5 -89.5t-33.5 -86t-65.5 -90t-107.5 -101.5q-41 -34 -59 -49.5t-44 -42t-36 -45.5t-18.5 -45.5t-8.5 -56.5q0 -99 77.5 -165.5t188.5 -66.5 q103 0 181 65t104 208l219 -27q-20 -195 -154.5 -310.5t-343.5 -115.5q-139 0 -253.5 52.5t-180.5 147t-66 212.5zM473 819v242h242v-242h-242z" />
<glyph unicode="&#xc0;" horiz-adv-x="1429" d="M6 0l565 1466h260l592 -1466h-268l-149 391h-600l-144 -391h-256zM441 1856h274l137 -289h-160zM477 592h451l-135 362q-53 138 -95 271h-4q-26 -116 -76 -248z" />
<glyph unicode="&#xc1;" horiz-adv-x="1429" d="M6 0l565 1466h260l592 -1466h-268l-149 391h-600l-144 -391h-256zM477 592h451l-135 362q-53 138 -95 271h-4q-26 -116 -76 -248zM580 1567l137 289h274l-251 -289h-160z" />
<glyph unicode="&#xc2;" horiz-adv-x="1429" d="M6 0l565 1466h260l592 -1466h-268l-149 391h-600l-144 -391h-256zM389 1567l213 289h224l217 -289h-215l-113 162l-111 -162h-215zM477 592h451l-135 362q-53 138 -95 271h-4q-26 -116 -76 -248z" />
<glyph unicode="&#xc3;" horiz-adv-x="1429" d="M6 0l565 1466h260l592 -1466h-268l-149 391h-600l-144 -391h-256zM375 1585q-4 122 54.5 181t138.5 59q22 0 38 -2.5t51.5 -14.5t86.5 -36q70 -31 100 -31q37 0 55.5 21t24.5 65h131q-11 -237 -191 -237q-59 0 -151 43q-62 29 -87.5 37t-47.5 8q-72 0 -72 -93h-131z M477 592h451l-135 362q-53 138 -95 271h-4q-26 -116 -76 -248z" />
<glyph unicode="&#xc4;" horiz-adv-x="1429" d="M6 0l565 1466h260l592 -1466h-268l-149 391h-600l-144 -391h-256zM410 1635v221h213v-221h-213zM477 592h451l-135 362q-53 138 -95 271h-4q-26 -116 -76 -248zM809 1635v221h213v-221h-213z" />
<glyph unicode="&#xc5;" horiz-adv-x="1429" d="M6 0l565 1466h260l592 -1466h-268l-149 391h-600l-144 -391h-256zM477 592h451l-135 362q-53 138 -95 271h-4q-26 -116 -76 -248zM529 1733q0 78 55 133t133 55t133 -55t55 -133t-55 -133.5t-133 -55.5t-133 55.5t-55 133.5zM617 1733q0 -41 29.5 -70.5t70.5 -29.5 t70.5 29.5t29.5 70.5t-29.5 70.5t-70.5 29.5t-70.5 -29.5t-29.5 -70.5z" />
<glyph unicode="&#xc6;" horiz-adv-x="2048" d="M-39 0l694 1466h1260v-206h-731v-394h678v-207h-678v-452h758v-207h-1000v387h-541l-176 -387h-264zM498 598h444v672h-131z" />
<glyph unicode="&#xc7;" horiz-adv-x="1472" d="M100 723q0 191 54.5 340.5t150 241.5t218 139t265.5 47q114 0 209 -29t155.5 -72.5t107.5 -104t71 -112.5t41 -110l-237 -57q-9 26 -16.5 45t-23 50t-33 53.5t-46 48.5t-61 42.5t-78.5 27.5t-99 11q-87 0 -157 -26.5t-113.5 -65t-75.5 -95.5t-47 -104.5t-24 -107.5 t-10 -88.5t-1 -61.5q0 -232 76 -362q49 -86 139.5 -138.5t204.5 -52.5q73 0 133.5 22t100.5 55.5t70.5 81t47 91.5t27.5 94l240 -69q-10 -37 -21.5 -70.5t-35.5 -84t-53 -91.5t-76 -86t-102.5 -76t-134 -51.5t-169.5 -22.5l-13 -30q102 6 161 -43.5t59 -120.5 q0 -24 -6.5 -47.5t-28.5 -52.5t-56.5 -50.5t-98 -36t-146.5 -14.5q-96 0 -150 14l6 117q94 -8 144 -8q15 0 32 2t50 8.5t54 26t21 49.5q0 29 -27 47t-53.5 22.5t-50.5 4.5q-48 0 -73 -10l36 131q-130 22 -231 81t-161 134.5t-98.5 171t-52.5 180.5t-14 172z" />
<glyph unicode="&#xc8;" horiz-adv-x="1366" d="M156 0v1466h1073v-206h-832v-392h777v-206h-777v-455h863v-207h-1104zM408 1856h274l137 -289h-160z" />
<glyph unicode="&#xc9;" horiz-adv-x="1366" d="M156 0v1466h1073v-206h-832v-392h777v-206h-777v-455h863v-207h-1104zM547 1567l137 289h274l-251 -289h-160z" />
<glyph unicode="&#xca;" horiz-adv-x="1366" d="M156 0v1466h1073v-206h-832v-392h777v-206h-777v-455h863v-207h-1104zM356 1567l213 289h224l217 -289h-215l-113 162l-111 -162h-215z" />
<glyph unicode="&#xcb;" horiz-adv-x="1366" d="M156 0v1466h1073v-206h-832v-392h777v-206h-777v-455h863v-207h-1104zM377 1635v221h213v-221h-213zM776 1635v221h213v-221h-213z" />
<glyph unicode="&#xcc;" horiz-adv-x="575" d="M13 1856h274l137 -289h-160zM168 0v1466h242v-1466h-242z" />
<glyph unicode="&#xcd;" horiz-adv-x="575" d="M152 1567l137 289h274l-251 -289h-160zM168 0v1466h242v-1466h-242z" />
<glyph unicode="&#xce;" horiz-adv-x="575" d="M-39 1567l213 289h224l217 -289h-215l-113 162l-111 -162h-215zM168 0v1466h242v-1466h-242z" />
<glyph unicode="&#xcf;" horiz-adv-x="575" d="M-18 1635v221h213v-221h-213zM168 0v1466h242v-1466h-242zM381 1635v221h213v-221h-213z" />
<glyph unicode="&#xd0;" horiz-adv-x="1472" d="M-2 653v158h158v655h522q47 0 73.5 -0.5t75 -4t81 -11t77.5 -20.5t80 -34.5t73.5 -50.5t72 -71t63.5 -94q102 -182 102 -447q0 -372 -194 -573q-37 -38 -81.5 -67t-93 -45.5t-89 -27t-89 -14.5t-72.5 -5t-59 -1h-542v653h-158zM397 207h271q57 0 89.5 1.5t87.5 12 t88 29.5t74 58.5t64 95t39 141.5t16 196q0 287 -125 418q-35 36 -74.5 57.5t-93.5 30.5t-94 11t-116 2h-226v-449h363v-158h-363v-446z" />
<glyph unicode="&#xd1;" horiz-adv-x="1472" d="M158 0v1466h239l615 -960q10 -16 24.5 -39t20 -32t15 -26.5t20.5 -41.5l4 4q-6 54 -6 168v927h223v-1466h-242l-665 1028q-20 32 -29 55l-4 -4q8 -72 8 -104v-975h-223zM395 1585q-4 122 54.5 181t138.5 59q22 0 38 -2.5t51.5 -14.5t86.5 -36q70 -31 100 -31 q37 0 55.5 21t24.5 65h131q-11 -237 -191 -237q-59 0 -151 43q-62 29 -87.5 37t-47.5 8q-72 0 -72 -93h-131z" />
<glyph unicode="&#xd2;" horiz-adv-x="1599" d="M94 737q0 117 25.5 225.5t81.5 205.5t137 168t200 113t263 42q166 0 300.5 -58t222 -160t134.5 -240t47 -300q0 -164 -47 -302.5t-135 -240t-223 -158.5t-303 -57q-163 0 -296 57t-222 158t-137 241.5t-48 305.5zM344 733q0 -144 39 -253.5t105 -172.5t145 -94t168 -31 q133 0 230.5 61t148.5 152q75 134 75 342q0 252 -120 399.5t-334 147.5q-70 0 -133.5 -17t-123.5 -58t-103.5 -102.5t-70 -157.5t-26.5 -216zM525 1856h274l137 -289h-160z" />
<glyph unicode="&#xd3;" horiz-adv-x="1599" d="M94 737q0 117 25.5 225.5t81.5 205.5t137 168t200 113t263 42q166 0 300.5 -58t222 -160t134.5 -240t47 -300q0 -164 -47 -302.5t-135 -240t-223 -158.5t-303 -57q-163 0 -296 57t-222 158t-137 241.5t-48 305.5zM344 733q0 -144 39 -253.5t105 -172.5t145 -94t168 -31 q133 0 230.5 61t148.5 152q75 134 75 342q0 252 -120 399.5t-334 147.5q-70 0 -133.5 -17t-123.5 -58t-103.5 -102.5t-70 -157.5t-26.5 -216zM664 1567l137 289h274l-251 -289h-160z" />
<glyph unicode="&#xd4;" horiz-adv-x="1599" d="M94 737q0 117 25.5 225.5t81.5 205.5t137 168t200 113t263 42q166 0 300.5 -58t222 -160t134.5 -240t47 -300q0 -164 -47 -302.5t-135 -240t-223 -158.5t-303 -57q-163 0 -296 57t-222 158t-137 241.5t-48 305.5zM344 733q0 -144 39 -253.5t105 -172.5t145 -94t168 -31 q133 0 230.5 61t148.5 152q75 134 75 342q0 252 -120 399.5t-334 147.5q-70 0 -133.5 -17t-123.5 -58t-103.5 -102.5t-70 -157.5t-26.5 -216zM473 1567l213 289h224l217 -289h-215l-113 162l-111 -162h-215z" />
<glyph unicode="&#xd5;" horiz-adv-x="1599" d="M94 737q0 117 25.5 225.5t81.5 205.5t137 168t200 113t263 42q166 0 300.5 -58t222 -160t134.5 -240t47 -300q0 -164 -47 -302.5t-135 -240t-223 -158.5t-303 -57q-163 0 -296 57t-222 158t-137 241.5t-48 305.5zM344 733q0 -144 39 -253.5t105 -172.5t145 -94t168 -31 q133 0 230.5 61t148.5 152q75 134 75 342q0 252 -120 399.5t-334 147.5q-70 0 -133.5 -17t-123.5 -58t-103.5 -102.5t-70 -157.5t-26.5 -216zM459 1585q-4 122 54.5 181t138.5 59q22 0 38 -2.5t51.5 -14.5t86.5 -36q70 -31 100 -31q37 0 55.5 21t24.5 65h131 q-11 -237 -191 -237q-59 0 -151 43q-62 29 -87.5 37t-47.5 8q-72 0 -72 -93h-131z" />
<glyph unicode="&#xd6;" horiz-adv-x="1599" d="M94 737q0 117 25.5 225.5t81.5 205.5t137 168t200 113t263 42q166 0 300.5 -58t222 -160t134.5 -240t47 -300q0 -164 -47 -302.5t-135 -240t-223 -158.5t-303 -57q-163 0 -296 57t-222 158t-137 241.5t-48 305.5zM344 733q0 -144 39 -253.5t105 -172.5t145 -94t168 -31 q133 0 230.5 61t148.5 152q75 134 75 342q0 252 -120 399.5t-334 147.5q-70 0 -133.5 -17t-123.5 -58t-103.5 -102.5t-70 -157.5t-26.5 -216zM494 1635v221h213v-221h-213zM893 1635v221h213v-221h-213z" />
<glyph unicode="&#xd7;" d="M137 414l309 309l-309 309l152 152l309 -310l307 308l150 -148l-307 -309l309 -309l-152 -152l-309 309l-309 -309z" />
<glyph unicode="&#xd8;" horiz-adv-x="1599" d="M74 33l174 194q-75 108 -114.5 224t-39.5 276q0 166 47 306t135 242t222.5 159t302.5 57q85 0 159 -14t129 -39t87.5 -45t68.5 -47l162 182l119 -103l-170 -190q149 -220 149 -498q0 -223 -82.5 -394t-244.5 -269.5t-383 -98.5q-80 0 -149.5 12.5t-124.5 36.5t-89 43.5 t-74 47.5l-165 -185zM344 729q0 -183 70 -315l682 764q-57 48 -125.5 77t-169.5 29q-257 0 -377 -207q-47 -80 -63.5 -161t-16.5 -187zM510 287q129 -105 297 -105q194 0 321 144t127 403q0 193 -65 320z" />
<glyph unicode="&#xd9;" horiz-adv-x="1472" d="M156 649v817h241v-825q0 -61 1 -92.5t7 -88.5t18.5 -89t37 -73t59.5 -63t90 -37.5t125 -15.5q54 0 98.5 8.5t77.5 21.5t58.5 36.5t42.5 45.5t29 57t18 62.5t9.5 70.5t4 72.5t0.5 76.5v833h242v-811q0 -63 -0.5 -97t-6 -98.5t-15 -103.5t-29.5 -96t-48 -92.5t-72.5 -76 t-100.5 -63t-134 -38t-172 -15.5q-120 0 -214 24.5t-154 59.5t-103 97t-63.5 112t-32 130.5t-13 126t-1.5 124.5zM461 1856h274l137 -289h-160z" />
<glyph unicode="&#xda;" horiz-adv-x="1472" d="M156 649v817h241v-825q0 -61 1 -92.5t7 -88.5t18.5 -89t37 -73t59.5 -63t90 -37.5t125 -15.5q54 0 98.5 8.5t77.5 21.5t58.5 36.5t42.5 45.5t29 57t18 62.5t9.5 70.5t4 72.5t0.5 76.5v833h242v-811q0 -63 -0.5 -97t-6 -98.5t-15 -103.5t-29.5 -96t-48 -92.5t-72.5 -76 t-100.5 -63t-134 -38t-172 -15.5q-120 0 -214 24.5t-154 59.5t-103 97t-63.5 112t-32 130.5t-13 126t-1.5 124.5zM600 1567l137 289h274l-251 -289h-160z" />
<glyph unicode="&#xdb;" horiz-adv-x="1472" d="M156 649v817h241v-825q0 -61 1 -92.5t7 -88.5t18.5 -89t37 -73t59.5 -63t90 -37.5t125 -15.5q54 0 98.5 8.5t77.5 21.5t58.5 36.5t42.5 45.5t29 57t18 62.5t9.5 70.5t4 72.5t0.5 76.5v833h242v-811q0 -63 -0.5 -97t-6 -98.5t-15 -103.5t-29.5 -96t-48 -92.5t-72.5 -76 t-100.5 -63t-134 -38t-172 -15.5q-120 0 -214 24.5t-154 59.5t-103 97t-63.5 112t-32 130.5t-13 126t-1.5 124.5zM409 1567l213 289h224l217 -289h-215l-113 162l-111 -162h-215z" />
<glyph unicode="&#xdc;" horiz-adv-x="1472" d="M156 649v817h241v-825q0 -61 1 -92.5t7 -88.5t18.5 -89t37 -73t59.5 -63t90 -37.5t125 -15.5q54 0 98.5 8.5t77.5 21.5t58.5 36.5t42.5 45.5t29 57t18 62.5t9.5 70.5t4 72.5t0.5 76.5v833h242v-811q0 -63 -0.5 -97t-6 -98.5t-15 -103.5t-29.5 -96t-48 -92.5t-72.5 -76 t-100.5 -63t-134 -38t-172 -15.5q-120 0 -214 24.5t-154 59.5t-103 97t-63.5 112t-32 130.5t-13 126t-1.5 124.5zM430 1635v221h213v-221h-213zM829 1635v221h213v-221h-213z" />
<glyph unicode="&#xdd;" horiz-adv-x="1366" d="M4 1466h289l313 -508q69 -111 80 -131q17 32 84 138l311 501h279l-563 -848v-618h-242v618zM547 1567l137 289h274l-251 -289h-160z" />
<glyph unicode="&#xde;" horiz-adv-x="1366" d="M156 0v1466h241v-286h275q157 0 248 -11.5t161 -52.5q64 -36 106.5 -90.5t60 -113t23 -97t5.5 -74.5q0 -83 -22.5 -157t-82 -143.5t-149.5 -106.5q-111 -45 -334 -45h-291v-289h-241zM397 496h277q33 0 55.5 0.5t63 5.5t68.5 14t61.5 27t54 43t35 64t14.5 89 q0 63 -28 118t-78 81q-48 24 -98 29.5t-158 5.5h-267v-477z" />
<glyph unicode="&#xdf;" horiz-adv-x="1259" d="M147 0v977q0 115 13 191.5t49 140.5q27 48 70 84t83.5 54t88 28.5t75.5 13t54 2.5q185 0 285 -86.5t100 -206.5q0 -58 -17.5 -108.5t-66.5 -139.5q-54 -93 -54 -139q0 -58 101 -133q143 -105 199.5 -182.5t56.5 -182.5q0 -142 -103 -240t-260 -98q-68 0 -129 23 t-102.5 59t-68.5 70t-42 66l174 94q32 -59 69 -92t89 -33q59 0 101 41.5t42 99.5q0 34 -18 65t-39 50.5t-63 52.5q-67 53 -103.5 84.5t-73 71t-52 74t-15.5 71.5t13 79.5t56 119.5q78 139 78 203t-48.5 99.5t-113.5 35.5q-33 0 -60 -7t-46.5 -17.5t-34.5 -30t-25 -35.5 t-17 -44.5t-10 -47t-5 -52t-2 -50.5v-52v-973h-228z" />
<glyph unicode="&#xe0;" horiz-adv-x="1130" d="M74 285q0 44 10.5 82t26.5 66.5t42.5 53.5t50.5 42t58.5 31.5t58.5 23t59 16.5t52 11t45 7q192 26 297 64q3 53 -2 98q-5 33 -24 57.5t-42.5 37t-52.5 20.5t-48.5 10t-35.5 2q-67 0 -112.5 -11.5t-72.5 -36.5t-41 -52t-26 -70l-213 39q14 41 28.5 72t39 69.5t59.5 66 t82 52t114.5 37t150.5 12.5q237 0 344 -104q44 -43 61.5 -105.5t17.5 -193.5l-2 -379q1 -89 13 -156t22 -91t27 -56h-232q-25 63 -36 125q-157 -150 -357 -150q-167 0 -264.5 85t-97.5 225zM291 1487h274l137 -289h-160zM307 301q0 -25 9 -50t29 -50.5t60.5 -41.5t94.5 -16 q74 0 138.5 33.5t100.5 93.5q24 41 29.5 88t5.5 164q-81 -31 -252 -59q-35 -6 -55 -10.5t-54.5 -16.5t-54.5 -28t-35.5 -43.5t-15.5 -63.5z" />
<glyph unicode="&#xe1;" horiz-adv-x="1130" d="M74 285q0 44 10.5 82t26.5 66.5t42.5 53.5t50.5 42t58.5 31.5t58.5 23t59 16.5t52 11t45 7q192 26 297 64q3 53 -2 98q-5 33 -24 57.5t-42.5 37t-52.5 20.5t-48.5 10t-35.5 2q-67 0 -112.5 -11.5t-72.5 -36.5t-41 -52t-26 -70l-213 39q14 41 28.5 72t39 69.5t59.5 66 t82 52t114.5 37t150.5 12.5q237 0 344 -104q44 -43 61.5 -105.5t17.5 -193.5l-2 -379q1 -89 13 -156t22 -91t27 -56h-232q-25 63 -36 125q-157 -150 -357 -150q-167 0 -264.5 85t-97.5 225zM307 301q0 -25 9 -50t29 -50.5t60.5 -41.5t94.5 -16q74 0 138.5 33.5t100.5 93.5 q24 41 29.5 88t5.5 164q-81 -31 -252 -59q-35 -6 -55 -10.5t-54.5 -16.5t-54.5 -28t-35.5 -43.5t-15.5 -63.5zM430 1198l137 289h274l-251 -289h-160z" />
<glyph unicode="&#xe2;" horiz-adv-x="1130" d="M74 285q0 44 10.5 82t26.5 66.5t42.5 53.5t50.5 42t58.5 31.5t58.5 23t59 16.5t52 11t45 7q192 26 297 64q3 53 -2 98q-5 33 -24 57.5t-42.5 37t-52.5 20.5t-48.5 10t-35.5 2q-67 0 -112.5 -11.5t-72.5 -36.5t-41 -52t-26 -70l-213 39q14 41 28.5 72t39 69.5t59.5 66 t82 52t114.5 37t150.5 12.5q237 0 344 -104q44 -43 61.5 -105.5t17.5 -193.5l-2 -379q1 -89 13 -156t22 -91t27 -56h-232q-25 63 -36 125q-157 -150 -357 -150q-167 0 -264.5 85t-97.5 225zM239 1198l213 289h224l217 -289h-215l-113 162l-111 -162h-215zM307 301 q0 -25 9 -50t29 -50.5t60.5 -41.5t94.5 -16q74 0 138.5 33.5t100.5 93.5q24 41 29.5 88t5.5 164q-81 -31 -252 -59q-35 -6 -55 -10.5t-54.5 -16.5t-54.5 -28t-35.5 -43.5t-15.5 -63.5z" />
<glyph unicode="&#xe3;" horiz-adv-x="1130" d="M74 285q0 44 10.5 82t26.5 66.5t42.5 53.5t50.5 42t58.5 31.5t58.5 23t59 16.5t52 11t45 7q192 26 297 64q3 53 -2 98q-5 33 -24 57.5t-42.5 37t-52.5 20.5t-48.5 10t-35.5 2q-67 0 -112.5 -11.5t-72.5 -36.5t-41 -52t-26 -70l-213 39q14 41 28.5 72t39 69.5t59.5 66 t82 52t114.5 37t150.5 12.5q237 0 344 -104q44 -43 61.5 -105.5t17.5 -193.5l-2 -379q1 -89 13 -156t22 -91t27 -56h-232q-25 63 -36 125q-157 -150 -357 -150q-167 0 -264.5 85t-97.5 225zM225 1216q-4 122 54.5 181t138.5 59q22 0 38 -2.5t51.5 -14.5t86.5 -36 q70 -31 100 -31q37 0 55.5 21t24.5 65h131q-11 -237 -191 -237q-59 0 -151 43q-62 29 -87.5 37t-47.5 8q-72 0 -72 -93h-131zM307 301q0 -25 9 -50t29 -50.5t60.5 -41.5t94.5 -16q74 0 138.5 33.5t100.5 93.5q24 41 29.5 88t5.5 164q-81 -31 -252 -59q-35 -6 -55 -10.5 t-54.5 -16.5t-54.5 -28t-35.5 -43.5t-15.5 -63.5z" />
<glyph unicode="&#xe4;" horiz-adv-x="1130" d="M74 285q0 44 10.5 82t26.5 66.5t42.5 53.5t50.5 42t58.5 31.5t58.5 23t59 16.5t52 11t45 7q192 26 297 64q3 53 -2 98q-5 33 -24 57.5t-42.5 37t-52.5 20.5t-48.5 10t-35.5 2q-67 0 -112.5 -11.5t-72.5 -36.5t-41 -52t-26 -70l-213 39q14 41 28.5 72t39 69.5t59.5 66 t82 52t114.5 37t150.5 12.5q237 0 344 -104q44 -43 61.5 -105.5t17.5 -193.5l-2 -379q1 -89 13 -156t22 -91t27 -56h-232q-25 63 -36 125q-157 -150 -357 -150q-167 0 -264.5 85t-97.5 225zM260 1266v221h213v-221h-213zM307 301q0 -25 9 -50t29 -50.5t60.5 -41.5t94.5 -16 q74 0 138.5 33.5t100.5 93.5q24 41 29.5 88t5.5 164q-81 -31 -252 -59q-35 -6 -55 -10.5t-54.5 -16.5t-54.5 -28t-35.5 -43.5t-15.5 -63.5zM659 1266v221h213v-221h-213z" />
<glyph unicode="&#xe5;" horiz-adv-x="1130" d="M74 285q0 44 10.5 82t26.5 66.5t42.5 53.5t50.5 42t58.5 31.5t58.5 23t59 16.5t52 11t45 7q192 26 297 64q3 53 -2 98q-5 33 -24 57.5t-42.5 37t-52.5 20.5t-48.5 10t-35.5 2q-67 0 -112.5 -11.5t-72.5 -36.5t-41 -52t-26 -70l-213 39q14 41 28.5 72t39 69.5t59.5 66 t82 52t114.5 37t150.5 12.5q237 0 344 -104q44 -43 61.5 -105.5t17.5 -193.5l-2 -379q1 -89 13 -156t22 -91t27 -56h-232q-25 63 -36 125q-157 -150 -357 -150q-167 0 -264.5 85t-97.5 225zM307 301q0 -25 9 -50t29 -50.5t60.5 -41.5t94.5 -16q74 0 138.5 33.5t100.5 93.5 q24 41 29.5 88t5.5 164q-81 -31 -252 -59q-35 -6 -55 -10.5t-54.5 -16.5t-54.5 -28t-35.5 -43.5t-15.5 -63.5zM379 1364q0 78 55 133t133 55t133 -55t55 -133t-55 -133.5t-133 -55.5t-133 55.5t-55 133.5zM467 1364q0 -41 29.5 -70.5t70.5 -29.5t70.5 29.5t29.5 70.5 t-29.5 70.5t-70.5 29.5t-70.5 -29.5t-29.5 -70.5z" />
<glyph unicode="&#xe6;" horiz-adv-x="1812" d="M76 285q0 55 16.5 101t39.5 77.5t60.5 57t68 40t74.5 27t66 16.5t56 10q158 28 203 37.5t104 28.5q2 23 0 49t-4.5 51t-15.5 48t-33 40.5t-56 28t-84 10.5q-60 0 -104 -11t-69 -26t-42.5 -41.5t-23.5 -45t-13 -48.5l-213 35q13 48 29.5 85.5t51 83t81.5 75.5t124 50.5 t175 20.5q72 0 131.5 -9.5t94 -21t65.5 -31.5t41.5 -30t26.5 -28q23 21 40.5 33.5t59.5 36.5t98.5 37t122.5 13q123 0 218.5 -47t154.5 -131t87.5 -195.5t23.5 -244.5h-738q0 -125 39 -193q28 -49 89 -83.5t134 -34.5q182 0 238 188l229 -35q-52 -165 -173 -249.5 t-294 -84.5q-77 0 -139.5 14.5t-109.5 43t-76.5 54t-63.5 63.5q-77 -71 -186 -123t-242 -52q-83 0 -148.5 21.5t-104.5 54t-64.5 75.5t-35 82t-9.5 77zM309 299q0 -24 9 -48.5t29 -49.5t58.5 -40.5t90.5 -15.5q84 0 152.5 43.5t96.5 114.5q21 52 21 217q-100 -36 -242 -59 q-34 -5 -57.5 -10t-56 -17.5t-52.5 -28.5t-34.5 -43.5t-14.5 -62.5zM995 629h508q-24 278 -258 278q-106 0 -173.5 -72t-76.5 -206z" />
<glyph unicode="&#xe7;" horiz-adv-x="1087" d="M88 530q0 93 18.5 174.5t58 151.5t97.5 121t142 79.5t186 28.5q35 0 72 -4.5t90.5 -18t105.5 -46t90 -80.5q67 -84 92 -209l-221 -37q-5 20 -7.5 30.5t-12 36t-19 41t-27.5 37t-39 34t-52 21.5t-68 9q-59 0 -105.5 -19t-74.5 -51.5t-48 -69t-28.5 -80t-12 -75t-3.5 -61.5 q0 -37 3.5 -72.5t12.5 -81.5t28 -84t47 -71.5t73 -52.5t102 -19t101 20t67 44.5t40 63.5t21.5 58.5t9.5 48.5l224 -35q-33 -174 -149 -275.5t-271 -106.5l-15 -35q102 6 161 -43.5t59 -120.5q0 -24 -7 -47.5t-29 -52.5t-57 -50.5t-98.5 -36t-146.5 -14.5q-94 0 -148 14 l4 117q98 -8 146 -8q10 0 21.5 0.5t38 5t46 13t35.5 26t16 41.5q0 29 -27 47t-53.5 22.5t-50.5 4.5q-35 0 -73 -10l36 131q-182 24 -291.5 169t-109.5 377z" />
<glyph unicode="&#xe8;" horiz-adv-x="1130" d="M72 524q0 84 16.5 162.5t54.5 151.5t93 127.5t138.5 87t184.5 32.5q129 0 227 -46.5t157 -131t87 -195t25 -245.5h-750q5 -140 79 -226.5t200 -86.5q56 0 99 18t69 51t39 58t24 59l229 -35q-45 -153 -161.5 -241.5t-304.5 -88.5q-119 0 -211 36.5t-146.5 93t-89 132.5 t-47 145.5t-12.5 141.5zM291 1487h274l137 -289h-160zM305 629h516q-2 34 -8 65.5t-23.5 72.5t-43.5 70t-72.5 49.5t-106.5 20.5q-63 0 -112.5 -25t-76 -58.5t-44 -77.5t-22.5 -69.5t-7 -47.5z" />
<glyph unicode="&#xe9;" horiz-adv-x="1130" d="M72 524q0 84 16.5 162.5t54.5 151.5t93 127.5t138.5 87t184.5 32.5q129 0 227 -46.5t157 -131t87 -195t25 -245.5h-750q5 -140 79 -226.5t200 -86.5q56 0 99 18t69 51t39 58t24 59l229 -35q-45 -153 -161.5 -241.5t-304.5 -88.5q-119 0 -211 36.5t-146.5 93t-89 132.5 t-47 145.5t-12.5 141.5zM305 629h516q-2 34 -8 65.5t-23.5 72.5t-43.5 70t-72.5 49.5t-106.5 20.5q-63 0 -112.5 -25t-76 -58.5t-44 -77.5t-22.5 -69.5t-7 -47.5zM430 1198l137 289h274l-251 -289h-160z" />
<glyph unicode="&#xea;" horiz-adv-x="1130" d="M72 524q0 84 16.5 162.5t54.5 151.5t93 127.5t138.5 87t184.5 32.5q129 0 227 -46.5t157 -131t87 -195t25 -245.5h-750q5 -140 79 -226.5t200 -86.5q56 0 99 18t69 51t39 58t24 59l229 -35q-45 -153 -161.5 -241.5t-304.5 -88.5q-119 0 -211 36.5t-146.5 93t-89 132.5 t-47 145.5t-12.5 141.5zM239 1198l213 289h224l217 -289h-215l-113 162l-111 -162h-215zM305 629h516q-2 34 -8 65.5t-23.5 72.5t-43.5 70t-72.5 49.5t-106.5 20.5q-63 0 -112.5 -25t-76 -58.5t-44 -77.5t-22.5 -69.5t-7 -47.5z" />
<glyph unicode="&#xeb;" horiz-adv-x="1130" d="M72 524q0 84 16.5 162.5t54.5 151.5t93 127.5t138.5 87t184.5 32.5q129 0 227 -46.5t157 -131t87 -195t25 -245.5h-750q5 -140 79 -226.5t200 -86.5q56 0 99 18t69 51t39 58t24 59l229 -35q-45 -153 -161.5 -241.5t-304.5 -88.5q-119 0 -211 36.5t-146.5 93t-89 132.5 t-47 145.5t-12.5 141.5zM260 1266v221h213v-221h-213zM305 629h516q-2 34 -8 65.5t-23.5 72.5t-43.5 70t-72.5 49.5t-106.5 20.5q-63 0 -112.5 -25t-76 -58.5t-44 -77.5t-22.5 -69.5t-7 -47.5zM659 1266v221h213v-221h-213z" />
<glyph unicode="&#xec;" horiz-adv-x="512" d="M-18 1487h274l137 -289h-160zM143 0v1061h228v-1061h-228z" />
<glyph unicode="&#xed;" horiz-adv-x="512" d="M121 1198l137 289h274l-251 -289h-160zM143 0v1061h228v-1061h-228z" />
<glyph unicode="&#xee;" horiz-adv-x="512" d="M-70 1198l213 289h224l217 -289h-215l-113 162l-111 -162h-215zM143 0v1061h228v-1061h-228z" />
<glyph unicode="&#xef;" horiz-adv-x="512" d="M-49 1266v221h213v-221h-213zM143 0v1061h228v-1061h-228zM350 1266v221h213v-221h-213z" />
<glyph unicode="&#xf0;" d="M80 520q0 109 27 200t72.5 153t105 105t123 63t129.5 20q48 0 90 -10.5t64.5 -21t58.5 -30.5l4 5q-36 66 -62 104t-82 104l-262 -122l-45 100l229 106q-62 57 -100 88t-110 82h251q64 -50 117 -96l199 96l45 -100l-158 -76q338 -364 338 -766q0 -112 -34.5 -210.5 t-99 -174.5t-165 -120t-225.5 -44q-101 0 -191.5 34.5t-162.5 100.5t-114 172t-42 238zM313 518q0 -96 25.5 -168t68 -111.5t89.5 -58t98 -18.5q121 0 204 94.5t83 267.5q0 172 -84.5 265.5t-206.5 93.5q-53 0 -100 -20t-88 -61t-65 -114t-24 -170z" />
<glyph unicode="&#xf1;" d="M141 0v1061h209v-152h4q55 84 145.5 130t194.5 46q98 0 185.5 -40.5t124.5 -110.5q25 -46 36 -95.5t13 -89t2 -128.5v-621h-228v596q0 39 -0.5 59t-4 58t-10.5 59.5t-22 50t-35.5 43.5t-53 26t-74.5 11q-69 0 -129.5 -34t-85.5 -85q-43 -86 -43 -249v-535h-228zM256 1216 q-4 122 54.5 181t138.5 59q22 0 38 -2.5t51.5 -14.5t86.5 -36q70 -31 100 -31q37 0 55.5 21t24.5 65h131q-11 -237 -191 -237q-59 0 -151 43q-62 29 -87.5 37t-47.5 8q-72 0 -72 -93h-131z" />
<glyph unicode="&#xf2;" d="M76 518q0 142 43 253.5t116.5 178.5t165.5 101t197 34q233 0 376.5 -152.5t143.5 -400.5q0 -252 -146 -404.5t-376 -152.5q-99 0 -189 32t-165.5 95t-120.5 170.5t-45 245.5zM309 530q0 -101 27 -176t71.5 -115t92 -58.5t98.5 -18.5q35 0 69.5 8.5t75 34t71 65t51 109 t20.5 158.5q0 176 -83 269t-204 93q-52 0 -100 -18.5t-92 -59t-70.5 -115.5t-26.5 -176zM322 1487h274l137 -289h-160z" />
<glyph unicode="&#xf3;" d="M76 518q0 142 43 253.5t116.5 178.5t165.5 101t197 34q233 0 376.5 -152.5t143.5 -400.5q0 -252 -146 -404.5t-376 -152.5q-99 0 -189 32t-165.5 95t-120.5 170.5t-45 245.5zM309 530q0 -101 27 -176t71.5 -115t92 -58.5t98.5 -18.5q35 0 69.5 8.5t75 34t71 65t51 109 t20.5 158.5q0 176 -83 269t-204 93q-52 0 -100 -18.5t-92 -59t-70.5 -115.5t-26.5 -176zM461 1198l137 289h274l-251 -289h-160z" />
<glyph unicode="&#xf4;" d="M76 518q0 142 43 253.5t116.5 178.5t165.5 101t197 34q233 0 376.5 -152.5t143.5 -400.5q0 -252 -146 -404.5t-376 -152.5q-99 0 -189 32t-165.5 95t-120.5 170.5t-45 245.5zM270 1198l213 289h224l217 -289h-215l-113 162l-111 -162h-215zM309 530q0 -101 27 -176 t71.5 -115t92 -58.5t98.5 -18.5q35 0 69.5 8.5t75 34t71 65t51 109t20.5 158.5q0 176 -83 269t-204 93q-52 0 -100 -18.5t-92 -59t-70.5 -115.5t-26.5 -176z" />
<glyph unicode="&#xf5;" d="M76 518q0 142 43 253.5t116.5 178.5t165.5 101t197 34q233 0 376.5 -152.5t143.5 -400.5q0 -252 -146 -404.5t-376 -152.5q-99 0 -189 32t-165.5 95t-120.5 170.5t-45 245.5zM256 1216q-4 122 54.5 181t138.5 59q22 0 38 -2.5t51.5 -14.5t86.5 -36q70 -31 100 -31 q37 0 55.5 21t24.5 65h131q-11 -237 -191 -237q-59 0 -151 43q-62 29 -87.5 37t-47.5 8q-72 0 -72 -93h-131zM309 530q0 -101 27 -176t71.5 -115t92 -58.5t98.5 -18.5q35 0 69.5 8.5t75 34t71 65t51 109t20.5 158.5q0 176 -83 269t-204 93q-52 0 -100 -18.5t-92 -59 t-70.5 -115.5t-26.5 -176z" />
<glyph unicode="&#xf6;" d="M76 518q0 142 43 253.5t116.5 178.5t165.5 101t197 34q233 0 376.5 -152.5t143.5 -400.5q0 -252 -146 -404.5t-376 -152.5q-99 0 -189 32t-165.5 95t-120.5 170.5t-45 245.5zM291 1266v221h213v-221h-213zM309 530q0 -101 27 -176t71.5 -115t92 -58.5t98.5 -18.5 q35 0 69.5 8.5t75 34t71 65t51 109t20.5 158.5q0 176 -83 269t-204 93q-52 0 -100 -18.5t-92 -59t-70.5 -115.5t-26.5 -176zM690 1266v221h213v-221h-213z" />
<glyph unicode="&#xf7;" d="M100 616v213h996v-213h-996zM477 256v242h242v-242h-242zM477 948v242h242v-242h-242z" />
<glyph unicode="&#xf8;" d="M76 526q0 253 143 406t375 153q74 0 139.5 -16.5t96 -31.5t67.5 -38l102 125l103 -82l-107 -131q123 -156 123 -381q0 -126 -40 -231t-110.5 -175.5t-166.5 -109.5t-207 -39q-161 0 -293 82l-111 -133l-100 82l111 137q-125 150 -125 383zM307 528q0 -128 39 -209 l420 521q-28 20 -40.5 28t-49 19.5t-78.5 11.5q-35 0 -70.5 -8.5t-76.5 -33t-72 -64t-51.5 -108t-20.5 -157.5zM432 217q69 -55 160 -55q127 0 209 94t82 279q0 43 -4.5 78t-9 51t-13 38t-10.5 29z" />
<glyph unicode="&#xf9;" d="M137 397v664h228v-539q0 -126 6 -181t28 -93q50 -86 166 -86q69 0 129 33.5t84 80.5q23 47 32 106.5t9 168.5v510h228v-1061h-207v158h-4q-32 -48 -73 -83.5t-77.5 -54t-76.5 -29.5t-64.5 -13.5t-48.5 -2.5q-97 0 -184.5 42t-123.5 110q-32 61 -41.5 122t-9.5 148z M322 1487h274l137 -289h-160z" />
<glyph unicode="&#xfa;" d="M137 397v664h228v-539q0 -126 6 -181t28 -93q50 -86 166 -86q69 0 129 33.5t84 80.5q23 47 32 106.5t9 168.5v510h228v-1061h-207v158h-4q-32 -48 -73 -83.5t-77.5 -54t-76.5 -29.5t-64.5 -13.5t-48.5 -2.5q-97 0 -184.5 42t-123.5 110q-32 61 -41.5 122t-9.5 148z M461 1198l137 289h274l-251 -289h-160z" />
<glyph unicode="&#xfb;" d="M137 397v664h228v-539q0 -126 6 -181t28 -93q50 -86 166 -86q69 0 129 33.5t84 80.5q23 47 32 106.5t9 168.5v510h228v-1061h-207v158h-4q-32 -48 -73 -83.5t-77.5 -54t-76.5 -29.5t-64.5 -13.5t-48.5 -2.5q-97 0 -184.5 42t-123.5 110q-32 61 -41.5 122t-9.5 148z M270 1198l213 289h224l217 -289h-215l-113 162l-111 -162h-215z" />
<glyph unicode="&#xfc;" d="M137 397v664h228v-539q0 -126 6 -181t28 -93q50 -86 166 -86q69 0 129 33.5t84 80.5q23 47 32 106.5t9 168.5v510h228v-1061h-207v158h-4q-32 -48 -73 -83.5t-77.5 -54t-76.5 -29.5t-64.5 -13.5t-48.5 -2.5q-97 0 -184.5 42t-123.5 110q-32 61 -41.5 122t-9.5 148z M291 1266v221h213v-221h-213zM690 1266v221h213v-221h-213z" />
<glyph unicode="&#xfd;" horiz-adv-x="1087" d="M31 1061h243l275 -791h4l274 791h232l-389 -1053q-29 -80 -43.5 -117.5t-39.5 -95t-43.5 -83.5t-47.5 -60t-60 -47.5t-72 -24t-92 -10.5q-87 0 -147 18l-23 193q58 -14 113 -14q86 0 130 47.5t89 183.5zM408 1198l137 289h274l-251 -289h-160z" />
<glyph unicode="&#xfe;" d="M141 -406v1872h228v-522q33 34 53.5 52t58 42.5t83.5 35.5t104 11q94 0 176 -36t143 -103.5t96 -170.5t35 -230q0 -115 -26.5 -210.5t-70.5 -161t-102.5 -111t-123 -66.5t-131.5 -21q-55 0 -98 10.5t-80 35t-58.5 43.5t-58.5 57v-527h-228zM356 520q0 -94 23.5 -166 t63 -112t84.5 -60t94 -20q58 0 104 20.5t73.5 56t46 74t26.5 85t11 77.5t3 62q0 187 -75.5 278.5t-184.5 91.5q-116 0 -192.5 -98.5t-76.5 -288.5z" />
<glyph unicode="&#xff;" horiz-adv-x="1087" d="M31 1061h243l275 -791h4l274 791h232l-389 -1053q-29 -80 -43.5 -117.5t-39.5 -95t-43.5 -83.5t-47.5 -60t-60 -47.5t-72 -24t-92 -10.5q-87 0 -147 18l-23 193q58 -14 113 -14q86 0 130 47.5t89 183.5zM238 1266v221h213v-221h-213zM637 1266v221h213v-221h-213z" />
<glyph unicode="&#x152;" horiz-adv-x="2048" d="M102 731q0 118 19 225.5t62.5 206.5t109 170.5t164 114.5t221.5 43q145 0 245 -58.5t154 -146.5h4v180h873v-206h-654v-394h601v-207h-601v-452h685v-207h-902v193h-4q-63 -116 -166.5 -167t-224.5 -51q-136 0 -242 50t-169 127t-104 181t-56 200.5t-15 197.5zM352 735 q0 -44 2.5 -86t11.5 -99t24 -106t42.5 -98.5t63.5 -84.5t90.5 -57t120.5 -22q352 0 352 570q0 176 -45 301q-85 241 -303 241q-58 0 -106.5 -16.5t-83 -41.5t-62.5 -64t-45 -75.5t-30 -85t-19 -83.5t-9 -80t-3.5 -65.5t-0.5 -47.5z" />
<glyph unicode="&#x153;" horiz-adv-x="1941" d="M84 530q0 159 59 283.5t177 198t278 73.5q138 0 237.5 -52.5t153.5 -123.5q63 86 162.5 131t212.5 45q75 0 143 -19.5t117 -52.5t84 -69.5t57 -75.5q32 -57 52 -118t27 -123t8 -87.5t1 -72.5h-745q0 -85 22.5 -148t62.5 -97.5t86.5 -51t100.5 -16.5q42 0 76.5 8t58 25.5 t39.5 33t28.5 42t18 41t13.5 40.5l225 -35q-50 -156 -162.5 -245t-292.5 -89q-69 0 -131 14.5t-100 31.5t-76.5 47t-52.5 44.5t-37 39.5q-149 -177 -391 -177q-227 0 -369.5 152.5t-142.5 402.5zM317 524q0 -171 82.5 -266.5t200.5 -95.5q121 0 202 97.5t81 277.5 q0 160 -75 261t-208 101q-136 0 -209.5 -107t-73.5 -268zM1114 629h512q-1 17 -3 30.5t-9 44.5t-17 54.5t-30 53t-45 49t-64.5 33t-87.5 13.5q-23 0 -46 -3t-60.5 -19t-66 -43.5t-52.5 -82.5t-31 -130z" />
<glyph unicode="&#x178;" horiz-adv-x="1366" d="M4 1466h289l313 -508q69 -111 80 -131q17 32 84 138l311 501h279l-563 -848v-618h-242v618zM377 1635v221h213v-221h-213zM776 1635v221h213v-221h-213z" />
<glyph unicode="&#x2c6;" horiz-adv-x="681" d="M14 1194l213 289h224l217 -289h-215l-113 162l-111 -162h-215z" />
<glyph unicode="&#x2dc;" horiz-adv-x="681" d="M0 1212q-4 122 54.5 181t138.5 59q22 0 38 -2.5t51.5 -14.5t86.5 -36q70 -31 100 -31q37 0 55.5 21t24.5 65h131q-11 -237 -191 -237q-59 0 -151 43q-62 29 -87.5 37t-47.5 8q-72 0 -72 -93h-131z" />
<glyph unicode="&#x2000;" horiz-adv-x="960" />
<glyph unicode="&#x2001;" horiz-adv-x="1921" />
<glyph unicode="&#x2002;" horiz-adv-x="960" />
<glyph unicode="&#x2003;" horiz-adv-x="1921" />
<glyph unicode="&#x2004;" horiz-adv-x="640" />
<glyph unicode="&#x2005;" horiz-adv-x="480" />
<glyph unicode="&#x2006;" horiz-adv-x="320" />
<glyph unicode="&#x2007;" horiz-adv-x="320" />
<glyph unicode="&#x2008;" horiz-adv-x="240" />
<glyph unicode="&#x2009;" horiz-adv-x="384" />
<glyph unicode="&#x200a;" horiz-adv-x="106" />
<glyph unicode="&#x2010;" horiz-adv-x="681" d="M66 418v227h550v-227h-550z" />
<glyph unicode="&#x2011;" horiz-adv-x="681" d="M66 418v227h550v-227h-550z" />
<glyph unicode="&#x2012;" horiz-adv-x="681" d="M66 418v227h550v-227h-550z" />
<glyph unicode="&#x2013;" horiz-adv-x="1024" d="M-12 420v184h1048v-184h-1048z" />
<glyph unicode="&#x2014;" horiz-adv-x="2048" d="M-12 420v184h2072v-184h-2072z" />
<glyph unicode="&#x2018;" horiz-adv-x="512" d="M141 950v183q0 34 0.5 53t4.5 54t11 57.5t22 53.5t36.5 53.5t54.5 46t76 40.5l49 -92q-70 -26 -101 -73.5t-32 -131.5h113v-244h-234z" />
<glyph unicode="&#x2019;" horiz-adv-x="512" d="M117 1018q67 25 98.5 72t34.5 133h-113v243h234v-182q0 -35 -0.5 -53.5t-4.5 -54t-11 -58t-22 -53.5t-36.5 -53t-54.5 -45.5t-76 -40.5z" />
<glyph unicode="&#x201a;" horiz-adv-x="512" d="M113 -213q65 27 98.5 72t36.5 141h-117v242h240v-205q0 -36 -1.5 -59t-7 -59.5t-19 -64.5t-35 -59t-58 -56.5t-84.5 -45.5z" />
<glyph unicode="&#x201c;" horiz-adv-x="854" d="M111 950v183q0 35 0.5 53t4 53.5t11 57.5t22.5 53.5t36 54t54 46t76 40.5l50 -92q-70 -27 -101.5 -74t-32.5 -131h113v-244h-233zM496 950v183q0 35 0.5 53.5t4 54t11 57.5t22.5 53.5t36 53.5t54 45.5t76 40.5l50 -92q-68 -25 -99.5 -72t-34.5 -133h113v-244h-233z" />
<glyph unicode="&#x201d;" horiz-adv-x="854" d="M104 1018q68 25 99.5 72t34.5 133h-113v243h233v-182q0 -35 -0.5 -53.5t-4 -54t-11 -57.5t-22.5 -53.5t-36 -53.5t-54 -45.5t-76 -40.5zM489 1018q70 27 101.5 74t32.5 131h-113v243h233v-182q0 -35 -0.5 -53t-4 -53.5t-11 -57.5t-22.5 -53.5t-36 -54t-54 -46t-76 -40.5z " />
<glyph unicode="&#x201e;" horiz-adv-x="854" d="M96 -205q67 25 98.5 72t34.5 133h-112v244h233v-183q0 -35 -0.5 -53.5t-4.5 -54t-11 -58t-22 -53.5t-36.5 -53t-54.5 -45.5t-76 -40.5zM481 -205q70 26 101 73.5t32 131.5h-112v244h233v-183q0 -34 -0.5 -53t-4.5 -54t-11 -57.5t-22 -53.5t-36.5 -53.5t-54.5 -46 t-76 -40.5z" />
<glyph unicode="&#x2022;" horiz-adv-x="724" d="M88 721q0 114 80 193t194 79q113 0 193 -79t80 -193t-80 -194.5t-193 -80.5q-114 0 -194 80.5t-80 194.5z" />
<glyph unicode="&#x2026;" horiz-adv-x="2048" d="M221 0v242h242v-242h-242zM903 0v242h242v-242h-242zM1585 0v242h242v-242h-242z" />
<glyph unicode="&#x202f;" horiz-adv-x="384" />
<glyph unicode="&#x2039;" horiz-adv-x="747" d="M121 528l315 455h182l-262 -455l262 -456h-182z" />
<glyph unicode="&#x203a;" horiz-adv-x="747" d="M129 72l262 454l-262 457h182l316 -457l-316 -454h-182z" />
<glyph unicode="&#x205f;" horiz-adv-x="480" />
<glyph unicode="&#x2122;" horiz-adv-x="2048" d="M221 1335v131h666v-131h-256v-686h-150v686h-260zM981 649v817h227l178 -610h5l174 610h225v-817h-139v670h-4l-191 -670h-137l-195 674h-4v-674h-139z" />
<glyph unicode="&#x25fc;" horiz-adv-x="1064" d="M0 0v1065h1065v-1065h-1065z" />
<glyph unicode="&#xfb01;" horiz-adv-x="1130" d="M29 883v178h155v98q0 33 1 54.5t7 60t17.5 64.5t34.5 57.5t55 50.5t82.5 32t114.5 13q88 0 198 -27l-32 -176q-55 12 -121 12q-27 0 -48 -5.5t-34 -12.5t-22.5 -21t-14.5 -24.5t-7 -29t-2.5 -29t-0.5 -29.5v-88h209v-178h-209v-883h-228v883h-155zM760 0v1061h227v-1061 h-227zM760 1235v231h227v-231h-227z" />
<glyph unicode="&#xfb02;" horiz-adv-x="1130" d="M29 883v178h155v98q0 33 1 54.5t7 60t17.5 64.5t34.5 57.5t55 50.5t82.5 32t114.5 13q88 0 198 -27l-32 -176q-55 12 -121 12q-27 0 -48 -5.5t-34 -12.5t-22.5 -21t-14.5 -24.5t-7 -29t-2.5 -29t-0.5 -29.5v-88h209v-178h-209v-883h-228v883h-155zM760 0v1466h227v-1466 h-227z" />
</font>
</defs>
</svg>
