<?xml version="1.0" encoding="utf-8"?>
<!-- Generator: Adobe Illustrator 15.1.0, SVG Export Plug-In . SVG Version: 6.00 Build 0)  -->
<!DOCTYPE svg PUBLIC "-//W3C//DTD SVG 1.1//EN" "http://www.w3.org/Graphics/SVG/1.1/DTD/svg11.dtd">
<svg version="1.1" id="Layer_1" xmlns="http://www.w3.org/2000/svg" xmlns:xlink="http://www.w3.org/1999/xlink" x="0px" y="0px"
	 width="14px" height="38px" viewBox="0 0 14 38" enable-background="new 0 0 14 38" xml:space="preserve">
<linearGradient id="SVGID_1_" gradientUnits="userSpaceOnUse" x1="5.5806" y1="21.0381" x2="5.5806" y2="35.6628">
	<stop  offset="0" style="stop-color:#DDDFE0"/>
	<stop  offset="0.978" style="stop-color:#FFFFFF"/>
</linearGradient>
<path fill="url(#SVGID_1_)" d="M0.87,33.813c0,0-0.963,1.406-0.733,2.648c0.147,0.799,0.563,1.287,0.826,1.523
	c0.107,0.092,0.212,0.068,0.212,0.068s0.084-0.006,0.151-0.113c0.037-0.063,2.001-3.291,3.939-6.477
	c-0.512-0.84-1.019-1.672-1.482-2.436L0.87,33.813z M4.659,24.563c0.273-0.4,0.433-0.887,0.433-1.408
	c0-1.381-1.12-2.502-2.502-2.502s-2.502,1.121-2.502,2.502c0,1.303,0.995,2.373,2.267,2.49c1.314,2.162,7.412,12.184,7.479,12.295
	c0.067,0.107,0.151,0.113,0.151,0.113s0.104,0.023,0.212-0.068c0.263-0.236,0.679-0.725,0.827-1.523
	c0.229-1.242-0.734-2.648-0.734-2.648L4.659,24.563z M4.923,28.424c0-0.363,0.295-0.658,0.657-0.658s0.656,0.295,0.656,0.658
	c0,0.361-0.294,0.656-0.656,0.656S4.923,28.785,4.923,28.424z M4.007,23.154c0,0.783-0.634,1.416-1.417,1.416
	c-0.782,0-1.416-0.633-1.416-1.416c0-0.781,0.634-1.416,1.416-1.416C3.373,21.738,4.007,22.373,4.007,23.154z M11.073,23.154
	c0-1.381-1.121-2.502-2.503-2.502s-2.503,1.121-2.503,2.502c0,0.521,0.16,1.008,0.434,1.408l-0.596,0.98l1.482,2.434
	c0.625-1.027,1.134-1.863,1.418-2.332C10.077,25.527,11.073,24.457,11.073,23.154z M9.986,23.154c0,0.783-0.634,1.416-1.416,1.416
	s-1.417-0.633-1.417-1.416c0-0.781,0.635-1.416,1.417-1.416S9.986,22.373,9.986,23.154z"/>
<radialGradient id="SVGID_2_" cx="4.1748" cy="0.1084" r="17.4773" gradientUnits="userSpaceOnUse">
	<stop  offset="0" style="stop-color:#555658"/>
	<stop  offset="1" style="stop-color:#383738"/>
</radialGradient>
<path fill="url(#SVGID_2_)" d="M6.783,9.134C7.247,8.37,7.754,7.538,8.266,6.697C6.327,3.512,4.363,0.285,4.326,0.222
	C4.259,0.113,4.175,0.108,4.175,0.108S4.07,0.084,3.963,0.177C3.7,0.414,3.284,0.902,3.137,1.7C2.907,2.943,3.87,4.349,3.87,4.349
	L6.783,9.134z M13.29,4.349c0,0,0.963-1.406,0.734-2.649c-0.148-0.798-0.564-1.286-0.827-1.523
	c-0.107-0.093-0.212-0.068-0.212-0.068s-0.084,0.005-0.151,0.114c-0.067,0.111-6.165,10.133-7.479,12.293
	c-1.271,0.119-2.267,1.188-2.267,2.491c0,1.382,1.12,2.501,2.502,2.501s2.502-1.119,2.502-2.501c0-0.522-0.159-1.006-0.433-1.408
	L13.29,4.349z M8.58,9.082c0.362,0,0.656,0.294,0.656,0.657c0,0.362-0.294,0.656-0.656,0.656s-0.657-0.294-0.657-0.656
	C7.923,9.375,8.218,9.082,8.58,9.082z M5.59,16.422c-0.782,0-1.416-0.633-1.416-1.416c0-0.783,0.634-1.416,1.416-1.416
	c0.783,0,1.417,0.633,1.417,1.416C7.007,15.789,6.373,16.422,5.59,16.422z M11.806,12.516c-0.284-0.467-0.793-1.305-1.418-2.331
	l-1.482,2.435l0.596,0.979C9.228,14,9.067,14.484,9.067,15.006c0,1.382,1.121,2.501,2.503,2.501s2.503-1.119,2.503-2.501
	C14.073,13.704,13.077,12.635,11.806,12.516z M11.57,16.422c-0.782,0-1.417-0.633-1.417-1.416c0-0.783,0.635-1.416,1.417-1.416
	s1.416,0.633,1.416,1.416C12.986,15.789,12.353,16.422,11.57,16.422z"/>
</svg>
