<?xml version="1.0" encoding="utf-8"?>
<!-- Generator: Adobe Illustrator 15.1.0, SVG Export Plug-In . SVG Version: 6.00 Build 0)  -->
<!DOCTYPE svg PUBLIC "-//W3C//DTD SVG 1.1//EN" "http://www.w3.org/Graphics/SVG/1.1/DTD/svg11.dtd">
<svg version="1.1" id="Layer_1" xmlns="http://www.w3.org/2000/svg" xmlns:xlink="http://www.w3.org/1999/xlink" x="0px" y="0px"
	 width="170px" height="38px" viewBox="0 0 170 38" enable-background="new 0 0 170 38" xml:space="preserve">
<g display="none" opacity="0.35">
	<path display="inline" fill="#F15D34" d="M1.803,17.938h2.134v-3.575c0.148,0.055,0.287,0.102,0.417,0.139
		c0.129,0.037,0.35,0.056,0.665,0.056c0.276,0,0.517-0.033,0.721-0.097c0.204-0.065,0.397-0.17,0.582-0.319v3.796h3.936v0.388H6.32
		v9.063c0,0.518,0.051,0.938,0.152,1.262c0.102,0.322,0.237,0.572,0.402,0.746c0.167,0.179,0.347,0.293,0.541,0.348
		c0.194,0.057,0.383,0.085,0.568,0.085c0.646,0,1.167-0.236,1.565-0.708c0.398-0.471,0.651-1.012,0.761-1.622l0.389,0.14
		c-0.056,0.239-0.138,0.508-0.249,0.805c-0.112,0.296-0.281,0.576-0.513,0.845c-0.231,0.269-0.532,0.489-0.901,0.666
		c-0.369,0.176-0.83,0.262-1.385,0.262c-1.387,0-2.352-0.266-2.896-0.803c-0.545-0.534-0.818-1.293-0.818-2.271v-8.814H1.803V17.938
		z"/>
	<path display="inline" fill="#F15D34" d="M11.808,23.896c0-0.904,0.199-1.746,0.596-2.521c0.396-0.775,0.905-1.445,1.524-2.009
		c0.617-0.564,1.312-1.002,2.078-1.316c0.766-0.314,1.52-0.472,2.26-0.472c0.737,0,1.49,0.158,2.257,0.472
		c0.767,0.314,1.459,0.752,2.079,1.316c0.618,0.563,1.127,1.233,1.524,2.009c0.396,0.775,0.595,1.617,0.595,2.521
		c0,0.867-0.185,1.688-0.553,2.453c-0.37,0.768-0.855,1.438-1.456,2.008c-0.6,0.572-1.288,1.026-2.063,1.357
		c-0.776,0.335-1.571,0.499-2.383,0.499c-0.815,0-1.609-0.164-2.384-0.499c-0.777-0.331-1.465-0.785-2.064-1.357
		c-0.602-0.57-1.087-1.24-1.455-2.008C11.993,25.584,11.808,24.766,11.808,23.896z M14.579,23.896c0,1.313,0.102,2.355,0.305,3.133
		c0.204,0.775,0.472,1.371,0.804,1.787c0.333,0.416,0.722,0.688,1.165,0.816s0.915,0.195,1.415,0.195
		c0.498,0,0.968-0.066,1.412-0.195c0.444-0.129,0.832-0.4,1.165-0.816s0.6-1.012,0.804-1.787c0.202-0.776,0.305-1.82,0.305-3.133
		c0-1.107-0.074-2.037-0.222-2.785c-0.149-0.748-0.374-1.358-0.679-1.829c-0.305-0.471-0.689-0.809-1.15-1.012
		c-0.462-0.204-1.007-0.305-1.634-0.305c-0.629,0-1.175,0.101-1.635,0.305c-0.464,0.203-0.847,0.541-1.152,1.012
		c-0.305,0.47-0.53,1.081-0.679,1.829C14.653,21.859,14.579,22.789,14.579,23.896z"/>
	<path display="inline" fill="#F15D34" d="M39.217,29.523c-0.241,0.183-0.527,0.347-0.859,0.484
		c-0.332,0.137-0.739,0.206-1.219,0.206c-0.888,0-1.528-0.188-1.927-0.567c-0.396-0.377-0.668-0.908-0.817-1.592H34.34
		c-0.074,0.166-0.176,0.373-0.305,0.622s-0.329,0.49-0.597,0.72c-0.267,0.23-0.623,0.428-1.066,0.584
		c-0.443,0.154-1.008,0.233-1.69,0.233c-0.775,0-1.396-0.086-1.857-0.262c-0.461-0.177-0.822-0.394-1.081-0.65
		c-0.258-0.259-0.43-0.551-0.512-0.874c-0.084-0.324-0.125-0.623-0.125-0.9c0-0.646,0.129-1.163,0.388-1.553
		c0.259-0.387,0.596-0.697,1.012-0.928s0.878-0.422,1.386-0.566c0.508-0.148,1.021-0.307,1.539-0.474
		c0.609-0.202,1.112-0.379,1.51-0.524c0.398-0.149,0.708-0.33,0.928-0.541c0.222-0.213,0.375-0.48,0.458-0.805
		c0.083-0.322,0.125-0.763,0.125-1.316c0-0.442-0.028-0.84-0.083-1.191c-0.056-0.351-0.157-0.652-0.305-0.901
		c-0.149-0.25-0.361-0.438-0.638-0.568c-0.277-0.128-0.648-0.193-1.109-0.193c-0.61,0-1.113,0.107-1.51,0.319
		c-0.398,0.212-0.596,0.56-0.596,1.039c0,0.313,0.028,0.624,0.083,0.929c0.055,0.305,0.083,0.532,0.083,0.678
		c0,0.26-0.092,0.477-0.276,0.651c-0.186,0.176-0.453,0.265-0.805,0.265c-0.609,0-0.988-0.109-1.136-0.332
		c-0.147-0.223-0.222-0.51-0.222-0.859c0-0.405,0.093-0.795,0.278-1.164c0.184-0.37,0.458-0.698,0.817-0.984
		c0.359-0.287,0.812-0.513,1.358-0.68c0.544-0.166,1.168-0.249,1.871-0.249c0.849,0,1.561,0.106,2.133,0.318
		c0.573,0.213,1.034,0.499,1.385,0.86c0.353,0.361,0.601,0.767,0.749,1.22c0.149,0.453,0.222,0.928,0.222,1.426v6.902
		c0,0.535,0.083,0.896,0.25,1.08c0.166,0.186,0.406,0.276,0.72,0.276c0.204,0,0.416-0.037,0.638-0.11
		c0.222-0.072,0.434-0.186,0.638-0.332L39.217,29.523z M34.368,23.039h-0.056c-0.036,0.238-0.342,0.479-0.915,0.719l-2.078,0.832
		c-0.591,0.241-1.044,0.578-1.358,1.012c-0.313,0.436-0.471,0.976-0.471,1.621c0,0.276,0.028,0.564,0.083,0.859
		c0.055,0.296,0.157,0.559,0.305,0.789c0.147,0.232,0.356,0.422,0.623,0.568c0.268,0.147,0.614,0.222,1.041,0.222
		c0.609,0,1.104-0.129,1.483-0.388c0.378-0.258,0.665-0.582,0.858-0.971c0.194-0.388,0.323-0.807,0.388-1.261
		c0.064-0.453,0.097-0.862,0.097-1.233V23.039z"/>
	<path display="inline" fill="#F15D34" d="M48.307,9.846h4.518v19.593h2.134v0.391h-4.461v-2.412h-0.056
		c-0.075,0.223-0.184,0.489-0.333,0.805c-0.147,0.314-0.364,0.618-0.651,0.913c-0.285,0.298-0.646,0.55-1.08,0.763
		c-0.436,0.213-0.966,0.317-1.593,0.317c-0.813,0-1.585-0.174-2.315-0.524c-0.73-0.353-1.372-0.821-1.926-1.416
		c-0.555-0.59-0.994-1.268-1.316-2.035c-0.324-0.768-0.486-1.574-0.486-2.424c0-0.832,0.158-1.627,0.471-2.383
		c0.314-0.76,0.74-1.42,1.275-1.983c0.535-0.563,1.155-1.015,1.857-1.357c0.701-0.342,1.45-0.513,2.244-0.513
		c1.017,0,1.839,0.249,2.466,0.748c0.629,0.5,1.072,1.108,1.332,1.83h0.055v-9.922h-2.134L48.307,9.846L48.307,9.846z
		 M43.513,23.482c0,0.959,0.026,1.832,0.083,2.619c0.055,0.784,0.194,1.453,0.415,2.008c0.222,0.555,0.555,0.979,0.998,1.274
		c0.445,0.296,1.045,0.444,1.802,0.444c0.775,0,1.4-0.168,1.871-0.501c0.471-0.331,0.835-0.761,1.095-1.287
		c0.259-0.526,0.434-1.112,0.527-1.761c0.091-0.646,0.138-1.273,0.138-1.885c0-0.721-0.015-1.345-0.042-1.871
		c-0.028-0.525-0.079-0.992-0.152-1.398c-0.075-0.407-0.176-0.758-0.305-1.055c-0.129-0.295-0.287-0.572-0.471-0.832
		c-0.276-0.369-0.638-0.673-1.08-0.915c-0.444-0.239-1.009-0.36-1.691-0.36c-0.646,0-1.178,0.129-1.594,0.388
		c-0.415,0.259-0.738,0.628-0.969,1.109c-0.23,0.48-0.393,1.059-0.485,1.73C43.559,21.87,43.513,22.633,43.513,23.482z"/>
	<g display="inline">
		<path fill="#404040" d="M57.259,25.949h0.305c0.13,0.443,0.296,0.892,0.499,1.345c0.202,0.452,0.476,0.867,0.817,1.246
			c0.343,0.379,0.762,0.688,1.262,0.929c0.498,0.241,1.099,0.36,1.801,0.36c0.592,0,1.119-0.183,1.58-0.542
			c0.462-0.357,0.692-0.946,0.692-1.76c0-0.7-0.18-1.195-0.539-1.481c-0.361-0.286-0.782-0.514-1.261-0.678l-2.164-0.749
			c-0.277-0.094-0.577-0.209-0.898-0.348c-0.325-0.139-0.625-0.334-0.902-0.582c-0.277-0.25-0.503-0.568-0.68-0.957
			c-0.174-0.387-0.263-0.885-0.263-1.496c0-0.519,0.103-0.997,0.305-1.441c0.205-0.443,0.48-0.832,0.832-1.164
			c0.35-0.332,0.772-0.59,1.262-0.775c0.49-0.185,1.021-0.278,1.594-0.278c0.406,0,0.732,0.034,0.983,0.097
			c0.249,0.066,0.465,0.13,0.651,0.195c0.184,0.065,0.35,0.13,0.5,0.194c0.147,0.065,0.322,0.096,0.525,0.096
			c0.205,0,0.351-0.073,0.445-0.221h0.304v3.159h-0.304c-0.13-0.406-0.278-0.8-0.445-1.178s-0.365-0.716-0.594-1.012
			c-0.231-0.295-0.52-0.526-0.86-0.693c-0.343-0.166-0.744-0.25-1.205-0.25c-0.888,0-1.577,0.2-2.066,0.597
			c-0.489,0.397-0.733,0.928-0.733,1.594c0,0.591,0.207,1.037,0.623,1.344c0.417,0.305,1.031,0.586,1.844,0.846l2.022,0.665
			c0.87,0.294,1.581,0.7,2.134,1.22c0.555,0.519,0.832,1.199,0.832,2.052c0,0.497-0.096,0.987-0.291,1.469
			c-0.194,0.479-0.481,0.899-0.859,1.261c-0.378,0.358-0.841,0.649-1.387,0.873c-0.543,0.221-1.167,0.332-1.87,0.332
			c-0.407,0-0.78-0.042-1.122-0.125c-0.343-0.083-0.657-0.17-0.943-0.263s-0.549-0.183-0.789-0.265
			c-0.241-0.082-0.462-0.123-0.665-0.123c-0.205,0-0.352,0.041-0.444,0.123c-0.092,0.082-0.166,0.172-0.222,0.265H57.26
			L57.259,25.949L57.259,25.949z"/>
		<path fill="#404040" d="M76.521,37.2h2.134v-9.673H78.6c-0.055,0.186-0.157,0.431-0.305,0.734c-0.149,0.307-0.359,0.6-0.638,0.887
			c-0.277,0.287-0.633,0.537-1.067,0.75c-0.433,0.211-0.964,0.317-1.592,0.317c-0.813,0-1.584-0.176-2.315-0.526
			c-0.73-0.353-1.372-0.821-1.925-1.416c-0.555-0.59-0.994-1.268-1.317-2.032c-0.323-0.771-0.485-1.577-0.485-2.427
			c0-0.832,0.157-1.625,0.472-2.383c0.315-0.76,0.739-1.418,1.275-1.982c0.535-0.564,1.155-1.016,1.857-1.358
			c0.703-0.341,1.45-0.513,2.246-0.513c1.016,0,1.842,0.249,2.479,0.749c0.638,0.499,1.095,1.145,1.373,1.938h0.055v-2.327h4.462
			v0.388h-2.134V37.2h2.134v0.389h-6.652V37.2H76.521z M71.728,23.482c0,0.959,0.027,1.834,0.083,2.619
			c0.055,0.784,0.193,1.453,0.414,2.008c0.222,0.557,0.555,0.979,0.997,1.274c0.445,0.296,1.045,0.444,1.802,0.444
			c0.777,0,1.4-0.168,1.871-0.501c0.471-0.331,0.837-0.761,1.096-1.287c0.258-0.526,0.434-1.112,0.526-1.759
			c0.092-0.647,0.139-1.275,0.139-1.887c0-0.721-0.014-1.344-0.042-1.871c-0.029-0.525-0.081-0.992-0.153-1.398
			c-0.074-0.407-0.176-0.758-0.304-1.052c-0.129-0.296-0.288-0.573-0.47-0.832c-0.278-0.37-0.639-0.675-1.082-0.915
			c-0.443-0.24-1.007-0.361-1.69-0.361c-0.647,0-1.178,0.13-1.593,0.389c-0.417,0.259-0.74,0.628-0.972,1.108
			c-0.23,0.481-0.392,1.06-0.484,1.731C71.773,21.87,71.728,22.633,71.728,23.482z"/>
		<path fill="#404040" d="M99.719,29.829h-4.463v-2.8h-0.057c-0.164,0.369-0.363,0.742-0.596,1.121
			c-0.23,0.381-0.519,0.722-0.857,1.026c-0.344,0.306-0.742,0.554-1.193,0.747c-0.453,0.194-0.982,0.292-1.592,0.292
			c-0.74,0-1.34-0.083-1.803-0.248c-0.463-0.168-0.822-0.343-1.08-0.526c-0.129-0.094-0.273-0.209-0.43-0.348
			s-0.301-0.328-0.428-0.568c-0.134-0.241-0.242-0.551-0.335-0.93c-0.092-0.378-0.139-0.845-0.139-1.397v-7.871h-2.135v-0.388h4.518
			v8.51c0,0.479,0.031,0.922,0.099,1.326c0.063,0.408,0.188,0.765,0.373,1.07c0.184,0.303,0.426,0.543,0.723,0.719
			c0.293,0.177,0.682,0.265,1.162,0.265c0.404,0,0.828-0.119,1.262-0.36c0.434-0.24,0.83-0.58,1.191-1.025
			c0.36-0.442,0.66-0.976,0.899-1.594c0.24-0.617,0.359-1.316,0.359-2.095v-6.428h-2.105v-0.388h4.49v11.502h2.135L99.719,29.829
			L99.719,29.829z"/>
		<path fill="#404040" d="M113.631,29.523c-0.24,0.187-0.527,0.347-0.859,0.484c-0.332,0.141-0.739,0.208-1.219,0.208
			c-0.887,0-1.529-0.19-1.928-0.569c-0.396-0.377-0.668-0.908-0.816-1.592h-0.057c-0.072,0.166-0.174,0.373-0.303,0.623
			c-0.133,0.25-0.33,0.489-0.596,0.721c-0.271,0.229-0.625,0.426-1.07,0.582c-0.443,0.158-1.006,0.235-1.689,0.235
			c-0.775,0-1.395-0.088-1.855-0.264c-0.463-0.177-0.821-0.394-1.081-0.65c-0.259-0.259-0.431-0.551-0.513-0.874
			c-0.084-0.322-0.125-0.623-0.125-0.9c0-0.646,0.129-1.163,0.39-1.551c0.258-0.389,0.596-0.699,1.01-0.93
			c0.418-0.23,0.879-0.421,1.388-0.566c0.508-0.147,1.021-0.307,1.539-0.473c0.608-0.203,1.11-0.38,1.51-0.525
			c0.397-0.149,0.707-0.33,0.928-0.541s0.375-0.48,0.459-0.803c0.082-0.324,0.125-0.764,0.125-1.318c0-0.442-0.029-0.84-0.084-1.191
			c-0.057-0.351-0.158-0.651-0.307-0.899c-0.146-0.25-0.359-0.44-0.638-0.57c-0.276-0.128-0.646-0.194-1.106-0.194
			c-0.611,0-1.115,0.107-1.512,0.319s-0.597,0.56-0.597,1.04c0,0.313,0.026,0.624,0.082,0.929c0.058,0.303,0.084,0.531,0.084,0.678
			c0,0.258-0.095,0.478-0.276,0.652c-0.185,0.177-0.453,0.264-0.804,0.264c-0.608,0-0.987-0.111-1.135-0.332
			c-0.15-0.224-0.224-0.511-0.224-0.861c0-0.404,0.092-0.793,0.275-1.162c0.186-0.371,0.459-0.699,0.818-0.985
			c0.361-0.286,0.813-0.513,1.356-0.68c0.548-0.166,1.171-0.249,1.871-0.249c0.853,0,1.562,0.107,2.136,0.32
			c0.571,0.212,1.034,0.499,1.385,0.858c0.35,0.361,0.602,0.768,0.748,1.221c0.147,0.453,0.223,0.928,0.223,1.426v6.9
			c0,0.537,0.082,0.896,0.25,1.081c0.166,0.187,0.406,0.276,0.721,0.276c0.203,0,0.414-0.035,0.637-0.108
			c0.224-0.075,0.433-0.186,0.64-0.334L113.631,29.523z M108.781,23.039h-0.057c-0.035,0.24-0.343,0.479-0.912,0.719l-2.078,0.833
			c-0.594,0.24-1.045,0.578-1.359,1.011c-0.316,0.436-0.473,0.976-0.473,1.621c0,0.277,0.027,0.564,0.084,0.859
			c0.055,0.296,0.154,0.559,0.307,0.79c0.146,0.231,0.354,0.421,0.621,0.569c0.268,0.146,0.613,0.22,1.039,0.22
			c0.609,0,1.105-0.129,1.484-0.388c0.377-0.258,0.664-0.582,0.856-0.971c0.194-0.388,0.324-0.807,0.388-1.261
			c0.065-0.453,0.1-0.862,0.1-1.233V23.039z"/>
		<path fill="#404040" d="M114.461,29.441h2.135V18.327h-2.135v-0.388h4.463v2.799h0.057c0.072-0.277,0.191-0.592,0.359-0.943
			c0.166-0.35,0.396-0.688,0.693-1.011c0.295-0.323,0.65-0.595,1.066-0.818c0.416-0.222,0.918-0.333,1.51-0.333
			c0.426,0,0.795,0.069,1.106,0.208c0.313,0.139,0.572,0.314,0.775,0.527c0.204,0.212,0.354,0.457,0.444,0.734
			c0.092,0.277,0.14,0.554,0.14,0.832c0,0.61-0.14,1.017-0.416,1.219c-0.277,0.205-0.603,0.307-0.97,0.307
			c-0.813,0-1.221-0.26-1.221-0.775c0-0.166,0.02-0.301,0.055-0.401c0.037-0.103,0.078-0.204,0.125-0.306
			c0.047-0.101,0.088-0.217,0.125-0.347c0.037-0.128,0.056-0.314,0.056-0.554c0-0.592-0.322-0.886-0.97-0.886
			c-0.295,0-0.608,0.11-0.94,0.333c-0.334,0.221-0.644,0.544-0.931,0.97c-0.284,0.425-0.526,0.937-0.721,1.536
			c-0.19,0.602-0.289,1.289-0.289,2.066v6.348h2.41v0.388h-6.93v-0.39H114.461z"/>
		<path fill="#404040" d="M129.037,22.955c0,0.186-0.002,0.374-0.012,0.568c-0.01,0.193-0.014,0.438-0.014,0.733
			c0,0.61,0.034,1.247,0.11,1.913c0.071,0.663,0.233,1.266,0.483,1.801s0.619,0.979,1.109,1.331
			c0.488,0.351,1.141,0.526,1.953,0.526s1.482-0.119,2.01-0.36c0.525-0.239,0.941-0.53,1.248-0.872
			c0.305-0.344,0.529-0.689,0.678-1.041c0.149-0.351,0.256-0.637,0.332-0.857l0.416,0.082c-0.057,0.203-0.162,0.494-0.317,0.873
			c-0.158,0.379-0.406,0.757-0.75,1.138c-0.343,0.378-0.802,0.711-1.386,0.997c-0.582,0.286-1.334,0.43-2.258,0.43
			c-0.926,0-1.779-0.148-2.563-0.443c-0.785-0.295-1.466-0.719-2.037-1.273c-0.574-0.557-1.017-1.214-1.33-1.982
			c-0.313-0.767-0.472-1.619-0.472-2.563c0-0.813,0.16-1.603,0.484-2.369c0.322-0.769,0.769-1.446,1.332-2.038
			c0.563-0.59,1.223-1.065,1.98-1.427c0.758-0.361,1.57-0.541,2.438-0.541c0.521,0,1.074,0.093,1.664,0.278
			c0.592,0.186,1.141,0.485,1.648,0.9c0.508,0.416,0.934,0.966,1.275,1.651c0.34,0.682,0.514,1.531,0.514,2.548L129.037,22.955
			L129.037,22.955z M134.748,22.566c0.037-0.258,0.055-0.5,0.055-0.719c0-0.223,0-0.453,0-0.695c0-0.627-0.061-1.145-0.18-1.551
			c-0.119-0.406-0.285-0.729-0.498-0.971c-0.213-0.239-0.471-0.411-0.777-0.512c-0.305-0.102-0.633-0.153-0.981-0.153
			c-0.63,0-1.146,0.125-1.554,0.375c-0.405,0.249-0.729,0.587-0.971,1.012c-0.238,0.424-0.42,0.913-0.541,1.469
			c-0.119,0.555-0.197,1.136-0.234,1.746h5.682V22.566z"/>
	</g>
	<path display="inline" fill="#F15D34" d="M170,30.18h-29.52V0.66H170V30.18z M164.156,6.712h-17.834v17.834h17.834V6.712z"/>
</g>
<g>
	<path fill="#F15D34" d="M1.851,17.825h2.135v-3.533c0.146,0.054,0.286,0.099,0.416,0.137c0.128,0.037,0.35,0.057,0.664,0.057
		c0.277,0,0.518-0.035,0.721-0.097c0.204-0.065,0.397-0.17,0.582-0.317v3.753h3.937v0.384H6.369v8.964
		c0,0.508,0.051,0.922,0.154,1.246c0.1,0.316,0.235,0.564,0.401,0.738c0.167,0.174,0.347,0.287,0.541,0.344
		c0.194,0.053,0.382,0.08,0.569,0.08c0.646,0,1.167-0.232,1.565-0.697s0.652-1.002,0.761-1.605l0.388,0.139
		c-0.054,0.24-0.138,0.502-0.247,0.793c-0.112,0.295-0.283,0.572-0.515,0.838c-0.232,0.264-0.532,0.486-0.902,0.66
		c-0.369,0.172-0.829,0.256-1.385,0.256c-1.386,0-2.351-0.262-2.896-0.793c-0.545-0.529-0.816-1.275-0.816-2.244v-8.718H1.851
		V17.825z"/>
	<path fill="#F15D34" d="M11.857,23.718c0-0.896,0.2-1.727,0.598-2.492c0.395-0.768,0.903-1.43,1.523-1.986
		c0.618-0.557,1.311-0.99,2.078-1.301c0.767-0.312,1.521-0.468,2.262-0.468c0.736,0,1.49,0.156,2.256,0.468
		c0.769,0.311,1.461,0.744,2.081,1.301c0.618,0.557,1.126,1.219,1.526,1.986c0.396,0.766,0.594,1.596,0.594,2.492
		c0,0.857-0.186,1.67-0.555,2.424c-0.369,0.76-0.854,1.424-1.456,1.986c-0.601,0.57-1.289,1.016-2.065,1.344
		c-0.775,0.334-1.569,0.492-2.381,0.492c-0.816,0-1.61-0.158-2.386-0.492c-0.777-0.328-1.466-0.773-2.066-1.344
		c-0.6-0.563-1.085-1.227-1.454-1.986C12.043,25.388,11.857,24.575,11.857,23.718z M14.629,23.718c0,1.297,0.103,2.33,0.305,3.096
		c0.203,0.768,0.473,1.357,0.804,1.77c0.333,0.41,0.722,0.682,1.164,0.805c0.443,0.129,0.916,0.193,1.417,0.193
		c0.497,0,0.968-0.064,1.411-0.193c0.445-0.123,0.833-0.395,1.166-0.805c0.332-0.412,0.599-1.002,0.803-1.77
		c0.202-0.766,0.304-1.799,0.304-3.096c0-1.096-0.073-2.012-0.221-2.756c-0.149-0.74-0.375-1.34-0.68-1.807
		c-0.304-0.465-0.688-0.799-1.148-1c-0.463-0.199-1.009-0.3-1.635-0.3c-0.631,0-1.176,0.101-1.637,0.3
		c-0.463,0.201-0.848,0.535-1.152,1c-0.304,0.467-0.531,1.066-0.679,1.807C14.704,21.706,14.629,22.622,14.629,23.718z"/>
	<path fill="#F15D34" d="M39.271,29.284c-0.24,0.178-0.527,0.34-0.858,0.473c-0.333,0.141-0.74,0.207-1.221,0.207
		c-0.888,0-1.528-0.186-1.927-0.559c-0.396-0.377-0.667-0.9-0.818-1.574h-0.054c-0.075,0.164-0.177,0.367-0.304,0.613
		c-0.131,0.246-0.331,0.484-0.598,0.713s-0.624,0.42-1.068,0.578c-0.442,0.154-1.006,0.229-1.689,0.229
		c-0.777,0-1.396-0.084-1.858-0.256c-0.461-0.174-0.821-0.391-1.081-0.646c-0.259-0.254-0.429-0.543-0.513-0.863
		c-0.083-0.32-0.125-0.617-0.125-0.891c0-0.639,0.128-1.15,0.388-1.535c0.26-0.377,0.596-0.688,1.012-0.918
		c0.415-0.227,0.879-0.416,1.385-0.563c0.509-0.145,1.023-0.297,1.54-0.463c0.609-0.199,1.112-0.373,1.51-0.521
		c0.397-0.145,0.708-0.326,0.928-0.535c0.223-0.207,0.375-0.477,0.458-0.795c0.083-0.316,0.125-0.752,0.125-1.303
		c0-0.436-0.027-0.83-0.083-1.178c-0.058-0.348-0.158-0.645-0.306-0.889c-0.148-0.248-0.36-0.434-0.638-0.563
		c-0.275-0.129-0.647-0.19-1.11-0.19c-0.608,0-1.11,0.104-1.51,0.315c-0.398,0.209-0.596,0.552-0.596,1.027
		c0,0.311,0.029,0.615,0.083,0.916c0.055,0.301,0.085,0.525,0.085,0.672c0,0.256-0.094,0.469-0.278,0.643
		c-0.186,0.178-0.453,0.26-0.805,0.26c-0.607,0-0.987-0.107-1.135-0.326c-0.147-0.221-0.223-0.504-0.223-0.85
		c0-0.4,0.094-0.783,0.278-1.152c0.185-0.363,0.458-0.689,0.817-0.971c0.36-0.284,0.813-0.507,1.359-0.674
		c0.544-0.164,1.168-0.245,1.871-0.245c0.849,0,1.562,0.105,2.133,0.314c0.574,0.21,1.035,0.493,1.387,0.851
		c0.353,0.357,0.603,0.756,0.748,1.201c0.15,0.453,0.222,0.922,0.222,1.414v6.824c0,0.529,0.083,0.887,0.251,1.068
		c0.166,0.184,0.406,0.273,0.718,0.273c0.204,0,0.417-0.039,0.639-0.109c0.223-0.072,0.434-0.184,0.638-0.326L39.271,29.284z
		 M34.423,22.868h-0.058c-0.036,0.24-0.34,0.477-0.914,0.709l-2.079,0.824c-0.591,0.238-1.044,0.574-1.359,1.004
		c-0.313,0.426-0.47,0.963-0.47,1.604c0,0.27,0.026,0.557,0.082,0.846c0.054,0.295,0.157,0.555,0.307,0.783
		c0.146,0.227,0.355,0.416,0.621,0.564c0.268,0.143,0.614,0.215,1.041,0.215c0.61,0,1.104-0.129,1.484-0.383
		c0.378-0.252,0.664-0.574,0.859-0.959c0.193-0.385,0.322-0.799,0.387-1.242c0.065-0.455,0.098-0.857,0.098-1.223V22.868z"/>
	<path fill="#F15D34" d="M48.364,9.826h4.519v19.376h2.134v0.379h-4.462v-2.383h-0.056c-0.073,0.219-0.185,0.482-0.333,0.797
		c-0.147,0.309-0.364,0.609-0.651,0.902c-0.285,0.293-0.647,0.543-1.081,0.75c-0.437,0.209-0.966,0.316-1.595,0.316
		c-0.812,0-1.584-0.172-2.314-0.52c-0.731-0.344-1.372-0.811-1.928-1.396c-0.554-0.584-0.994-1.254-1.317-2.018
		c-0.323-0.756-0.483-1.555-0.483-2.396c0-0.818,0.157-1.607,0.471-2.352c0.315-0.75,0.74-1.406,1.275-1.963
		c0.536-0.557,1.155-1.003,1.858-1.344c0.701-0.337,1.451-0.505,2.244-0.505c1.018,0,1.839,0.245,2.467,0.738
		c0.63,0.497,1.073,1.101,1.333,1.81h0.054v-9.809h-2.135V9.826z M43.569,23.308c0,0.951,0.027,1.811,0.083,2.592
		c0.054,0.771,0.195,1.436,0.415,1.982c0.222,0.551,0.556,0.971,0.997,1.262c0.448,0.293,1.046,0.438,1.805,0.438
		c0.775,0,1.398-0.164,1.871-0.49c0.471-0.332,0.835-0.756,1.094-1.275c0.26-0.523,0.436-1.098,0.526-1.74
		c0.092-0.641,0.139-1.26,0.139-1.863c0-0.713-0.014-1.33-0.042-1.85c-0.027-0.518-0.078-0.982-0.152-1.383
		c-0.075-0.404-0.176-0.752-0.306-1.043c-0.13-0.291-0.288-0.568-0.47-0.822c-0.278-0.364-0.638-0.666-1.081-0.905
		c-0.445-0.233-1.01-0.354-1.693-0.354c-0.645,0-1.178,0.127-1.594,0.384c-0.415,0.256-0.738,0.621-0.968,1.092
		c-0.232,0.477-0.394,1.051-0.487,1.715C43.616,21.716,43.569,22.468,43.569,23.308z"/>
	<g>
		<path fill="#404040" d="M57.318,25.749h0.306c0.131,0.436,0.294,0.879,0.499,1.326c0.202,0.449,0.476,0.855,0.815,1.232
			c0.344,0.373,0.763,0.684,1.262,0.92c0.5,0.238,1.101,0.354,1.804,0.354c0.592,0,1.118-0.176,1.579-0.533
			c0.462-0.354,0.693-0.938,0.693-1.74c0-0.693-0.18-1.184-0.538-1.467c-0.362-0.279-0.783-0.506-1.263-0.67l-2.163-0.738
			c-0.276-0.094-0.577-0.211-0.9-0.344c-0.323-0.139-0.625-0.332-0.901-0.574c-0.276-0.246-0.503-0.563-0.679-0.943
			c-0.175-0.387-0.265-0.881-0.265-1.486c0-0.51,0.103-0.982,0.306-1.422c0.206-0.438,0.481-0.824,0.832-1.151
			s0.772-0.583,1.262-0.769c0.49-0.181,1.021-0.272,1.595-0.272c0.406,0,0.733,0.031,0.983,0.095
			c0.248,0.067,0.466,0.128,0.651,0.193c0.185,0.063,0.351,0.128,0.5,0.193c0.146,0.063,0.321,0.094,0.525,0.094
			c0.206,0,0.35-0.07,0.444-0.221h0.304v3.123h-0.304c-0.129-0.398-0.279-0.787-0.444-1.16c-0.165-0.373-0.365-0.711-0.595-1.002
			c-0.232-0.291-0.519-0.521-0.86-0.685c-0.342-0.163-0.743-0.246-1.204-0.246c-0.888,0-1.577,0.196-2.065,0.587
			c-0.49,0.396-0.735,0.92-0.735,1.576c0,0.588,0.208,1.027,0.625,1.328c0.415,0.303,1.029,0.582,1.843,0.838l2.021,0.656
			c0.87,0.295,1.582,0.697,2.134,1.209c0.556,0.512,0.833,1.186,0.833,2.029c0,0.488-0.097,0.973-0.292,1.449
			c-0.193,0.473-0.479,0.891-0.859,1.246c-0.377,0.354-0.84,0.643-1.385,0.867c-0.545,0.215-1.168,0.326-1.871,0.326
			c-0.408,0-0.78-0.041-1.123-0.121c-0.342-0.09-0.656-0.172-0.943-0.266c-0.286-0.09-0.549-0.176-0.789-0.256
			c-0.241-0.084-0.462-0.123-0.666-0.123c-0.204,0-0.352,0.039-0.443,0.123c-0.09,0.08-0.166,0.166-0.221,0.256h-0.306V25.749z"/>
		<path fill="#404040" d="M76.584,36.87h2.135v-9.563h-0.056c-0.055,0.184-0.157,0.428-0.305,0.729
			c-0.148,0.299-0.358,0.592-0.638,0.879c-0.278,0.283-0.635,0.525-1.067,0.732c-0.434,0.209-0.966,0.32-1.593,0.32
			c-0.814,0-1.586-0.176-2.316-0.523c-0.731-0.344-1.371-0.811-1.926-1.396c-0.555-0.584-0.993-1.254-1.317-2.014
			c-0.324-0.76-0.485-1.559-0.485-2.4c0-0.818,0.156-1.605,0.473-2.352c0.314-0.75,0.738-1.402,1.275-1.961
			c0.534-0.559,1.153-1.005,1.856-1.343c0.703-0.336,1.451-0.508,2.246-0.508c1.016,0,1.842,0.245,2.48,0.738
			c0.637,0.497,1.094,1.136,1.373,1.921h0.056v-2.305h4.464v0.384h-2.136V36.87h2.136v0.387h-6.655V36.87z M71.79,23.308
			c0,0.951,0.027,1.814,0.084,2.592c0.054,0.771,0.192,1.436,0.413,1.982c0.222,0.551,0.556,0.971,0.997,1.262
			c0.446,0.293,1.046,0.438,1.803,0.438c0.777,0,1.4-0.164,1.872-0.49c0.471-0.332,0.836-0.756,1.094-1.275
			c0.26-0.523,0.436-1.098,0.529-1.736c0.091-0.641,0.139-1.264,0.139-1.867c0-0.713-0.015-1.328-0.041-1.85
			c-0.03-0.518-0.082-0.982-0.154-1.383c-0.075-0.404-0.176-0.752-0.305-1.041c-0.129-0.293-0.288-0.566-0.471-0.824
			c-0.277-0.364-0.639-0.666-1.083-0.905c-0.443-0.233-1.006-0.354-1.689-0.354c-0.647,0-1.178,0.128-1.593,0.384
			c-0.417,0.256-0.739,0.621-0.972,1.092c-0.23,0.477-0.391,1.051-0.484,1.715C71.834,21.716,71.79,22.468,71.79,23.308z"/>
		<path fill="#404040" d="M99.785,29.581H95.32v-2.768h-0.056c-0.163,0.369-0.362,0.738-0.593,1.107
			c-0.235,0.377-0.52,0.721-0.861,1.018c-0.341,0.303-0.742,0.547-1.188,0.74c-0.456,0.188-0.986,0.289-1.595,0.289
			c-0.742,0-1.339-0.084-1.803-0.246c-0.463-0.168-0.823-0.34-1.082-0.52c-0.127-0.094-0.27-0.209-0.428-0.344
			c-0.158-0.137-0.304-0.324-0.433-0.561c-0.127-0.242-0.239-0.547-0.329-0.922c-0.094-0.371-0.141-0.838-0.141-1.381v-7.786h-2.135
			v-0.384h4.518v8.414c0,0.479,0.032,0.912,0.099,1.316c0.065,0.398,0.188,0.752,0.375,1.055c0.182,0.305,0.426,0.537,0.72,0.715
			c0.292,0.168,0.686,0.256,1.165,0.256c0.403,0,0.828-0.115,1.263-0.354c0.433-0.236,0.828-0.576,1.19-1.018
			c0.36-0.439,0.659-0.963,0.902-1.572c0.236-0.613,0.355-1.303,0.355-2.068v-6.36h-2.104v-0.384h4.492v11.377h2.132V29.581z"/>
		<path fill="#404040" d="M113.699,29.284c-0.236,0.182-0.526,0.34-0.854,0.473c-0.335,0.141-0.74,0.211-1.227,0.211
			c-0.881,0-1.526-0.189-1.922-0.563c-0.398-0.377-0.67-0.9-0.82-1.574h-0.055c-0.07,0.164-0.172,0.367-0.305,0.617
			c-0.128,0.246-0.328,0.48-0.597,0.713c-0.268,0.225-0.622,0.416-1.065,0.574c-0.443,0.156-1.008,0.232-1.694,0.232
			c-0.773,0-1.395-0.088-1.854-0.26c-0.46-0.174-0.821-0.391-1.083-0.646c-0.257-0.254-0.431-0.543-0.508-0.863
			c-0.084-0.316-0.131-0.617-0.131-0.891c0-0.639,0.132-1.15,0.39-1.533c0.261-0.379,0.597-0.689,1.016-0.92
			c0.416-0.227,0.873-0.412,1.386-0.563c0.509-0.145,1.019-0.297,1.537-0.461c0.609-0.201,1.11-0.375,1.51-0.523
			c0.401-0.145,0.705-0.326,0.926-0.535c0.224-0.207,0.379-0.477,0.464-0.795c0.079-0.316,0.121-0.748,0.121-1.301
			c0-0.438-0.028-0.832-0.084-1.18c-0.054-0.346-0.156-0.645-0.304-0.889c-0.146-0.246-0.358-0.434-0.639-0.563
			c-0.275-0.127-0.646-0.19-1.109-0.19c-0.607,0-1.111,0.104-1.508,0.315c-0.396,0.209-0.598,0.552-0.598,1.029
			c0,0.309,0.028,0.613,0.084,0.914c0.053,0.301,0.08,0.525,0.08,0.672c0,0.256-0.09,0.473-0.275,0.645
			c-0.184,0.176-0.455,0.26-0.805,0.26c-0.607,0-0.987-0.109-1.135-0.328c-0.148-0.221-0.222-0.504-0.222-0.85
			c0-0.4,0.092-0.783,0.28-1.15c0.181-0.365,0.452-0.691,0.814-0.973c0.359-0.284,0.813-0.507,1.36-0.674
			c0.545-0.164,1.167-0.245,1.868-0.245c0.854,0,1.561,0.105,2.134,0.316c0.575,0.208,1.033,0.491,1.385,0.849
			s0.605,0.758,0.752,1.207c0.146,0.447,0.217,0.916,0.217,1.408v6.824c0,0.533,0.084,0.887,0.257,1.068
			c0.162,0.184,0.402,0.273,0.721,0.273c0.201,0,0.411-0.035,0.638-0.109c0.219-0.072,0.429-0.18,0.638-0.326L113.699,29.284z
			 M108.849,22.868h-0.054c-0.036,0.24-0.342,0.477-0.915,0.709l-2.078,0.828c-0.591,0.234-1.047,0.57-1.358,1
			c-0.318,0.426-0.473,0.963-0.473,1.604c0,0.273,0.028,0.557,0.081,0.846c0.06,0.295,0.157,0.555,0.31,0.787
			c0.146,0.223,0.354,0.412,0.623,0.561c0.265,0.143,0.609,0.215,1.037,0.215c0.609,0,1.104-0.129,1.486-0.383
			c0.375-0.252,0.663-0.574,0.854-0.959c0.199-0.385,0.323-0.799,0.392-1.242c0.064-0.455,0.095-0.857,0.095-1.223V22.868z"/>
		<path fill="#404040" d="M114.535,29.202h2.129V18.209h-2.129v-0.384h4.458v2.771h0.057c0.072-0.275,0.193-0.586,0.359-0.934
			c0.168-0.346,0.399-0.68,0.693-1.002c0.295-0.318,0.65-0.585,1.066-0.806c0.417-0.22,0.919-0.33,1.513-0.33
			c0.426,0,0.797,0.067,1.109,0.205c0.312,0.138,0.574,0.311,0.775,0.52c0.205,0.211,0.352,0.455,0.446,0.729
			c0.089,0.273,0.135,0.547,0.135,0.822c0,0.602-0.135,1.004-0.413,1.203c-0.28,0.203-0.606,0.303-0.972,0.303
			c-0.811,0-1.221-0.256-1.221-0.77c0-0.164,0.02-0.297,0.056-0.396c0.039-0.1,0.078-0.201,0.122-0.299
			c0.049-0.102,0.091-0.217,0.128-0.346c0.036-0.125,0.057-0.309,0.057-0.547c0-0.584-0.326-0.874-0.976-0.874
			c-0.29,0-0.605,0.108-0.938,0.326c-0.331,0.22-0.645,0.54-0.931,0.96c-0.285,0.42-0.522,0.928-0.718,1.518
			c-0.195,0.592-0.293,1.277-0.293,2.045v6.277h2.413v0.379h-6.928V29.202z"/>
		<path fill="#404040" d="M129.111,22.79c0,0.182-0.001,0.365-0.011,0.563c-0.011,0.188-0.014,0.43-0.014,0.723
			c0,0.604,0.03,1.23,0.107,1.891c0.075,0.656,0.236,1.25,0.487,1.781c0.25,0.531,0.618,0.967,1.108,1.314
			c0.488,0.346,1.143,0.52,1.952,0.52c0.815,0,1.485-0.115,2.01-0.354c0.527-0.236,0.943-0.523,1.252-0.863
			c0.305-0.34,0.526-0.684,0.676-1.029c0.149-0.348,0.257-0.631,0.331-0.852l0.418,0.084c-0.059,0.201-0.16,0.49-0.319,0.863
			c-0.159,0.377-0.406,0.75-0.749,1.127c-0.345,0.371-0.802,0.703-1.387,0.982c-0.58,0.287-1.336,0.428-2.258,0.428
			c-0.924,0-1.779-0.146-2.563-0.439c-0.788-0.293-1.467-0.713-2.035-1.26c-0.577-0.551-1.019-1.201-1.332-1.959
			c-0.318-0.758-0.474-1.602-0.474-2.537c0-0.801,0.161-1.586,0.483-2.342c0.327-0.758,0.769-1.43,1.334-2.014
			c0.564-0.584,1.222-1.055,1.979-1.412c0.758-0.356,1.571-0.534,2.441-0.534c0.516,0,1.068,0.091,1.66,0.272
			c0.592,0.186,1.143,0.482,1.653,0.893c0.503,0.41,0.929,0.955,1.274,1.631c0.339,0.676,0.511,1.518,0.511,2.523H129.111z
			 M134.819,22.405c0.042-0.258,0.059-0.498,0.059-0.715c0-0.219,0-0.449,0-0.686c0-0.621-0.059-1.131-0.182-1.533
			c-0.118-0.404-0.283-0.722-0.498-0.96c-0.215-0.237-0.472-0.406-0.777-0.507c-0.303-0.102-0.635-0.149-0.985-0.149
			c-0.627,0-1.141,0.123-1.551,0.37c-0.408,0.244-0.729,0.58-0.969,1c-0.238,0.42-0.421,0.904-0.542,1.451
			c-0.118,0.553-0.197,1.125-0.238,1.729H134.819z"/>
	</g>
	<path fill="#F15D34" d="M170.083,29.931h-29.529V0.743h29.529V29.931z M164.236,6.726h-17.837V24.36h17.837V6.726z"/>
</g>
</svg>
