<?xml version="1.0" encoding="utf-8"?>
<!-- Generator: Adobe Illustrator 15.1.0, SVG Export Plug-In . SVG Version: 6.00 Build 0)  -->
<!DOCTYPE svg PUBLIC "-//W3C//DTD SVG 1.1//EN" "http://www.w3.org/Graphics/SVG/1.1/DTD/svg11.dtd">
<svg version="1.1" id="Layer_1" xmlns="http://www.w3.org/2000/svg" xmlns:xlink="http://www.w3.org/1999/xlink" x="0px" y="0px"
	 width="100px" height="24px" viewBox="0 0 100 24" enable-background="new 0 0 100 24" xml:space="preserve">
<g opacity="0.35">
	<path fill="#F15D34" d="M0.725,10.882h1.248V8.793c0.087,0.032,0.168,0.059,0.244,0.081c0.075,0.022,0.204,0.034,0.388,0.034
		c0.162,0,0.303-0.02,0.421-0.058c0.119-0.038,0.231-0.1,0.34-0.186v2.219h2.299v0.227H3.366v5.296c0,0.303,0.03,0.548,0.088,0.737
		c0.06,0.188,0.139,0.333,0.236,0.437c0.096,0.103,0.202,0.17,0.316,0.202c0.113,0.032,0.223,0.05,0.332,0.05
		c0.378,0,0.682-0.139,0.916-0.413c0.232-0.275,0.38-0.592,0.444-0.948l0.228,0.081c-0.033,0.141-0.082,0.298-0.146,0.469
		c-0.065,0.174-0.164,0.338-0.299,0.495c-0.135,0.155-0.31,0.286-0.527,0.388c-0.217,0.104-0.486,0.155-0.811,0.155
		c-0.81,0-1.374-0.158-1.692-0.472c-0.318-0.311-0.478-0.754-0.478-1.325v-5.152H0.725V10.882z"/>
	<path fill="#F15D34" d="M6.572,14.365c0-0.529,0.117-1.021,0.349-1.475c0.231-0.454,0.528-0.844,0.891-1.174
		c0.36-0.329,0.768-0.585,1.215-0.769c0.448-0.184,0.888-0.276,1.32-0.276c0.431,0,0.871,0.092,1.32,0.276
		c0.448,0.184,0.852,0.44,1.214,0.769c0.362,0.33,0.658,0.72,0.892,1.174c0.231,0.454,0.348,0.946,0.348,1.475
		c0,0.507-0.109,0.984-0.324,1.433c-0.217,0.448-0.5,0.839-0.853,1.174c-0.349,0.335-0.752,0.601-1.205,0.795
		c-0.452,0.193-0.918,0.291-1.393,0.291s-0.939-0.098-1.393-0.291c-0.454-0.194-0.855-0.46-1.206-0.795
		c-0.352-0.335-0.636-0.726-0.851-1.174S6.572,14.872,6.572,14.365z M8.193,14.365c0,0.766,0.06,1.376,0.177,1.83
		c0.12,0.452,0.275,0.801,0.471,1.045c0.193,0.242,0.421,0.4,0.681,0.478c0.257,0.074,0.534,0.113,0.825,0.113
		c0.291,0,0.566-0.039,0.826-0.113c0.259-0.077,0.486-0.235,0.68-0.478c0.195-0.244,0.352-0.593,0.47-1.045
		c0.119-0.454,0.178-1.064,0.178-1.83c0-0.649-0.043-1.191-0.129-1.629c-0.087-0.437-0.219-0.793-0.397-1.068
		c-0.179-0.275-0.402-0.473-0.673-0.591c-0.271-0.119-0.589-0.179-0.955-0.179c-0.367,0-0.686,0.06-0.955,0.179
		c-0.272,0.118-0.495,0.316-0.673,0.591s-0.31,0.631-0.397,1.068C8.234,13.174,8.193,13.716,8.193,14.365z"/>
	<path fill="#F15D34" d="M22.591,17.651c-0.141,0.108-0.309,0.203-0.501,0.284c-0.194,0.081-0.434,0.122-0.713,0.122
		c-0.518,0-0.893-0.112-1.126-0.332c-0.232-0.222-0.392-0.532-0.478-0.931H19.74c-0.042,0.097-0.103,0.219-0.178,0.363
		c-0.076,0.146-0.191,0.286-0.349,0.421c-0.156,0.136-0.364,0.25-0.624,0.34c-0.258,0.091-0.589,0.139-0.987,0.139
		c-0.454,0-0.815-0.052-1.085-0.155c-0.271-0.102-0.479-0.229-0.631-0.379c-0.152-0.152-0.252-0.322-0.3-0.51
		c-0.049-0.191-0.073-0.366-0.073-0.527c0-0.378,0.075-0.681,0.226-0.908c0.152-0.226,0.348-0.406,0.591-0.541
		c0.244-0.136,0.513-0.246,0.809-0.332c0.298-0.087,0.598-0.178,0.899-0.275c0.357-0.119,0.65-0.222,0.883-0.308
		c0.232-0.087,0.413-0.193,0.542-0.317c0.129-0.123,0.219-0.28,0.267-0.47c0.049-0.188,0.073-0.445,0.073-0.769
		c0-0.259-0.016-0.49-0.047-0.695c-0.032-0.206-0.092-0.381-0.177-0.527c-0.087-0.146-0.212-0.256-0.374-0.332
		c-0.163-0.076-0.379-0.113-0.648-0.113c-0.356,0-0.651,0.062-0.882,0.187c-0.233,0.124-0.348,0.327-0.348,0.608
		c0,0.183,0.015,0.364,0.047,0.542c0.032,0.178,0.048,0.311,0.048,0.397c0,0.151-0.054,0.278-0.16,0.381
		c-0.109,0.103-0.265,0.153-0.472,0.153c-0.354,0-0.577-0.065-0.663-0.194c-0.084-0.13-0.129-0.298-0.129-0.503
		c0-0.237,0.054-0.464,0.163-0.68c0.106-0.215,0.267-0.407,0.477-0.575c0.209-0.167,0.474-0.3,0.793-0.397
		c0.318-0.097,0.683-0.146,1.094-0.146c0.495,0,0.912,0.062,1.245,0.187c0.335,0.124,0.604,0.292,0.81,0.502
		c0.207,0.211,0.351,0.448,0.438,0.713c0.086,0.264,0.128,0.542,0.128,0.833v4.034c0,0.313,0.049,0.522,0.147,0.632
		c0.097,0.107,0.236,0.16,0.42,0.16c0.12,0,0.243-0.021,0.374-0.064c0.128-0.043,0.253-0.107,0.372-0.194L22.591,17.651z
		 M19.757,13.862h-0.032c-0.023,0.14-0.2,0.281-0.537,0.421l-1.213,0.486c-0.346,0.142-0.609,0.338-0.793,0.591
		c-0.184,0.254-0.276,0.569-0.276,0.948c0,0.161,0.017,0.328,0.049,0.502c0.031,0.173,0.091,0.326,0.177,0.461
		c0.086,0.136,0.208,0.245,0.364,0.332c0.157,0.086,0.359,0.129,0.609,0.129c0.356,0,0.646-0.074,0.867-0.227
		c0.221-0.15,0.388-0.339,0.501-0.565c0.114-0.228,0.189-0.472,0.228-0.738c0.039-0.265,0.057-0.504,0.057-0.72V13.862z"/>
	<path fill="#F15D34" d="M27.903,6.153h2.639v11.451h1.248v0.228h-2.607v-1.409H29.15c-0.044,0.129-0.108,0.286-0.195,0.47
		c-0.085,0.183-0.211,0.362-0.38,0.535c-0.166,0.171-0.377,0.32-0.631,0.445c-0.254,0.123-0.564,0.186-0.931,0.186
		c-0.475,0-0.926-0.103-1.353-0.309c-0.426-0.204-0.801-0.48-1.125-0.825c-0.324-0.345-0.581-0.743-0.768-1.191
		c-0.19-0.447-0.284-0.92-0.284-1.417c0-0.485,0.09-0.949,0.273-1.392c0.186-0.443,0.433-0.829,0.747-1.159
		c0.312-0.328,0.674-0.593,1.085-0.793c0.41-0.199,0.847-0.3,1.31-0.3c0.595,0,1.076,0.146,1.442,0.438
		c0.367,0.292,0.627,0.648,0.778,1.069h0.032V6.38h-1.247V6.153z M25.102,14.122c0,0.562,0.014,1.071,0.049,1.53
		c0.031,0.46,0.112,0.85,0.242,1.174s0.323,0.573,0.583,0.746c0.26,0.172,0.61,0.259,1.053,0.259c0.453,0,0.819-0.099,1.093-0.292
		c0.277-0.194,0.49-0.445,0.64-0.753c0.151-0.308,0.254-0.65,0.308-1.027c0.055-0.379,0.082-0.747,0.082-1.103
		c0-0.422-0.008-0.785-0.025-1.094c-0.016-0.307-0.045-0.58-0.088-0.817c-0.044-0.238-0.102-0.443-0.178-0.616
		c-0.076-0.172-0.168-0.334-0.274-0.486c-0.163-0.216-0.374-0.394-0.632-0.535c-0.26-0.139-0.59-0.21-0.989-0.21
		c-0.378,0-0.688,0.076-0.932,0.227c-0.242,0.151-0.43,0.367-0.566,0.647c-0.135,0.281-0.229,0.619-0.284,1.012
		C25.127,13.18,25.102,13.625,25.102,14.122z"/>
	<g>
		<path fill="#404040" d="M33.135,15.564h0.177c0.076,0.258,0.172,0.521,0.291,0.785c0.12,0.264,0.278,0.507,0.479,0.728
			c0.2,0.222,0.445,0.404,0.737,0.542c0.292,0.142,0.643,0.212,1.054,0.212c0.346,0,0.653-0.105,0.922-0.316
			c0.271-0.211,0.406-0.553,0.406-1.028c0-0.41-0.106-0.699-0.316-0.867c-0.21-0.165-0.457-0.3-0.737-0.395l-1.264-0.438
			c-0.161-0.056-0.337-0.122-0.525-0.202c-0.189-0.082-0.364-0.195-0.528-0.341c-0.162-0.146-0.293-0.333-0.396-0.56
			c-0.103-0.226-0.154-0.518-0.154-0.874c0-0.302,0.06-0.583,0.179-0.842c0.12-0.258,0.28-0.486,0.485-0.681
			c0.205-0.193,0.45-0.344,0.738-0.453c0.286-0.108,0.596-0.163,0.931-0.163c0.237,0,0.428,0.02,0.575,0.057
			c0.145,0.039,0.272,0.076,0.38,0.114c0.108,0.039,0.204,0.076,0.292,0.114c0.087,0.038,0.19,0.056,0.307,0.056
			c0.12,0,0.205-0.042,0.261-0.13h0.177v1.847h-0.177c-0.077-0.238-0.163-0.466-0.261-0.688c-0.098-0.221-0.213-0.418-0.347-0.591
			c-0.135-0.173-0.304-0.308-0.504-0.405c-0.199-0.097-0.435-0.146-0.703-0.146c-0.518,0-0.921,0.117-1.207,0.35
			c-0.285,0.231-0.43,0.542-0.43,0.93c0,0.345,0.122,0.607,0.365,0.786c0.242,0.178,0.602,0.343,1.077,0.494l1.183,0.39
			c0.508,0.17,0.924,0.41,1.246,0.711c0.326,0.303,0.488,0.701,0.488,1.2c0,0.29-0.058,0.577-0.171,0.856
			c-0.114,0.282-0.28,0.527-0.501,0.739c-0.22,0.208-0.491,0.378-0.811,0.51c-0.317,0.129-0.681,0.194-1.091,0.194
			c-0.239,0-0.457-0.025-0.657-0.074c-0.199-0.049-0.384-0.1-0.55-0.153c-0.167-0.054-0.322-0.105-0.461-0.153
			c-0.14-0.05-0.271-0.074-0.388-0.074c-0.121,0-0.206,0.024-0.259,0.074c-0.055,0.048-0.097,0.1-0.131,0.153h-0.177V15.564z"/>
		<path fill="#404040" d="M44.392,22.139h1.247v-5.652h-0.033c-0.033,0.107-0.092,0.251-0.177,0.43
			c-0.087,0.178-0.212,0.35-0.374,0.517c-0.161,0.169-0.37,0.314-0.623,0.439c-0.253,0.123-0.564,0.187-0.931,0.187
			c-0.475,0-0.926-0.104-1.352-0.31c-0.428-0.204-0.802-0.48-1.126-0.825c-0.323-0.345-0.581-0.743-0.768-1.19
			c-0.189-0.448-0.284-0.921-0.284-1.417c0-0.485,0.091-0.95,0.275-1.393c0.183-0.443,0.431-0.828,0.746-1.158
			c0.311-0.33,0.674-0.594,1.084-0.793c0.411-0.2,0.848-0.301,1.313-0.301c0.594,0,1.076,0.146,1.448,0.438
			c0.374,0.291,0.641,0.669,0.803,1.133h0.032v-1.36h2.607v0.227H47.03v11.029h1.247v0.228h-3.886V22.139z M41.59,14.123
			c0,0.561,0.016,1.07,0.048,1.529c0.032,0.46,0.113,0.85,0.243,1.174c0.129,0.324,0.323,0.573,0.583,0.746
			c0.259,0.172,0.608,0.259,1.052,0.259c0.453,0,0.818-0.099,1.092-0.292c0.276-0.194,0.49-0.445,0.641-0.752
			c0.15-0.309,0.253-0.651,0.308-1.028c0.054-0.379,0.082-0.747,0.082-1.103c0-0.421-0.009-0.784-0.025-1.094
			c-0.017-0.307-0.047-0.58-0.088-0.817c-0.043-0.238-0.103-0.443-0.177-0.615c-0.077-0.173-0.17-0.335-0.277-0.486
			c-0.163-0.216-0.373-0.394-0.632-0.535c-0.259-0.14-0.588-0.211-0.988-0.211c-0.378,0-0.688,0.076-0.93,0.227
			c-0.243,0.151-0.432,0.367-0.568,0.647c-0.134,0.281-0.229,0.619-0.283,1.012C41.616,13.18,41.59,13.625,41.59,14.123z"/>
		<path fill="#404040" d="M57.946,17.831h-2.608v-1.636h-0.032c-0.097,0.217-0.213,0.434-0.348,0.655
			c-0.136,0.221-0.302,0.423-0.502,0.6c-0.201,0.178-0.432,0.324-0.696,0.437c-0.267,0.113-0.574,0.172-0.931,0.172
			c-0.433,0-0.783-0.049-1.054-0.146c-0.27-0.099-0.479-0.2-0.632-0.309c-0.074-0.053-0.159-0.121-0.249-0.202
			c-0.093-0.081-0.177-0.191-0.252-0.332c-0.076-0.141-0.14-0.321-0.195-0.543c-0.053-0.221-0.08-0.493-0.08-0.816v-4.601h-1.249
			v-0.227h2.642v4.974c0,0.279,0.018,0.538,0.056,0.775c0.038,0.238,0.11,0.445,0.218,0.624c0.108,0.177,0.249,0.318,0.423,0.422
			c0.173,0.103,0.399,0.153,0.68,0.153c0.237,0,0.483-0.07,0.737-0.212c0.254-0.138,0.484-0.339,0.696-0.6
			c0.211-0.257,0.386-0.567,0.527-0.93c0.139-0.36,0.209-0.771,0.209-1.224v-3.757h-1.229v-0.227H56.7v6.721h1.246V17.831z"/>
		<path fill="#404040" d="M66.078,17.651c-0.142,0.109-0.309,0.203-0.504,0.284c-0.193,0.082-0.432,0.123-0.713,0.123
			c-0.519,0-0.893-0.113-1.125-0.333c-0.232-0.221-0.391-0.532-0.479-0.931h-0.032c-0.042,0.097-0.104,0.219-0.177,0.363
			c-0.076,0.146-0.193,0.286-0.349,0.421c-0.157,0.136-0.364,0.25-0.624,0.341c-0.259,0.092-0.59,0.139-0.987,0.139
			c-0.453,0-0.815-0.052-1.086-0.156c-0.27-0.101-0.48-0.228-0.632-0.379c-0.151-0.152-0.252-0.322-0.299-0.51
			c-0.05-0.19-0.073-0.366-0.073-0.527c0-0.378,0.076-0.681,0.228-0.907c0.15-0.227,0.348-0.407,0.59-0.542
			c0.243-0.136,0.513-0.246,0.811-0.332c0.298-0.087,0.597-0.178,0.9-0.275c0.354-0.119,0.647-0.222,0.881-0.307
			c0.232-0.087,0.413-0.194,0.544-0.317c0.129-0.123,0.218-0.281,0.267-0.469c0.048-0.189,0.072-0.445,0.072-0.771
			c0-0.259-0.017-0.49-0.047-0.695c-0.036-0.206-0.093-0.381-0.181-0.526c-0.086-0.146-0.209-0.257-0.371-0.333
			c-0.163-0.075-0.379-0.114-0.648-0.114c-0.355,0-0.65,0.062-0.883,0.187c-0.232,0.124-0.349,0.327-0.349,0.608
			c0,0.183,0.017,0.364,0.05,0.542c0.032,0.178,0.047,0.311,0.047,0.396c0,0.151-0.054,0.278-0.16,0.381
			c-0.106,0.104-0.266,0.153-0.471,0.153c-0.355,0-0.577-0.065-0.664-0.194c-0.087-0.129-0.128-0.298-0.128-0.503
			c0-0.237,0.052-0.463,0.16-0.679s0.268-0.408,0.477-0.576c0.213-0.167,0.477-0.3,0.796-0.397c0.317-0.097,0.683-0.146,1.094-0.146
			c0.496,0,0.911,0.063,1.245,0.188c0.337,0.123,0.605,0.292,0.81,0.501c0.205,0.211,0.352,0.448,0.438,0.713
			c0.086,0.264,0.128,0.542,0.128,0.834v4.033c0,0.313,0.05,0.523,0.147,0.632c0.098,0.107,0.236,0.16,0.42,0.16
			c0.119,0,0.243-0.021,0.373-0.063c0.129-0.043,0.253-0.108,0.373-0.194L66.078,17.651z M63.244,13.862h-0.036
			c-0.018,0.141-0.198,0.282-0.532,0.421l-1.214,0.486c-0.347,0.142-0.61,0.339-0.795,0.591c-0.184,0.254-0.275,0.569-0.275,0.948
			c0,0.162,0.016,0.328,0.048,0.502c0.033,0.173,0.093,0.326,0.18,0.463c0.087,0.134,0.207,0.243,0.363,0.33
			c0.157,0.086,0.359,0.129,0.607,0.129c0.358,0,0.645-0.074,0.867-0.227c0.221-0.15,0.388-0.339,0.501-0.565
			c0.114-0.228,0.188-0.472,0.227-0.738c0.039-0.265,0.06-0.504,0.06-0.72V13.862z"/>
		<path fill="#404040" d="M66.562,17.604h1.248v-6.494h-1.248v-0.227h2.607v1.637h0.035c0.041-0.162,0.111-0.346,0.209-0.552
			c0.097-0.204,0.232-0.402,0.406-0.591c0.172-0.189,0.38-0.348,0.621-0.478c0.244-0.129,0.537-0.195,0.883-0.195
			c0.248,0,0.465,0.041,0.648,0.123c0.184,0.081,0.333,0.184,0.453,0.308c0.119,0.123,0.206,0.266,0.26,0.428
			c0.054,0.163,0.081,0.324,0.081,0.486c0,0.357-0.081,0.594-0.243,0.713c-0.162,0.119-0.352,0.178-0.565,0.178
			c-0.475,0-0.714-0.151-0.714-0.454c0-0.097,0.012-0.175,0.032-0.235c0.022-0.06,0.045-0.12,0.072-0.178
			c0.027-0.059,0.052-0.127,0.073-0.202c0.022-0.076,0.032-0.184,0.032-0.325c0-0.345-0.188-0.518-0.566-0.518
			c-0.172,0-0.355,0.064-0.55,0.194c-0.195,0.129-0.376,0.318-0.543,0.567c-0.169,0.248-0.31,0.547-0.422,0.899
			c-0.112,0.35-0.168,0.752-0.168,1.207v3.708h1.408v0.228h-4.051V17.604z"/>
		<path fill="#404040" d="M75.08,13.814c0,0.107-0.002,0.218-0.006,0.331c-0.006,0.114-0.01,0.258-0.01,0.43
			c0,0.357,0.021,0.729,0.066,1.118c0.041,0.388,0.136,0.739,0.284,1.052c0.145,0.313,0.359,0.572,0.646,0.778
			c0.285,0.204,0.667,0.308,1.142,0.308s0.865-0.07,1.175-0.212c0.308-0.138,0.55-0.308,0.729-0.509
			c0.178-0.2,0.308-0.402,0.396-0.608c0.088-0.204,0.15-0.372,0.194-0.501l0.243,0.048c-0.032,0.118-0.095,0.288-0.187,0.511
			c-0.093,0.22-0.238,0.443-0.437,0.663c-0.202,0.222-0.47,0.416-0.812,0.584c-0.339,0.168-0.779,0.252-1.319,0.252
			s-1.04-0.087-1.498-0.261c-0.459-0.172-0.856-0.421-1.189-0.745c-0.336-0.323-0.594-0.709-0.778-1.158
			c-0.184-0.446-0.275-0.946-0.275-1.497c0-0.476,0.096-0.938,0.284-1.385c0.188-0.449,0.447-0.845,0.776-1.19
			c0.329-0.346,0.715-0.624,1.157-0.835c0.442-0.21,0.918-0.316,1.425-0.316c0.305,0,0.629,0.055,0.974,0.163
			c0.346,0.108,0.666,0.283,0.963,0.526s0.546,0.564,0.744,0.965c0.201,0.398,0.302,0.896,0.302,1.489H75.08z M78.417,13.587
			c0.022-0.15,0.032-0.291,0.032-0.421c0-0.129,0-0.264,0-0.405c0-0.367-0.035-0.669-0.104-0.907
			c-0.07-0.237-0.168-0.426-0.292-0.567c-0.124-0.139-0.277-0.239-0.454-0.299c-0.178-0.059-0.37-0.089-0.576-0.089
			c-0.366,0-0.668,0.074-0.905,0.219c-0.237,0.146-0.428,0.343-0.567,0.592c-0.141,0.248-0.245,0.534-0.316,0.857
			c-0.07,0.325-0.116,0.664-0.138,1.021H78.417z"/>
	</g>
	<path fill="#F15D34" d="M99.019,18.037H81.767V0.785h17.252V18.037z M95.604,4.322H85.182v10.42h10.422V4.322z"/>
</g>
</svg>
